SplineFontDB: 3.0
FontName: GeneraleMonoA
FullName: GeneraleMonoA
FamilyName: GeneraleMono
Weight: Regular
Copyright: Generale Mono is released under the SIL Open Font Licence v1.1 - 2017. \nOriginal font created by Ariel Martin Perez
UComments: "[EN]+AAoACgAA-Hey! you found the comment section!+AAoACgAA-Please tell me if ever you use G+AOkA-n+AOkA-rale Mono in any of your projects, if you're making a fork, if you've found errors in it, or what do you think of it.+AAoA-Here's my mail: contact@arielgraphisme.com+AAoA-And my website: www.arielgraphisme.com+AAoACgAA-I hope you enjoy G+AOkA-n+AOkA-rale Mono,+AAoACgAA-Ariel+AAoACgAA[FR]+AAoACgAA-Hey ! Tu as trouv+AOkA la section de commentaires !+AAoACgAA-S'il te plait, dis-moi si jamais tu utilises G+AOkA-n+AOkA-rale Mono dans l'un de tes projets, si tu penses cr+AOkA-er une variation, si tu as trouv+AOkA des erreurs dans le fichier ou ce que tu penses de cette fonte.+AAoACgAA-Voici mon courriel: contact@arielgraphisme.com+AAoA-Et mon site web: www.arielgraphisme.com+AAoACgAA-J'esp+AOgA-re que tu aimes G+AOkA-n+AOkA-rale Mono,+AAoACgAA-Ariel+AAoACgAA[ES]+AAoACgCh-Hey! +AKEA-Encontraste la secci+APMA-n de comentarios!+AAoACgAA-Por favor, dime si utilizas G+AOkA-n+AOkA-rale Mono en alguno de tus proyectos, si quieres crear una variaci+APMA-n, si has encontrado errores en la fuente o qu+AOkA te parece.+AAoACgAA-Aqu+AO0A tienes mi correo: contact@arielgraphisme.com+AAoA-Y mi p+AOEA-gina web: www.arielgraphisme.com+AAoACgAA-Espero que te guste G+AOkA-n+AOkA-rale Mono,+AAoACgAA-Ariel+AAoACgAA-2017-11-14: Created with FontForge (http://fontforge.org)"
Version: 001.500
ItalicAngle: 0
UnderlinePosition: -100
UnderlineWidth: 50
Ascent: 800
Descent: 200
InvalidEm: 0
LayerCount: 2
Layer: 0 0 "Back" 1
Layer: 1 0 "Fore" 0
XUID: [1021 434 -1460188140 3818975]
FSType: 0
OS2Version: 0
OS2_WeightWidthSlopeOnly: 0
OS2_UseTypoMetrics: 1
CreationTime: 1510095805
ModificationTime: 1528399286
PfmFamily: 17
TTFWeight: 400
TTFWidth: 5

StartChar: h
Encoding: 72 104 0
Width: 666
VWidth: 0
Flags: W
HStem: 0 21G<66.4004 199.7 466.3 599.7> 0 21G<66.4004 199.7 466.3 599.7> 333.3 133.4<199.7 466.3> 780 20G<66.4004 199.7 466.3 599.7> 780 20G<66.4004 199.7 466.3 599.7>
VStem: 66.4004 133.3<0 333.3 466.7 800> 466.3 133.4<0 333.3 466.7 800>
LayerCount: 2
Back
Fore
SplineSet
199.700195312 333.299804688 m 1xb6
 199.700195312 0 l 1
 66.400390625 0 l 1
 66.400390625 800 l 1
 199.700195312 800 l 1
 199.700195312 466.700195312 l 1
 466.299804688 466.700195312 l 1
 466.299804688 800 l 1
 599.700195312 800 l 1
 599.700195312 0 l 1
 466.299804688 0 l 1
 466.299804688 333.299804688 l 1
 199.700195312 333.299804688 l 1xb6
EndSplineSet
Validated: 1
EndChar

StartChar: exclam
Encoding: 1 33 2
Width: 666
VWidth: 0
Flags: W
HStem: -0.0996094 200.1<253.825 412.237> 780 20G<266.3 399.6> 780 20G<266.3 399.6>
VStem: 233 200.1<20.7626 179.137> 266.3 133.3<333.3 800>
LayerCount: 2
Back
Fore
SplineSet
399.599609375 333.299804688 m 1xc8
 366.299804688 266.700195312 l 1
 299.599609375 266.700195312 l 1
 266.299804688 333.299804688 l 1
 266.299804688 800 l 1
 399.599609375 800 l 1
 399.599609375 333.299804688 l 1xc8
233 133.299804688 m 2x90
 233 166.700195312 266.299804688 200 299.700195312 200 c 2
 366.400390625 200 l 2
 399.799804688 200 433.099609375 166.599609375 433.099609375 133.299804688 c 2
 433.099609375 66.599609375 l 2
 433.099609375 33.2001953125 399.700195312 -0.099609375 366.400390625 -0.099609375 c 2
 299.700195312 -0.099609375 l 2
 266.299804688 -0.099609375 233 33.2998046875 233 66.599609375 c 2
 233 133.299804688 l 2x90
EndSplineSet
Validated: 1
EndChar

StartChar: quotedbl
Encoding: 2 34 3
Width: 666
VWidth: 0
Flags: W
HStem: 533.3 266.7<169 235.7 435.6 502.3>
VStem: 102.4 199.899<614.55 779.137> 369 199.9<614.55 779.137>
LayerCount: 2
Back
Fore
SplineSet
302.5 733.299804688 m 1
 302.299804688 733.299804688 l 1
 302.299804688 666.599609375 l 2
 302.299804688 655 298.299804688 643.5 291.599609375 633.299804688 c 2
 235.700195312 533.299804688 l 1
 169 533.299804688 l 1
 113.099609375 633.299804688 l 2
 106.5 643.5 102.400390625 655 102.400390625 666.599609375 c 2
 102.400390625 733.299804688 l 2
 102.400390625 766.700195312 135.799804688 800 169.099609375 800 c 2
 235.799804688 800 l 2
 269.200195312 800 302.5 766.599609375 302.5 733.299804688 c 1
569.099609375 733.299804688 m 1
 568.900390625 733.299804688 l 1
 568.900390625 666.599609375 l 2
 568.900390625 655 564.900390625 643.5 558.200195312 633.299804688 c 2
 502.299804688 533.299804688 l 1
 435.599609375 533.299804688 l 1
 379.700195312 633.299804688 l 2
 373.099609375 643.5 369 655 369 666.599609375 c 2
 369 733.299804688 l 2
 369 766.700195312 402.400390625 800 435.700195312 800 c 2
 502.400390625 800 l 2
 535.799804688 800 569.099609375 766.599609375 569.099609375 733.299804688 c 1
EndSplineSet
Validated: 1
EndChar

StartChar: numbersign
Encoding: 3 35 4
Width: 666
VWidth: 0
Flags: W
HStem: 200.1 133.301<66.7002 133.5 266.7 400 533.3 600.1> 466.7 133.3<66.7002 133.5 266.7 400 533.3 600.1>
VStem: 133.5 133.2<133.3 200.1 333.4 466.7 600 666.8> 400.1 133.2<133.3 200.1 333.4 466.7 600 666.8>
LayerCount: 2
Back
Fore
SplineSet
266.700195312 333.400390625 m 1
 400.099609375 333.400390625 l 1
 400 466.700195312 l 1
 266.700195312 466.700195312 l 1
 266.700195312 333.400390625 l 1
600.099609375 466.700195312 m 1
 533.299804688 466.700195312 l 1
 533.299804688 333.400390625 l 1
 600.099609375 333.400390625 l 1
 600.099609375 200.099609375 l 1
 533.299804688 200.099609375 l 1
 533.299804688 133.299804688 l 1
 400 133.299804688 l 1
 400 200.099609375 l 1
 266.700195312 200.099609375 l 1
 266.700195312 133.299804688 l 1
 133.5 133.299804688 l 1
 133.5 200.099609375 l 1
 66.7001953125 200.099609375 l 1
 66.7001953125 333.400390625 l 1
 133.5 333.400390625 l 1
 133.5 466.700195312 l 1
 66.7001953125 466.700195312 l 1
 66.7001953125 600 l 1
 133.5 600 l 1
 133.5 666.799804688 l 1
 266.700195312 666.799804688 l 1
 266.700195312 600 l 1
 400.099609375 600 l 1
 400.099609375 666.799804688 l 1
 533.299804688 666.799804688 l 1
 533.299804688 600 l 1
 600.099609375 600 l 1
 600.099609375 466.700195312 l 1
EndSplineSet
Validated: 1
EndChar

StartChar: dollar
Encoding: 4 36 5
Width: 666
VWidth: 0
Flags: W
HStem: 0 21G<266.3 399.6> 0 21G<266.3 399.6> 66.7002 133.3<199.6 266.3 399.6 466.3> 333.3 133.4<199.6 266.3 399.6 466.3> 600 133.3<199.6 266.3 399.7 466.3> 780 20G<266.3 399.7> 780 20G<266.3 399.7>
VStem: 66.2998 133.3<200 266.7 466.7 600> 266.3 133.3<0 66.7002 200 333.3 466.7 600 733.3 800> 466.3 133.3<200 333.3 533.3 600>
LayerCount: 2
Back
Fore
SplineSet
266.299804688 466.700195312 m 1x39c0
 266.299804688 600 l 1
 199.599609375 600 l 1
 199.599609375 466.700195312 l 1
 266.299804688 466.700195312 l 1x39c0
466.299804688 333.299804688 m 1
 399.599609375 333.299804688 l 1
 399.599609375 200 l 1
 466.299804688 200 l 1
 466.299804688 333.299804688 l 1
599.700195312 533.299804688 m 1
 466.299804688 533.299804688 l 1
 466.299804688 600 l 1
 399.599609375 600 l 1
 399.599609375 466.700195312 l 1
 499.599609375 466.700195312 l 2
 549.599609375 466.700195312 599.599609375 416.700195312 599.599609375 366.700195312 c 2
 599.599609375 166.700195312 l 2
 599.599609375 116.700195312 549.599609375 66.7001953125 499.599609375 66.7001953125 c 2
 399.599609375 66.7001953125 l 1
 399.599609375 0 l 1
 266.299804688 0 l 1
 266.299804688 66.7001953125 l 1
 166.299804688 66.7001953125 l 2
 116.299804688 66.7001953125 66.2998046875 116.700195312 66.2998046875 166.700195312 c 2
 66.2998046875 266.700195312 l 1
 199.599609375 266.700195312 l 1
 199.599609375 200 l 1
 266.299804688 200 l 1
 266.299804688 333.299804688 l 1
 166.299804688 333.299804688 l 2
 116.299804688 333.299804688 66.2998046875 383.299804688 66.2998046875 433.299804688 c 2
 66.2998046875 633.299804688 l 2
 66.2998046875 683.299804688 116.299804688 733.299804688 166.299804688 733.299804688 c 2
 266.299804688 733.299804688 l 1
 266.299804688 800 l 1
 399.700195312 800 l 1xbdc0
 399.700195312 733.299804688 l 1
 499.700195312 733.299804688 l 2
 549.700195312 733.299804688 599.700195312 683.299804688 599.700195312 633.299804688 c 2
 599.700195312 533.299804688 l 1
EndSplineSet
Validated: 1
EndChar

StartChar: percent
Encoding: 5 37 6
Width: 666
VWidth: 0
Flags: W
HStem: 0 133.3<399.9 466.6> 200 133.3<399.9 466.6> 466.7 133.3<199.9 266.6> 666.7 133.3<199.9 266.6>
VStem: 66.5996 133.301<600 666.7> 266.6 133.301<133.3 200 600 666.7> 466.6 133.301<133.3 200>
CounterMasks: 1 0e
LayerCount: 2
Back
Fore
SplineSet
66.599609375 333.299804688 m 1
 599.900390625 533.299804688 l 1
 599.900390625 466.700195312 l 1
 66.599609375 266.700195312 l 1
 66.599609375 333.299804688 l 1
466.599609375 133.299804688 m 1
 466.599609375 200 l 1
 399.900390625 200 l 1
 399.900390625 133.299804688 l 1
 466.599609375 133.299804688 l 1
499.900390625 333.299804688 m 2
 549.900390625 333.299804688 599.900390625 283.299804688 599.900390625 233.299804688 c 2
 599.900390625 100 l 2
 599.900390625 50 549.900390625 0 499.900390625 0 c 2
 366.599609375 0 l 2
 316.599609375 0 266.599609375 50 266.599609375 100 c 2
 266.599609375 233.299804688 l 2
 266.599609375 283.299804688 316.599609375 333.299804688 366.599609375 333.299804688 c 2
 499.900390625 333.299804688 l 2
199.900390625 666.700195312 m 1
 199.900390625 600 l 1
 266.599609375 600 l 1
 266.599609375 666.700195312 l 1
 199.900390625 666.700195312 l 1
166.599609375 466.700195312 m 2
 116.599609375 466.700195312 66.599609375 516.700195312 66.599609375 566.700195312 c 2
 66.599609375 700 l 2
 66.599609375 750 116.599609375 800 166.599609375 800 c 2
 300 800 l 2
 350 800 400 750 400 700 c 2
 400 566.700195312 l 2
 400 516.700195312 350 466.700195312 300 466.700195312 c 2
 166.599609375 466.700195312 l 2
EndSplineSet
Validated: 1
EndChar

StartChar: ampersand
Encoding: 6 38 7
Width: 666
VWidth: 0
Flags: W
HStem: 0 133.3<199.7 333 466.3 533> 333.3 133.4<199.7 333 466.3 533> 666.7 133.3<199.7 333>
VStem: 66.2998 133.4<133.3 333.3 466.7 666.7> 333 133.3<133.3 333.3 466.7 533.4 600 666.7>
CounterMasks: 1 e0
LayerCount: 2
Back
Fore
SplineSet
533 333.299804688 m 1
 466.299804688 333.299804688 l 1
 466.299804688 133.299804688 l 1
 533 133.299804688 l 1
 533 0 l 1
 466.400390625 0 l 2
 433 0 399.700195312 33.400390625 399.700195312 66.7001953125 c 1
 399.700195312 33.2998046875 366.299804688 0 333 0 c 2
 166.099609375 0 l 2
 116.200195312 0.099609375 66.2998046875 50.099609375 66.2998046875 100 c 2
 66.2998046875 333.299804688 l 2
 66.2998046875 366.700195312 99.7001953125 400 133 400 c 1
 99.599609375 400 66.2998046875 433.400390625 66.2998046875 466.700195312 c 2
 66.2998046875 700 l 2
 66.2998046875 749.900390625 116.200195312 799.900390625 166.099609375 800 c 2
 366.400390625 800 l 2
 416.299804688 800 466.299804688 750 466.299804688 700 c 2
 466.299804688 600 l 1
 333 600 l 1
 333 666.700195312 l 1
 199.700195312 666.700195312 l 1
 199.700195312 466.700195312 l 1
 333 466.700195312 l 1
 333 533.400390625 l 1
 466.299804688 533.400390625 l 1
 466.299804688 466.700195312 l 1
 533 466.700195312 l 1
 533 333.299804688 l 1
199.700195312 133.299804688 m 1
 333 133.299804688 l 1
 333 333.299804688 l 1
 199.700195312 333.299804688 l 1
 199.700195312 133.299804688 l 1
EndSplineSet
Validated: 1
EndChar

StartChar: quotesingle
Encoding: 7 39 8
Width: 666
VWidth: 0
Flags: W
HStem: 533.3 266.7 780 20G<233 433>
VStem: 233 200<466.6 533.3>
LayerCount: 2
Back
Fore
SplineSet
233 800 m 1x60
 433 800 l 1x60
 433 733.299804688 l 1
 233 533.299804688 l 1xa0
 233 800 l 1x60
EndSplineSet
Validated: 1
EndChar

StartChar: parenleft
Encoding: 8 40 9
Width: 666
VWidth: 0
Flags: W
HStem: 0 133.3<366.3 433> 666.7 133.3<366.3 433>
VStem: 233 200<42.4149 133.3 666.7 757.585>
LayerCount: 2
Back
Fore
SplineSet
433 666.700195312 m 1
 366.299804688 666.700195312 l 1
 366.299804688 133.299804688 l 1
 433 133.299804688 l 1
 433 0 l 1
 333 0 l 2
 283 0 233 50 233 100 c 2
 233 700 l 2
 233 750 283 800 333 800 c 2
 433 800 l 1
 433 666.700195312 l 1
EndSplineSet
Validated: 1
EndChar

StartChar: parenright
Encoding: 9 41 10
Width: 666
VWidth: 0
Flags: W
HStem: 0 133.3<233 299.7> 666.7 133.3<233 299.7>
VStem: 233 200<42.4149 133.3 666.7 757.585>
LayerCount: 2
Back
Fore
SplineSet
233 666.700195312 m 1
 233 800 l 1
 333 800 l 2
 383 800 433 750 433 700 c 2
 433 100 l 2
 433 50 383 0 333 0 c 2
 233 0 l 1
 233 133.299804688 l 1
 299.700195312 133.299804688 l 1
 299.700195312 666.700195312 l 1
 233 666.700195312 l 1
EndSplineSet
Validated: 1
EndChar

StartChar: asterisk
Encoding: 10 42 11
Width: 666
VWidth: 0
Flags: W
HStem: 780 20G<233 433> 780 20G<233 433>
LayerCount: 2
Back
Fore
SplineSet
533 600 m 1x80
 466.299804688 566.700195312 l 1
 533 500 l 1
 433 400 l 1
 333 500 l 1
 233 400 l 1
 133 500 l 1
 199.599609375 566.700195312 l 1
 133 600 l 1
 166.299804688 733.299804688 l 1
 266.299804688 700 l 1
 233 800 l 1
 433 800 l 1
 399.599609375 700 l 1
 499.599609375 733.299804688 l 1
 533 600 l 1x80
EndSplineSet
Validated: 1
EndChar

StartChar: plus
Encoding: 11 43 12
Width: 666
VWidth: 0
Flags: W
HStem: 333.3 133.4<66.4004 266.4 399.7 599.7>
VStem: 266.4 133.3<133.3 333.3 466.7 666.7>
LayerCount: 2
Back
Fore
SplineSet
599.700195312 466.700195312 m 1
 599.700195312 333.299804688 l 1
 399.700195312 333.299804688 l 1
 399.700195312 133.299804688 l 1
 266.400390625 133.299804688 l 1
 266.400390625 333.299804688 l 1
 66.400390625 333.299804688 l 1
 66.400390625 466.700195312 l 1
 266.400390625 466.700195312 l 1
 266.400390625 666.700195312 l 1
 399.700195312 666.700195312 l 1
 399.700195312 466.700195312 l 1
 599.700195312 466.700195312 l 1
EndSplineSet
Validated: 1
EndChar

StartChar: comma
Encoding: 12 44 13
Width: 666
VWidth: 0
Flags: W
HStem: 0 200<299.8 333.1>
VStem: 199.8 233.3
LayerCount: 2
Back
Fore
SplineSet
199.799804688 0 m 1
 299.799804688 200 l 1
 433.099609375 200 l 1
 333.099609375 0 l 1
 199.799804688 0 l 1
EndSplineSet
Validated: 1
EndChar

StartChar: hyphen
Encoding: 13 45 14
Width: 666
VWidth: 0
Flags: W
HStem: 333.4 133.3<133 533>
LayerCount: 2
Back
Fore
SplineSet
133 333.400390625 m 1
 133 466.700195312 l 1
 533 466.700195312 l 1
 533 333.400390625 l 1
 133 333.400390625 l 1
EndSplineSet
Validated: 1
EndChar

StartChar: period
Encoding: 14 46 15
Width: 666
VWidth: 0
Flags: W
HStem: -0.0996094 200.1<253.825 412.237>
VStem: 233 200.1<20.7626 179.137>
LayerCount: 2
Back
Fore
SplineSet
233 133.299804688 m 2
 233 166.700195312 266.299804688 200 299.700195312 200 c 2
 366.400390625 200 l 2
 399.799804688 200 433.099609375 166.599609375 433.099609375 133.299804688 c 2
 433.099609375 66.599609375 l 2
 433.099609375 33.2001953125 399.700195312 -0.099609375 366.400390625 -0.099609375 c 2
 299.700195312 -0.099609375 l 2
 266.299804688 -0.099609375 233 33.2998046875 233 66.599609375 c 2
 233 133.299804688 l 2
EndSplineSet
Validated: 1
EndChar

StartChar: slash
Encoding: 15 47 16
Width: 666
VWidth: 0
Flags: W
HStem: 0 21G<133 272.967> 0 21G<133 272.967> 780 20G<393.033 533> 780 20G<393.033 533>
LayerCount: 2
Back
Fore
SplineSet
133 0 m 1xa0
 399.700195312 800 l 1
 533 800 l 1
 266.299804688 0 l 1
 133 0 l 1xa0
EndSplineSet
Validated: 1
EndChar

StartChar: zero
Encoding: 16 48 17
Width: 666
VWidth: 0
Flags: W
HStem: 0 133.3<199.6 466.3> 666.7 133.3<199.6 466.3>
VStem: 66.2998 133.3<133.3 225 391.7 666.7> 466.3 133.3<133.3 408.3 575 666.7>
LayerCount: 2
Back
Fore
SplineSet
199.599609375 391.700195312 m 1
 466.299804688 575 l 1
 466.299804688 666.700195312 l 1
 199.599609375 666.700195312 l 1
 199.599609375 391.700195312 l 1
466.299804688 133.299804688 m 1
 466.299804688 408.299804688 l 1
 199.599609375 225 l 1
 199.599609375 133.299804688 l 1
 466.299804688 133.299804688 l 1
499.599609375 800 m 2
 549.549492779 800 599.59976058 750.100182958 599.59976058 700.150349737 c 0
 599.599609375 700 l 2
 599.599609375 100 l 2
 599.599609375 50 549.599609375 0 499.599609375 0 c 2
 166.299804688 0 l 2
 116.299804688 0 66.2998046875 50 66.2998046875 100 c 2
 66.2998046875 700 l 2
 66.2998046875 750 116.299804688 800 166.299804688 800 c 2
 499.599609375 800 l 2
EndSplineSet
Validated: 1
EndChar

StartChar: one
Encoding: 17 49 18
Width: 666
VWidth: 0
Flags: W
HStem: 0 133.3<66.4004 266.3 399.7 599.7> 780 20G<236.307 399.7> 780 20G<236.307 399.7>
VStem: 266.3 133.4<133.3 633.3>
LayerCount: 2
Back
Fore
SplineSet
399.700195312 800 m 1xd0
 399.700195312 133.299804688 l 1
 599.700195312 133.299804688 l 1
 599.700195312 0 l 1
 66.400390625 0 l 1
 66.400390625 133.299804688 l 1
 266.299804688 133.299804688 l 1
 266.299804688 633.299804688 l 1
 66.400390625 500 l 1
 66.400390625 666.700195312 l 1
 266.299804688 800 l 1
 399.700195312 800 l 1xd0
EndSplineSet
Validated: 1
EndChar

StartChar: two
Encoding: 18 50 19
Width: 666
VWidth: 0
Flags: W
HStem: 0 133.3<199.7 599.7> 333.3 133.4<199.7 466.1> 666.7 133.3<199.6 466.1>
VStem: 66.4004 133.3<133.3 333.3 600 666.7> 466.1 133.601<466.7 666.7>
CounterMasks: 1 e0
LayerCount: 2
Back
Fore
SplineSet
66.400390625 0 m 1
 66.2998046875 366.700195312 l 2
 66.2998046875 416.700195312 116.299804688 466.700195312 166.299804688 466.700195312 c 2
 466.099609375 466.700195312 l 1
 466.099609375 666.700195312 l 1
 199.599609375 666.700195312 l 1
 199.599609375 600 l 1
 66.2998046875 600 l 1
 66.2998046875 700 l 2
 66.2998046875 750 116.299804688 800 166.299804688 800 c 2
 499.700195312 800 l 2
 549.700195312 800 599.700195312 750 599.700195312 700 c 2
 599.700195312 433.299804688 l 2
 599.700195312 383.299804688 549.700195312 333.299804688 499.700195312 333.299804688 c 2
 199.700195312 333.299804688 l 1
 199.700195312 133.299804688 l 1
 599.700195312 133.299804688 l 1
 599.700195312 0 l 1
 66.400390625 0 l 1
EndSplineSet
Validated: 1
EndChar

StartChar: three
Encoding: 19 51 20
Width: 666
VWidth: 0
Flags: W
HStem: 0 133.3<199.7 466.3> 333.3 133.4<266.4 466.2> 666.7 133.3<199.7 466.2>
VStem: 66.4004 133.3<133.3 200 600 666.7> 466.3 133.4<133.3 333.3 466.7 666.7>
CounterMasks: 1 e0
LayerCount: 2
Back
Fore
SplineSet
533 400 m 1
 566.299804688 400 599.700195312 366.700195312 599.700195312 333.299804688 c 2
 599.700195312 100 l 2
 599.700195312 50 549.700195312 0 499.700195312 0 c 2
 166.400390625 0 l 2
 116.400390625 0 66.400390625 50 66.400390625 100 c 2
 66.400390625 200 l 1
 199.700195312 200 l 1
 199.700195312 133.299804688 l 1
 466.299804688 133.299804688 l 1
 466.299804688 333.299804688 l 1
 266.400390625 333.299804688 l 1
 266.400390625 466.700195312 l 1
 466.200195312 466.700195312 l 1
 466.200195312 666.700195312 l 1
 199.700195312 666.700195312 l 1
 199.700195312 600 l 1
 66.400390625 600 l 1
 66.400390625 700 l 2
 66.400390625 750 116.400390625 800 166.400390625 800 c 2
 499.700195312 800 l 2
 549.700195312 800 599.700195312 750 599.700195312 700 c 2
 599.700195312 466.700195312 l 2
 599.700195312 433.299804688 566.299804688 400 533 400 c 1
EndSplineSet
Validated: 1
EndChar

StartChar: four
Encoding: 20 52 21
Width: 666
VWidth: 0
Flags: W
HStem: 0 21G<466.4 599.7> 0 21G<466.4 599.7> 333.3 133.4<199.7 466.4> 780 20G<66.4004 199.7 466.4 599.7> 780 20G<66.4004 199.7 466.4 599.7>
VStem: 66.4004 133.3<466.7 800> 466.4 133.3<0 333.3 466.7 800>
LayerCount: 2
Back
Fore
SplineSet
466.400390625 800 m 1xb6
 599.700195312 800 l 1
 599.700195312 0 l 1
 466.400390625 0 l 1
 466.400390625 333.299804688 l 1
 166.400390625 333.299804688 l 2
 116.400390625 333.299804688 66.400390625 383.299804688 66.400390625 433.299804688 c 2
 66.400390625 800 l 1
 199.700195312 800 l 1
 199.700195312 466.700195312 l 1
 466.400390625 466.700195312 l 1
 466.400390625 800 l 1xb6
EndSplineSet
Validated: 1
EndChar

StartChar: five
Encoding: 21 53 22
Width: 666
VWidth: 0
Flags: W
HStem: 0 133.3<199.7 466.3> 333.3 133.4<199.7 466.4> 666.7 133.3<199.7 599.7>
VStem: 66.4004 133.3<133.3 200 466.7 666.7> 466.3 133.4<133.3 333.3>
CounterMasks: 1 e0
LayerCount: 2
Back
Fore
SplineSet
599.700195312 666.700195312 m 1
 199.700195312 666.700195312 l 1
 199.700195312 466.700195312 l 1
 499.700195312 466.700195312 l 2
 549.700195312 466.700195312 599.700195312 416.700195312 599.700195312 366.700195312 c 2
 599.700195312 100 l 2
 599.700195312 50 549.700195312 0 499.700195312 0 c 2
 166.400390625 0 l 2
 116.400390625 0 66.400390625 50 66.400390625 100 c 2
 66.400390625 200 l 1
 199.700195312 200 l 1
 199.700195312 133.299804688 l 1
 466.299804688 133.299804688 l 1
 466.400390625 333.299804688 l 1
 66.400390625 333.299804688 l 1
 66.400390625 800 l 1
 599.700195312 800 l 1
 599.700195312 666.700195312 l 1
EndSplineSet
Validated: 1
EndChar

StartChar: six
Encoding: 22 54 23
Width: 666
VWidth: 0
Flags: W
HStem: 0 133.3<199.7 466.2> 333.3 133.4<199.7 466.2> 666.7 133.3<199.6 466.3>
VStem: 66.2998 133.4<133.3 333.3 466.7 666.7> 466.2 133.399<133.3 333.3 600 666.7>
CounterMasks: 1 e0
LayerCount: 2
Back
Fore
SplineSet
466.200195312 333.299804688 m 1
 199.700195312 333.299804688 l 1
 199.700195312 133.299804688 l 1
 466.200195312 133.299804688 l 1
 466.200195312 333.299804688 l 1
499.799804688 800 m 2
 549.65007809 799.900490667 599.599760884 750.100184209 599.599760884 700.150651441 c 0
 599.599609375 700 l 2
 599.599609375 600 l 1
 466.299804688 600 l 1
 466.299804688 666.700195312 l 1
 199.599609375 666.700195312 l 1
 199.599609375 466.700195312 l 1
 499.599609375 466.700195312 l 2
 549.599609375 466.700195312 599.599609375 416.700195312 599.599609375 366.700195312 c 2
 599.599609375 100 l 2
 599.599609375 50 549.700195312 0 499.700195312 0 c 2
 166.099609375 0 l 2
 116.200195312 0.2001953125 66.2998046875 50.099609375 66.2998046875 100 c 2
 66.2998046875 700 l 2
 66.2998046875 749.900390625 116.200195312 799.900390625 166.099609375 800 c 2
 499.799804688 800 l 2
EndSplineSet
Validated: 1
EndChar

StartChar: seven
Encoding: 23 55 24
Width: 666
VWidth: 0
Flags: W
HStem: 0 21G<66.4004 244> 0 21G<66.4004 244> 666.7 133.3<66.4004 433>
LayerCount: 2
Back
Fore
SplineSet
66.400390625 666.700195312 m 1xa0
 66.400390625 800 l 1
 599.700195312 800 l 1
 599.700195312 666.700195312 l 1
 233 0 l 1
 66.400390625 0 l 1
 433 666.700195312 l 1
 66.400390625 666.700195312 l 1xa0
EndSplineSet
Validated: 1
EndChar

StartChar: eight
Encoding: 24 56 25
Width: 666
VWidth: 0
Flags: W
HStem: 0 133.3<199.7 466.2> 333.3 133.4<199.7 466.2> 666.7 133.3<199.7 466.4>
VStem: 66.2998 133.4<133.3 333.3 466.7 666.7> 466.2 133.399<133.3 333.3 466.7 666.7>
CounterMasks: 1 e0
LayerCount: 2
Back
Fore
SplineSet
466.299804688 466.700195312 m 1
 466.400390625 466.700195312 l 1
 466.400390625 666.700195312 l 1
 199.700195312 666.700195312 l 1
 199.700195312 466.700195312 l 1
 466.299804688 466.700195312 l 1
466.200195312 133.299804688 m 1
 466.200195312 333.299804688 l 1
 199.700195312 333.299804688 l 1
 199.700195312 133.299804688 l 1
 466.200195312 133.299804688 l 1
499.700195312 800 m 2
 549.649978097 800 599.599760882 750.100383994 599.599760882 700.150651594 c 0
 599.599609375 700 l 2
 599.599609375 466.700195312 l 2
 599.599609375 433.299804688 566.200195312 400 532.900390625 400 c 1
 566.299804688 400 599.599609375 366.599609375 599.599609375 333.299804688 c 2
 599.599609375 100 l 2
 599.599609375 50 549.700195312 0 499.700195312 0 c 2
 166.099609375 0 l 2
 116.200195312 0.099609375 66.2998046875 50.099609375 66.2998046875 100 c 2
 66.2998046875 333.299804688 l 2
 66.2998046875 366.700195312 99.7001953125 400 133 400 c 1
 99.599609375 400 66.2998046875 433.400390625 66.2998046875 466.700195312 c 2
 66.2998046875 700 l 2
 66.2998046875 749.900390625 116.200195312 799.900390625 166.099609375 800 c 2
 499.700195312 800 l 2
EndSplineSet
Validated: 1
EndChar

StartChar: nine
Encoding: 25 57 26
Width: 666
VWidth: 0
Flags: W
HStem: 0 133.3<199.7 466.3> 333.3 133.4<199.8 466.3> 666.7 133.3<199.8 466.3>
VStem: 66.2998 133.5<133.3 200 466.7 666.7> 466.3 133.3<133.3 333.3 466.7 666.7>
CounterMasks: 1 e0
LayerCount: 2
Back
Fore
SplineSet
199.799804688 466.700195312 m 1
 466.299804688 466.700195312 l 1
 466.299804688 666.700195312 l 1
 199.799804688 666.700195312 l 1
 199.799804688 466.700195312 l 1
599.599609375 700 m 2
 599.599609375 100 l 2
 599.599609375 50 549.700195312 0 499.700195312 0 c 2
 166.099609375 0 l 2
 116.200195312 0.099609375 66.2998046875 50.099609375 66.2998046875 100 c 2
 66.2998046875 200 l 1
 199.700195312 200 l 1
 199.700195312 133.299804688 l 1
 466.299804688 133.299804688 l 1
 466.299804688 333.299804688 l 1
 166.299804688 333.299804688 l 2
 116.299804688 333.299804688 66.2998046875 383.299804688 66.2998046875 433.299804688 c 2
 66.2998046875 700 l 2
 66.2998046875 749.900390625 116.200195312 799.900390625 166.099609375 800 c 2
 499.700195312 800 l 2
 549.649978098 800 599.599760884 750.100383993 599.599760884 700.150651591 c 0
 599.599609375 700 l 2
EndSplineSet
Validated: 1
EndChar

StartChar: colon
Encoding: 26 58 27
Width: 666
VWidth: 0
Flags: W
HStem: -0.0996094 200.1<259.425 417.838> 399.9 200.1<259.425 417.838>
VStem: 238.6 200.101<20.7626 179.137 420.763 579.137>
LayerCount: 2
Back
Fore
SplineSet
238.599609375 133.299804688 m 2
 238.599609375 166.700195312 271.900390625 200 305.299804688 200 c 2
 372 200 l 2
 405.400390625 200 438.700195312 166.599609375 438.700195312 133.299804688 c 2
 438.700195312 66.599609375 l 2
 438.700195312 33.2001953125 405.299804688 -0.099609375 372 -0.099609375 c 2
 305.299804688 -0.099609375 l 2
 271.900390625 -0.099609375 238.599609375 33.2998046875 238.599609375 66.599609375 c 2
 238.599609375 133.299804688 l 2
238.599609375 533.299804688 m 2
 238.599609375 566.700195312 271.900390625 600 305.299804688 600 c 2
 372 600 l 2
 405.400390625 600 438.700195312 566.599609375 438.700195312 533.299804688 c 2
 438.700195312 466.599609375 l 2
 438.700195312 433.200195312 405.299804688 399.900390625 372 399.900390625 c 2
 305.299804688 399.900390625 l 2
 271.900390625 399.900390625 238.599609375 433.299804688 238.599609375 466.599609375 c 2
 238.599609375 533.299804688 l 2
EndSplineSet
Validated: 1
EndChar

StartChar: semicolon
Encoding: 27 59 28
Width: 666
VWidth: 0
Flags: W
HStem: 0 21G<199.8 343.1> 399.9 200.1<259.525 417.838>
VStem: 238.7 200<420.763 579.137>
LayerCount: 2
Back
Fore
SplineSet
238.700195312 533.299804688 m 2
 238.700195312 566.700195312 272 600 305.299804688 600 c 2
 372 600 l 2
 405.400390625 600 438.700195312 566.599609375 438.700195312 533.299804688 c 2
 438.700195312 466.599609375 l 2
 438.700195312 433.200195312 405.299804688 399.900390625 372 399.900390625 c 2
 305.400390625 399.900390625 l 2
 272 399.900390625 238.700195312 433.299804688 238.700195312 466.599609375 c 2
 238.700195312 533.299804688 l 2
199.799804688 0 m 1
 299.799804688 200 l 1
 433.099609375 200 l 1
 333.099609375 0 l 1
 199.799804688 0 l 1
EndSplineSet
Validated: 1
EndChar

StartChar: less
Encoding: 28 60 29
Width: 666
VWidth: 0
Flags: W
LayerCount: 2
Back
Fore
SplineSet
599.700195312 733.299804688 m 1
 599.700195312 566.700195312 l 1
 244.099609375 400 l 1
 599.700195312 233.299804688 l 1
 599.700195312 66.7001953125 l 1
 66.2998046875 316.700195312 l 1
 66.2998046875 483.299804688 l 1
 599.700195312 733.299804688 l 1
EndSplineSet
Validated: 1
EndChar

StartChar: equal
Encoding: 29 61 30
Width: 666
VWidth: 0
Flags: W
HStem: 200.1 133.301<133 533> 466.7 133.3<133 533>
LayerCount: 2
Back
Fore
SplineSet
133 200.099609375 m 1
 133 333.400390625 l 1
 533 333.400390625 l 1
 533 200.099609375 l 1
 133 200.099609375 l 1
133 466.700195312 m 1
 133 600 l 1
 533 600 l 1
 533 466.700195312 l 1
 133 466.700195312 l 1
EndSplineSet
Validated: 1
EndChar

StartChar: greater
Encoding: 30 62 31
Width: 666
VWidth: 0
Flags: W
LayerCount: 2
Back
Fore
SplineSet
66.2998046875 733.299804688 m 1
 599.700195312 483.299804688 l 1
 599.700195312 316.700195312 l 1
 66.2998046875 66.7001953125 l 1
 66.2998046875 233.299804688 l 1
 421.900390625 400 l 1
 66.2998046875 566.700195312 l 1
 66.2998046875 733.299804688 l 1
EndSplineSet
Validated: 1
EndChar

StartChar: question
Encoding: 31 63 32
Width: 666
VWidth: 0
Flags: W
HStem: 0 200.1<253.763 412.137> 400 133.4<399.7 466.4> 666.7 133.3<199.7 466.4>
VStem: 66.4004 133.3<600 666.7> 232.9 200.1<20.8627 179.237> 266.4 133.3<333.4 400> 466.4 133.3<533.4 666.7>
LayerCount: 2
Back
Fore
SplineSet
366.299804688 0 m 2xfa
 299.599609375 0 l 2
 266.200195312 0 232.900390625 33.400390625 232.900390625 66.7001953125 c 2
 232.900390625 133.400390625 l 2
 232.900390625 166.799804688 266.299804688 200.099609375 299.599609375 200.099609375 c 2
 366.299804688 200.099609375 l 2
 399.700195312 200.099609375 433 166.700195312 433 133.400390625 c 2
 433 66.7001953125 l 2
 433 33.2998046875 399.599609375 0 366.299804688 0 c 2xfa
499.799804688 800 m 2
 549.700195312 799.900390625 599.700195312 750 599.700195312 700 c 2
 599.700195312 500 l 2
 599.700195312 450 549.799804688 400 499.799804688 400 c 2
 399.700195312 400 l 1
 399.700195312 333.400390625 l 1
 366.400390625 266.700195312 l 1
 299.700195312 266.700195312 l 1
 266.400390625 333.400390625 l 1
 266.400390625 433.400390625 l 1xf6
 266.700195312 433.400390625 l 1
 266.700195312 483.299804688 316.599609375 533.299804688 366.5 533.400390625 c 2
 466.400390625 533.400390625 l 1
 466.400390625 666.700195312 l 1
 199.700195312 666.700195312 l 1
 199.700195312 600 l 1
 66.400390625 600 l 1
 66.400390625 700 l 2
 66.400390625 750 116.400390625 800 166.400390625 800 c 2
 499.799804688 800 l 2
EndSplineSet
Validated: 1
EndChar

StartChar: at
Encoding: 32 64 33
Width: 666
VWidth: 0
Flags: W
HStem: 0 166.6<108.815 199.7 466.4 557.285> 200 133.3<199.7 299.7 433.34 466.4> 433.3 133.4<199.7 299.7> 666.7 133.3<199.7 466.4>
VStem: 66.4004 133.3<133.3 166.6 333.3 433.3 600 666.7> 299.7 133.3<333.4 433.3> 466.4 133.3<133.3 166.7 333.4 666.7>
LayerCount: 2
Back
Fore
SplineSet
466.400390625 133.299804688 m 1
 466.400390625 166.700195312 l 1
 599.700195312 166.700195312 l 1
 599.700195312 100 l 2
 599.700195312 50 549.700195312 0 499.700195312 0 c 2
 166.400390625 0 l 2
 116.400390625 0 66.400390625 50 66.400390625 100 c 2
 66.400390625 133.299804688 l 1
 66.400390625 166.599609375 l 1
 199.700195312 166.599609375 l 1
 199.700195312 133.299804688 l 1
 466.400390625 133.299804688 l 1
299.700195312 333.299804688 m 1
 299.700195312 433.299804688 l 1
 199.700195312 433.299804688 l 1
 199.700195312 333.299804688 l 1
 299.700195312 333.299804688 l 1
499.700195312 800 m 2
 549.700195312 800 599.700195312 750 599.700195312 700 c 2
 599.700195312 266.700195312 l 2
 599.700195312 233.299804688 566.299804688 200 533 200 c 2
 466.400390625 200 l 2
 433 200 399.700195312 233.400390625 399.700195312 266.700195312 c 1
 399.700195312 233.299804688 366.299804688 200 333 200 c 2
 166.400390625 200 l 2
 116.400390625 200 66.400390625 250 66.400390625 300 c 2
 66.400390625 466.700195312 l 2
 66.400390625 516.700195312 116.400390625 566.700195312 166.400390625 566.700195312 c 2
 333 566.700195312 l 2
 383 566.700195312 433 516.700195312 433 466.700195312 c 2
 433 333.400390625 l 1
 466.400390625 333.400390625 l 1
 466.400390625 666.700195312 l 1
 199.700195312 666.700195312 l 1
 199.700195312 600 l 1
 66.400390625 600 l 1
 66.400390625 700 l 2
 66.400390625 750 116.400390625 800 166.400390625 800 c 2
 499.700195312 800 l 2
EndSplineSet
Validated: 1
EndChar

StartChar: A
Encoding: 33 65 34
Width: 666
VWidth: 0
Flags: W
HStem: 0 21G<66.4004 204.708 461.393 599.7> 0 21G<66.4004 204.708 461.393 599.7> 66.7002 133.3<249.7 416.4> 780 20G<261.4 404.7> 780 20G<261.4 404.7>
LayerCount: 2
Back
Fore
SplineSet
249.700195312 200 m 1x20
 416.400390625 200 l 1
 333 533.299804688 l 1
 249.700195312 200 l 1x20
466.400390625 0 m 1xb0
 449.700195312 66.7001953125 l 1
 216.400390625 66.7001953125 l 1
 199.700195312 0 l 1
 66.400390625 0 l 1
 266.400390625 800 l 1
 399.700195312 800 l 1
 599.700195312 0 l 1
 466.400390625 0 l 1xb0
EndSplineSet
Validated: 1
EndChar

StartChar: B
Encoding: 34 66 35
Width: 666
VWidth: 0
Flags: W
HStem: 0 133.3<199.6 435.278> 333.3 133.4<199.6 450.394> 666.7 133.3<199.6 435.098>
VStem: 66.2998 133.3<133.3 333.3 466.7 666.7> 466.3 133.3<162.822 317.788 482.441 637.526>
CounterMasks: 1 e0
LayerCount: 2
Back
Fore
SplineSet
366.299804688 133.299804688 m 2
 435.099609375 133.299804688 466.299804688 164.599609375 466.299804688 233.299804688 c 0
 466.299804688 333.299804688 435 333.299804688 366.299804688 333.299804688 c 2
 199.599609375 333.299804688 l 1
 199.599609375 133.299804688 l 1
 366.299804688 133.299804688 l 2
366.299804688 666.700195312 m 2
 199.599609375 666.700195312 l 1
 199.599609375 466.700195312 l 1
 366.299804688 466.700195312 l 2
 435 466.700195312 466.299804688 466.700195312 466.299804688 566.700195312 c 0
 466.299804688 635.400390625 435 666.700195312 366.299804688 666.700195312 c 2
537.200195312 400 m 1
 579.395218353 371.57059789 599.599983134 321.050849292 599.599983134 233.949371206 c 0
 599.507443114 73.1212649344 527.146889093 0 366.299804688 0 c 2
 66.2998046875 0 l 1
 66.2998046875 800 l 1
 366.299804688 800 l 2
 526.589847783 800 599.599713175 727.199878593 599.599713175 567.031111654 c 0
 599.57221428 479.363738165 579.607199429 428.572226899 537.200195312 400 c 1
EndSplineSet
Validated: 1
EndChar

StartChar: C
Encoding: 35 67 36
Width: 666
VWidth: 0
Flags: W
HStem: 0.0996094 133.301<230.866 435.235> 666.7 133.3<230.866 435.131>
VStem: 66.4004 133.199<164.566 635.534> 466.3 133.4<164.566 266.7 533.4 635.767>
LayerCount: 2
Back
Fore
SplineSet
466.299804688 266.700195312 m 1
 599.700195312 266.700195312 l 1
 599.700195312 233.400390625 l 2
 599.700195312 73 526.799804688 0.099609375 366.400390625 0.099609375 c 0
 360 0.099609375 306.099609375 0.099609375 299.700195312 0.099609375 c 0
 139.299804688 0.099609375 66.400390625 73 66.400390625 233.400390625 c 2
 66.400390625 566.700195312 l 2
 66.400390625 727.099609375 139.299804688 800 299.700195312 800 c 0
 306 800 360 800 366.299804688 800 c 0
 526.689238147 800 599.599713316 727.200015203 599.599713316 567.03156249 c 0
 599.599609375 566.700195312 l 2
 599.599609375 533.400390625 l 1
 466.299804688 533.400390625 l 1
 466.299804688 566.700195312 l 2
 466.299804688 635.400390625 435 666.700195312 366.299804688 666.700195312 c 2
 299.599609375 666.700195312 l 2
 230.900390625 666.700195312 199.599609375 635.400390625 199.599609375 566.700195312 c 2
 199.599609375 233.400390625 l 2
 199.599609375 164.700195312 230.900390625 133.400390625 299.599609375 133.400390625 c 2
 366.299804688 133.400390625 l 2
 435 133.400390625 466.299804688 164.700195312 466.299804688 233.400390625 c 2
 466.299804688 266.700195312 l 1
EndSplineSet
Validated: 1
EndChar

StartChar: D
Encoding: 36 68 37
Width: 666
VWidth: 0
Flags: W
HStem: 0 133.3<199.6 435.134> 666.7 133.3<199.6 435.098>
VStem: 66.2998 133.3<133.3 666.7> 466.3 133.3<164.466 635.767>
LayerCount: 2
Back
Fore
SplineSet
466.299804688 233.299804688 m 2
 466.299804688 566.700195312 l 2
 466.299804688 635.400390625 435 666.700195312 366.299804688 666.700195312 c 2
 199.599609375 666.700195312 l 1
 199.599609375 133.299804688 l 1
 366.299804688 133.299804688 l 2
 435 133.299804688 466.299804688 164.599609375 466.299804688 233.299804688 c 2
366.299804688 800 m 0
 526.589847783 800 599.599713175 727.199878593 599.599713175 567.031111654 c 0
 599.599609375 566.700195312 l 2
 599.599609375 233.299804688 l 2
 599.599609375 72.900390625 526.700195312 0 366.299804688 0 c 0
 363.099609375 0 66.2998046875 0 66.2998046875 0 c 1
 66.2998046875 800 l 1
 66.2998046875 800 363.099609375 800 366.299804688 800 c 0
EndSplineSet
Validated: 1
EndChar

StartChar: E
Encoding: 37 69 38
Width: 666
VWidth: 0
Flags: W
HStem: 0 133.3<199.7 599.7> 333.3 133.4<199.7 399.7> 666.7 133.3<199.7 599.7>
VStem: 66.4004 133.3<133.3 333.3 466.7 666.7>
CounterMasks: 1 e0
LayerCount: 2
Back
Fore
SplineSet
599.700195312 0 m 1
 66.400390625 0 l 1
 66.400390625 800 l 1
 599.700195312 800 l 1
 599.700195312 666.700195312 l 1
 199.700195312 666.700195312 l 1
 199.700195312 466.700195312 l 1
 399.700195312 466.700195312 l 1
 399.700195312 333.299804688 l 1
 199.700195312 333.299804688 l 1
 199.700195312 133.299804688 l 1
 599.700195312 133.299804688 l 1
 599.700195312 0 l 1
EndSplineSet
Validated: 1
EndChar

StartChar: F
Encoding: 38 70 39
Width: 666
VWidth: 0
Flags: W
HStem: 0 21G<66.4004 199.7> 0 21G<66.4004 199.7> 333.3 133.4<199.7 399.7> 666.7 133.3<199.7 599.7>
VStem: 66.4004 133.3<0 333.3 466.7 666.7>
LayerCount: 2
Back
Fore
SplineSet
66.400390625 800 m 1xb8
 599.700195312 800 l 1
 599.700195312 666.700195312 l 1
 199.700195312 666.700195312 l 1
 199.700195312 466.700195312 l 1
 399.700195312 466.700195312 l 1
 399.700195312 333.299804688 l 1
 199.700195312 333.299804688 l 1
 199.700195312 0 l 1
 66.400390625 0 l 1
 66.400390625 800 l 1xb8
EndSplineSet
Validated: 1
EndChar

StartChar: G
Encoding: 39 71 40
Width: 666
VWidth: 0
Flags: W
HStem: 0.0996094 133.301<230.765 435.134> 266.7 133.3<333 466.3> 666.7 133.3<230.765 435.141>
VStem: 66.2998 133.3<164.566 635.534> 466.3 133.3<164.566 266.7 533.4 635.474>
LayerCount: 2
Back
Fore
SplineSet
599.700195312 533.400390625 m 1
 466.299804688 533.400390625 l 1
 466.299804688 566.700195312 l 2
 466.299804688 635.400390625 435 666.700195312 366.299804688 666.700195312 c 2
 299.599609375 666.700195312 l 2
 230.900390625 666.700195312 199.599609375 635.400390625 199.599609375 566.700195312 c 2
 199.599609375 233.400390625 l 2
 199.599609375 164.700195312 230.900390625 133.400390625 299.599609375 133.400390625 c 2
 366.299804688 133.400390625 l 2
 435 133.400390625 466.299804688 164.700195312 466.299804688 233.400390625 c 2
 466.299804688 266.700195312 l 1
 333 266.700195312 l 1
 333 400 l 1
 599.599609375 400 l 1
 599.599609375 233.400390625 l 2
 599.599609375 73 526.700195312 0.099609375 366.299804688 0.099609375 c 0
 351.799804688 0.099609375 299.599609375 0.099609375 299.599609375 0.099609375 c 2
 139.200195312 0.099609375 66.2998046875 73 66.2998046875 233.400390625 c 2
 66.2998046875 566.700195312 l 2
 66.2998046875 727.099609375 139.200195312 800 299.599609375 800 c 0
 314.099609375 800 366.299804688 800 366.299804688 800 c 2
 526.700195312 800 599.700195312 727.099609375 599.700195312 566.599609375 c 2
 599.700195312 533.400390625 l 1
EndSplineSet
Validated: 1
EndChar

StartChar: H
Encoding: 40 72 41
Width: 666
VWidth: 0
Flags: W
HStem: 0 21G<66.4004 199.7 466.3 599.7> 0 21G<66.4004 199.7 466.3 599.7> 333.3 133.4<199.7 466.3> 780 20G<66.4004 199.7 466.3 599.7> 780 20G<66.4004 199.7 466.3 599.7>
VStem: 66.4004 133.3<0 333.3 466.7 800> 466.3 133.4<0 333.3 466.7 800>
LayerCount: 2
Back
Fore
SplineSet
199.700195312 333.299804688 m 1xb6
 199.700195312 0 l 1
 66.400390625 0 l 1
 66.400390625 800 l 1
 199.700195312 800 l 1
 199.700195312 466.700195312 l 1
 466.299804688 466.700195312 l 1
 466.299804688 800 l 1
 599.700195312 800 l 1
 599.700195312 0 l 1
 466.299804688 0 l 1
 466.299804688 333.299804688 l 1
 199.700195312 333.299804688 l 1xb6
EndSplineSet
Validated: 1
EndChar

StartChar: I
Encoding: 41 73 42
Width: 666
VWidth: 0
Flags: W
HStem: 0 133.3<66.4004 266.3 399.7 599.7> 666.7 133.3<66.4004 266.3 399.7 599.7>
VStem: 266.3 133.4<133.3 666.7>
LayerCount: 2
Back
Fore
SplineSet
66.400390625 800 m 1
 599.700195312 800 l 1
 599.700195312 666.700195312 l 1
 399.700195312 666.700195312 l 1
 399.700195312 133.299804688 l 1
 599.700195312 133.299804688 l 1
 599.700195312 0 l 1
 66.400390625 0 l 1
 66.400390625 133.299804688 l 1
 266.299804688 133.299804688 l 1
 266.299804688 666.700195312 l 1
 66.400390625 666.700195312 l 1
 66.400390625 800 l 1
EndSplineSet
Validated: 1
EndChar

StartChar: J
Encoding: 42 74 43
Width: 666
VWidth: 0
Flags: W
HStem: 0.0996094 133.301<230.765 435.134> 666.7 133.3<333 466.3>
VStem: 66.2998 133.3<164.566 266.7> 466.3 133.3<164.566 666.7>
LayerCount: 2
Back
Fore
SplineSet
333 800 m 1
 599.599609375 800 l 1
 599.599609375 233.400390625 l 2
 599.599609375 73 526.700195312 0.099609375 366.299804688 0.099609375 c 0
 351.799804688 0.099609375 299.599609375 0.099609375 299.599609375 0.099609375 c 2
 139.200195312 0.099609375 66.2998046875 73 66.2998046875 233.400390625 c 2
 66.2998046875 266.700195312 l 1
 199.599609375 266.700195312 l 1
 199.599609375 233.400390625 l 2
 199.599609375 164.700195312 230.900390625 133.400390625 299.599609375 133.400390625 c 2
 366.299804688 133.400390625 l 2
 435.099609375 133.400390625 466.299804688 164.700195312 466.299804688 233.400390625 c 2
 466.299804688 666.700195312 l 1
 333 666.700195312 l 1
 333 800 l 1
EndSplineSet
Validated: 1
EndChar

StartChar: K
Encoding: 43 75 44
Width: 666
VWidth: 0
Flags: W
HStem: 0 21G<66.2998 199.6 417.995 599.7> 0 21G<66.2998 199.6 417.995 599.7> 780 20G<66.2998 199.6 417.995 599.7> 780 20G<66.2998 199.6 417.995 599.7>
VStem: 66.2998 133.3<0 311.1 488.9 800>
LayerCount: 2
Back
Fore
SplineSet
599.700195312 800 m 1xa8
 299.599609375 400 l 1
 599.700195312 0 l 1
 433 0 l 1
 199.599609375 311.099609375 l 1
 199.599609375 0 l 1
 66.2998046875 0 l 1
 66.2998046875 800 l 1
 199.599609375 800 l 1
 199.599609375 488.900390625 l 1
 433 800 l 1
 599.700195312 800 l 1xa8
EndSplineSet
Validated: 1
EndChar

StartChar: L
Encoding: 44 76 45
Width: 666
VWidth: 0
Flags: W
HStem: 0 133.3<199.7 599.7> 780 20G<66.4004 199.7> 780 20G<66.4004 199.7>
VStem: 66.4004 133.3<133.3 800>
LayerCount: 2
Back
Fore
SplineSet
199.700195312 0 m 1xd0
 66.400390625 0 l 1
 66.400390625 800 l 1
 199.700195312 800 l 1
 199.700195312 133.299804688 l 1
 599.700195312 133.299804688 l 1
 599.700195312 0 l 1
 199.700195312 0 l 1xd0
EndSplineSet
Validated: 1
EndChar

StartChar: M
Encoding: 45 77 46
Width: 666
VWidth: 0
Flags: W
HStem: 0 21G<66.2998 199.7 293.7 372.3 466.3 599.7> 0 21G<66.2998 199.7 293.7 372.3 466.3 599.7> 780 20G<66.2998 205.413 460.587 599.7> 780 20G<66.2998 205.413 460.587 599.7>
VStem: 66.2998 133.4<0 333.3 775.492 800> 466.3 133.4<0 333.3 775.492 800>
LayerCount: 2
Back
Fore
SplineSet
466.299804688 800 m 1xac
 599.700195312 800 l 1
 599.700195312 0 l 1
 466.299804688 0 l 1
 466.299804688 333.299804688 l 1
 366.299804688 0 l 1
 299.700195312 0 l 1
 199.700195312 333.299804688 l 1
 199.700195312 0 l 1
 66.2998046875 0 l 1
 66.2998046875 800 l 1
 199.700195312 800 l 1
 333 333.299804688 l 1
 466.299804688 800 l 1xac
EndSplineSet
Validated: 1
EndChar

StartChar: N
Encoding: 46 78 47
Width: 666
VWidth: 0
Flags: W
HStem: 0 21G<66.2998 199.6 392.933 599.7> 0 21G<66.2998 199.6 392.933 599.7> 780 20G<66.2998 272.966 466.3 599.7> 780 20G<66.2998 272.966 466.3 599.7>
VStem: 66.2998 133.3<0 600> 466.3 133.4<200 800>
LayerCount: 2
Back
Fore
SplineSet
599.700195312 800 m 1xac
 599.700195312 0 l 1
 399.599609375 0 l 1
 199.599609375 600 l 1
 199.599609375 0 l 1
 66.2998046875 0 l 1
 66.2998046875 800 l 1
 266.299804688 800 l 1
 466.299804688 200 l 1
 466.299804688 800 l 1
 599.700195312 800 l 1xac
EndSplineSet
Validated: 1
EndChar

StartChar: O
Encoding: 47 79 48
Width: 666
VWidth: 0
Flags: W
HStem: 0.0996094 133.2<230.765 435.134> 666.7 133.3<230.826 435.098>
VStem: 66.2998 133.3<164.566 635.534> 466.3 133.3<164.566 635.767>
LayerCount: 2
Back
Fore
SplineSet
366.299804688 133.299804688 m 2
 435.099609375 133.299804688 466.299804688 164.599609375 466.299804688 233.400390625 c 2
 466.299804688 566.700195312 l 2
 466.299804688 635.400390625 435 666.700195312 366.299804688 666.700195312 c 2
 299.599609375 666.700195312 l 2
 230.900390625 666.700195312 199.599609375 635.400390625 199.599609375 566.700195312 c 2
 199.599609375 233.299804688 l 2
 199.599609375 164.599609375 230.900390625 133.299804688 299.599609375 133.299804688 c 2
 366.299804688 133.299804688 l 2
366.299804688 800 m 0
 526.589847783 800 599.599713175 727.199878593 599.599713175 567.031111654 c 0
 599.599609375 566.700195312 l 2
 599.599609375 233.400390625 l 2
 599.599609375 73 526.700195312 0.099609375 366.299804688 0.099609375 c 0
 359.900390625 0.099609375 306 0.099609375 299.599609375 0.099609375 c 0
 139.200195312 0.099609375 66.2998046875 73 66.2998046875 233.400390625 c 2
 66.2998046875 566.700195312 l 2
 66.2998046875 727.099609375 139.200195312 800 299.700195312 800 c 0
 306 800 360 800 366.299804688 800 c 0
EndSplineSet
Validated: 1
EndChar

StartChar: P
Encoding: 48 80 49
Width: 666
VWidth: 0
Flags: W
HStem: 0 21G<66.2998 199.6> 0 21G<66.2998 199.6> 333.3 133.4<199.6 435.208> 666.7 133.3<199.6 435.098>
VStem: 66.2998 133.3<0 333.3 466.7 666.7> 466.3 133.3<496.039 637.496>
LayerCount: 2
Back
Fore
SplineSet
366.299804688 466.700195312 m 2x3c
 435.099609375 466.700195312 466.299804688 497.900390625 466.299804688 566.700195312 c 0
 466.299804688 635.400390625 435 666.700195312 366.299804688 666.700195312 c 2
 199.599609375 666.700195312 l 1
 199.599609375 466.700195312 l 1
 366.299804688 466.700195312 l 2x3c
366.299804688 800 m 2
 526.589847783 800 599.599713175 727.199878593 599.599713175 566.930733169 c 0
 599.54936313 406.312519984 526.930423607 333.299804688 366.299804688 333.299804688 c 2
 199.599609375 333.299804688 l 1
 199.599609375 0 l 1
 66.2998046875 0 l 1xbc
 66.2998046875 800 l 1
 366.299804688 800 l 2
EndSplineSet
Validated: 1
EndChar

StartChar: Q
Encoding: 49 81 50
Width: 666
VWidth: 0
Flags: HMW
LayerCount: 2
Back
Fore
SplineSet
600 567 m 2
 600 234 l 2
 600 159 584 103 551 65 c 1
 600 0 l 1
 466 0 l 1
 458 11 l 1
 432 4 401 0 366 0 c 0
 360 0 306 0 300 0 c 0
 139 0 66 73 66 233 c 2
 66 567 l 2
 66 727 139 800 300 800 c 0
 306 800 360 800 366 800 c 0
 527 800 600 727 600 567 c 2
400 267 m 1
 460 187 l 1
 464 200 466 215 466 233 c 2
 466 567 l 2
 466 635 435 667 366 667 c 2
 300 667 l 2
 231 667 200 635 200 567 c 2
 200 233 l 2
 200 165 231 133 300 133 c 2
 366 133 l 1
 266 267 l 1
 400 267 l 1
EndSplineSet
Validated: 1
EndChar

StartChar: R
Encoding: 50 82 51
Width: 666
VWidth: 0
Flags: W
HStem: 0 21G<66.2998 199.6 466.3 599.6> 0 21G<66.2998 199.6 466.3 599.6> 333.3 133.4<199.7 450.394> 666.7 133.3<199.7 435.141>
VStem: 66.2998 133.3<0 333.3 466.7 666.7> 466.4 133.3<0 316.982 482.356 637.41>
LayerCount: 2
Back
Fore
SplineSet
199.700195312 666.700195312 m 1x3c
 199.700195312 466.700195312 l 1
 366.400390625 466.700195312 l 2
 435.099609375 466.700195312 466.400390625 466.700195312 466.400390625 566.700195312 c 0
 466.400390625 635.400390625 435.099609375 666.700195312 366.400390625 666.700195312 c 2
 199.700195312 666.700195312 l 1x3c
599.700195312 233.299804688 m 1
 599.599609375 233.299804688 l 1
 599.599609375 0 l 1
 466.299804688 0 l 1
 466.299804688 233.299804688 l 2
 466.299804688 333.299804688 435 333.299804688 366.299804688 333.299804688 c 2
 199.599609375 333.299804688 l 1
 199.599609375 0 l 1
 66.2998046875 0 l 1xbc
 66.2998046875 800 l 1
 366.299804688 800 l 2
 526.700195312 800 599.700195312 727.099609375 599.700195312 566.700195312 c 0
 599.700195312 479.200195312 579.599609375 428.5 537.299804688 400 c 1
 579.599609375 371.5 599.700195312 320.799804688 599.700195312 233.299804688 c 1
EndSplineSet
Validated: 1
EndChar

StartChar: S
Encoding: 51 83 52
Width: 666
VWidth: 0
Flags: W
HStem: 0.0996094 133.301<230.765 435.208> 333.4 133.3<230.765 435.098> 666.7 133.3<230.765 435.098>
VStem: 66.2998 133.3<164.566 266.7 495.991 637.41> 466.3 133.3<162.809 304.226 533.4 635.767>
LayerCount: 2
Back
Fore
SplineSet
366.299804688 466.700195312 m 2
 526.589847783 466.700195312 599.599713175 393.900073906 599.599713175 233.731306967 c 0
 599.549331303 73.1122552113 526.930326985 0.099609375 366.299804688 0.099609375 c 0
 351.799804688 0.099609375 299.599609375 0.099609375 299.599609375 0.099609375 c 2
 139.200195312 0.099609375 66.2998046875 73 66.2998046875 233.400390625 c 0
 66.2998046875 240.5 66.2998046875 266.700195312 66.2998046875 266.700195312 c 1
 83.099609375 266.700195312 185.799804688 266.700195312 199.599609375 266.700195312 c 1
 199.599609375 233.400390625 l 2
 199.599609375 164.700195312 230.900390625 133.400390625 299.599609375 133.400390625 c 2
 366.299804688 133.400390625 l 2
 435.099609375 133.400390625 466.299804688 164.700195312 466.299804688 233.400390625 c 0
 466.299804688 302.099609375 435 333.400390625 366.299804688 333.400390625 c 2
 299.599609375 333.400390625 l 2
 139.200195312 333.400390625 66.2998046875 406.299804688 66.2998046875 566.700195312 c 0
 66.2998046875 727.099609375 139.200195312 800 299.599609375 800 c 0
 314.099609375 800 366.299804688 800 366.299804688 800 c 2
 526.589847783 800 599.599713175 727.199878593 599.599713175 567.031111654 c 0
 599.598517551 563.219422029 599.598123009 559.407678889 599.598123009 555.595911809 c 0
 599.598123009 548.197422852 599.599609375 540.798843706 599.599609375 533.400390625 c 1
 582.799804688 533.400390625 480.099609375 533.400390625 466.299804688 533.400390625 c 1
 466.299804688 566.700195312 l 2
 466.299804688 635.400390625 435 666.700195312 366.299804688 666.700195312 c 2
 299.599609375 666.700195312 l 2
 230.799804688 666.700195312 199.599609375 635.400390625 199.599609375 566.700195312 c 0
 199.599609375 498 230.900390625 466.700195312 299.599609375 466.700195312 c 2
 366.299804688 466.700195312 l 2
EndSplineSet
Validated: 1
EndChar

StartChar: T
Encoding: 52 84 53
Width: 666
VWidth: 0
Flags: W
HStem: 0 21G<266.3 399.7> 0 21G<266.3 399.7> 666.7 133.3<66.4004 266.3 399.7 599.7>
VStem: 266.3 133.4<0 666.7>
LayerCount: 2
Back
Fore
SplineSet
66.400390625 666.700195312 m 1xb0
 66.400390625 800 l 1
 599.700195312 800 l 1
 599.700195312 666.700195312 l 1
 399.700195312 666.700195312 l 1
 399.700195312 0 l 1
 266.299804688 0 l 1
 266.299804688 666.700195312 l 1
 66.400390625 666.700195312 l 1xb0
EndSplineSet
Validated: 1
EndChar

StartChar: U
Encoding: 53 85 54
Width: 666
VWidth: 0
Flags: W
HStem: 0 133.3<247.075 418.925> 780 20G<66.2998 199.7 466.3 599.7> 780 20G<66.2998 199.7 466.3 599.7>
VStem: 66.2998 133.4<177.223 800> 466.3 133.4<177.223 800>
LayerCount: 2
Back
Fore
SplineSet
466.299804688 800 m 1xd8
 599.700195312 800 l 1
 599.700195312 233.299804688 l 2
 599.700195312 72.900390625 493.400390625 0 333 0 c 0
 172.599609375 0 66.2998046875 72.900390625 66.2998046875 233.299804688 c 2
 66.2998046875 800 l 1
 199.700195312 800 l 1
 199.700195312 233.299804688 l 2
 199.700195312 164.599609375 264.299804688 133.299804688 333 133.299804688 c 0
 401.700195312 133.299804688 466.299804688 164.599609375 466.299804688 233.299804688 c 2
 466.299804688 800 l 1xd8
EndSplineSet
Validated: 1
EndChar

StartChar: V
Encoding: 54 86 55
Width: 666
VWidth: 0
Flags: W
HStem: 0 21G<261.4 404.7> 0 21G<261.4 404.7> 780 20G<66.4004 204.699 461.398 599.7> 780 20G<66.4004 204.699 461.398 599.7>
LayerCount: 2
Back
Fore
SplineSet
399.700195312 0 m 1xa0
 266.400390625 0 l 1
 66.400390625 800 l 1
 199.700195312 800 l 1
 333 266.700195312 l 1
 466.400390625 800 l 1
 599.700195312 800 l 1
 399.700195312 0 l 1xa0
EndSplineSet
Validated: 1
EndChar

StartChar: W
Encoding: 55 87 56
Width: 666
VWidth: 0
Flags: W
HStem: 0 21G<66.4004 209.753 456.34 599.7> 0 21G<66.4004 209.753 456.34 599.7> 780 20G<66.4004 199.7 466.4 599.7> 780 20G<66.4004 199.7 466.4 599.7>
VStem: 66.4004 133.3<266.7 800> 466.4 133.3<266.7 800>
LayerCount: 2
Back
Fore
SplineSet
466.400390625 266.700195312 m 1xac
 466.400390625 800 l 1
 599.700195312 800 l 1
 599.700195312 0 l 1
 466.400390625 0 l 1
 333 265.200195312 l 1
 199.700195312 0 l 1
 66.400390625 0 l 1
 66.400390625 800 l 1
 199.700195312 800 l 1
 199.700195312 266.700195312 l 1
 266.200195312 399.599609375 l 1
 266 400 l 1
 400.099609375 400 l 1
 399.900390625 399.599609375 l 1
 466.400390625 266.700195312 l 1xac
EndSplineSet
Validated: 1
EndChar

StartChar: X
Encoding: 56 88 57
Width: 666
VWidth: 0
Flags: W
HStem: 0 21G<66.4004 209.696 456.397 599.7> 0 21G<66.4004 209.696 456.397 599.7> 780 20G<66.4004 209.696 456.397 599.7> 780 20G<66.4004 209.696 456.397 599.7>
LayerCount: 2
Back
Fore
SplineSet
466.400390625 800 m 1xa0
 599.700195312 800 l 1
 399.700195312 400 l 1
 599.700195312 0 l 1
 466.400390625 0 l 1
 333 266.700195312 l 1
 199.700195312 0 l 1
 66.400390625 0 l 1
 266.400390625 400 l 1
 66.400390625 800 l 1
 199.700195312 800 l 1
 333 533.299804688 l 1
 466.400390625 800 l 1xa0
EndSplineSet
Validated: 1
EndChar

StartChar: Y
Encoding: 57 89 58
Width: 666
VWidth: 0
Flags: W
HStem: 0 21G<266.3 399.6> 0 21G<266.3 399.6> 780 20G<66.2998 207.604 458.301 599.7> 780 20G<66.2998 207.604 458.301 599.7>
VStem: 266.3 133.3<0 333.3>
LayerCount: 2
Back
Fore
SplineSet
266.299804688 0 m 1xa8
 266.299804688 333.299804688 l 1
 66.2998046875 800 l 1
 199.599609375 800 l 1
 333 466.700195312 l 1
 466.299804688 800 l 1
 599.700195312 800 l 1
 399.599609375 333.299804688 l 1
 399.599609375 0 l 1
 266.299804688 0 l 1xa8
EndSplineSet
Validated: 1
EndChar

StartChar: Z
Encoding: 58 90 59
Width: 666
VWidth: 0
Flags: W
HStem: 0 133.3<233 599.7> 333.3 133.4<133 203.8 462.2 533> 666.7 133.3<66.2998 433>
CounterMasks: 1 e0
LayerCount: 2
Back
Fore
SplineSet
599.700195312 800 m 1
 599.700195312 666.700195312 l 1
 462.200195312 466.700195312 l 1
 533 466.700195312 l 1
 533 333.299804688 l 1
 370.5 333.299804688 l 1
 233 133.299804688 l 1
 599.700195312 133.299804688 l 1
 599.700195312 0 l 1
 66.2998046875 0 l 1
 66.2998046875 133.299804688 l 1
 203.799804688 333.299804688 l 1
 133 333.299804688 l 1
 133 466.700195312 l 1
 295.5 466.700195312 l 1
 433 666.700195312 l 1
 66.2998046875 666.700195312 l 1
 66.2998046875 800 l 1
 599.700195312 800 l 1
EndSplineSet
Validated: 1
EndChar

StartChar: bracketleft
Encoding: 59 91 60
Width: 666
VWidth: 0
Flags: W
HStem: 0 133.3<366.4 433> 666.7 133.3<366.4 433>
VStem: 233 200<0 133.3 666.7 800> 233 133.4<133.3 666.7>
LayerCount: 2
Back
Fore
SplineSet
433 133.299804688 m 1xe0
 433 0 l 1
 233 0 l 1
 233 800 l 1
 433 800 l 1
 433 666.700195312 l 1xe0
 366.400390625 666.700195312 l 1
 366.400390625 133.299804688 l 1xd0
 433 133.299804688 l 1xe0
EndSplineSet
Validated: 1
EndChar

StartChar: backslash
Encoding: 60 92 61
Width: 666
VWidth: 0
Flags: W
HStem: 0 21G<393.033 533> 0 21G<393.033 533> 780 20G<133 272.967> 780 20G<133 272.967>
LayerCount: 2
Back
Fore
SplineSet
533 0 m 1xa0
 399.700195312 0 l 1
 133 800 l 1
 266.299804688 800 l 1
 533 0 l 1xa0
EndSplineSet
Validated: 1
EndChar

StartChar: bracketright
Encoding: 61 93 62
Width: 666
VWidth: 0
Flags: W
HStem: 0 133.3<233 299.6> 666.7 133.3<233 299.6>
VStem: 233 200<0 133.3 666.7 800> 299.6 133.4<133.3 666.7>
LayerCount: 2
Back
Fore
SplineSet
233 133.299804688 m 1xe0
 299.599609375 133.299804688 l 1
 299.599609375 666.700195312 l 1xd0
 233 666.700195312 l 1
 233 800 l 1
 433 800 l 1
 433 0 l 1
 233 0 l 1
 233 133.299804688 l 1xe0
EndSplineSet
Validated: 1
EndChar

StartChar: asciicircum
Encoding: 62 94 63
Width: 666
VWidth: 0
Flags: W
HStem: 666.7 133.3<199.7 266.4 399.7 466.4>
LayerCount: 2
Back
Fore
SplineSet
599.700195312 666.700195312 m 1
 399.700195312 666.700195312 l 1
 333 733.299804688 l 1
 266.400390625 666.700195312 l 1
 66.400390625 666.700195312 l 1
 199.700195312 800 l 1
 466.400390625 800 l 1
 599.700195312 666.700195312 l 1
EndSplineSet
Validated: 1
EndChar

StartChar: underscore
Encoding: 63 95 64
Width: 666
VWidth: 0
Flags: W
HStem: 0 133.3<66.4004 599.7>
LayerCount: 2
Back
Fore
SplineSet
66.400390625 0 m 1
 66.400390625 133.299804688 l 1
 599.700195312 133.299804688 l 1
 599.700195312 0 l 1
 66.400390625 0 l 1
EndSplineSet
Validated: 1
EndChar

StartChar: grave
Encoding: 64 96 65
Width: 666
VWidth: 0
Flags: W
HStem: 666.7 133.3<199.7 266.4>
LayerCount: 2
Back
Fore
SplineSet
399.700195312 666.700195312 m 1
 199.700195312 666.700195312 l 1
 66.400390625 800 l 1
 266.400390625 800 l 1
 399.700195312 666.700195312 l 1
EndSplineSet
Validated: 1
EndChar

StartChar: a
Encoding: 65 97 66
Width: 666
VWidth: 0
Flags: W
HStem: 0 21G<66.4004 204.696 461.389 599.7> 0 21G<66.4004 204.696 461.389 599.7> 133.3 133.3<266.4 399.7> 780 20G<261.4 404.7> 780 20G<261.4 404.7>
LayerCount: 2
Back
Fore
SplineSet
266.400390625 266.700195312 m 1x20
 266.400390625 266.599609375 l 1
 399.700195312 266.599609375 l 1
 333 533.299804688 l 1
 266.400390625 266.700195312 l 1x20
266.400390625 800 m 1xb0
 399.700195312 800 l 1
 599.700195312 0 l 1
 466.400390625 0 l 1
 433 133.299804688 l 1
 233 133.299804688 l 1
 199.700195312 0 l 1
 66.400390625 0 l 1
 266.400390625 800 l 1xb0
EndSplineSet
Validated: 1
EndChar

StartChar: b
Encoding: 66 98 67
Width: 666
VWidth: 0
Flags: W
HStem: 0 133.3<199.7 466.6> 333.3 133.4<199.7 466.6> 666.7 133.3<199.7 466.6>
VStem: 66.4004 133.3<133.3 333.3 466.7 666.7> 466.6 133.101<133.3 333.3 466.7 666.7>
CounterMasks: 1 e0
LayerCount: 2
Back
Fore
SplineSet
199.700195312 333.299804688 m 1
 199.700195312 133.299804688 l 1
 466.599609375 133.299804688 l 1
 466.599609375 333.299804688 l 1
 199.700195312 333.299804688 l 1
199.700195312 666.700195312 m 1
 199.700195312 466.700195312 l 1
 466.599609375 466.700195312 l 1
 466.599609375 666.700195312 l 1
 199.700195312 666.700195312 l 1
499.700195312 0 m 2
 66.400390625 0 l 1
 66.400390625 800 l 1
 499.700195312 800 l 2
 549.700195312 800 599.700195312 750 599.700195312 700 c 2
 599.700195312 466.700195312 l 2
 599.700195312 433.299804688 566.299804688 400 533 400 c 1
 566.400390625 400 599.700195312 366.599609375 599.700195312 333.299804688 c 2
 599.700195312 100 l 2
 599.700195312 50 549.700195312 0 499.700195312 0 c 2
EndSplineSet
Validated: 1
EndChar

StartChar: c
Encoding: 67 99 68
Width: 666
VWidth: 0
Flags: W
HStem: 0 133.3<199.8 466.4> 666.7 133.3<199.8 466.3>
VStem: 66.5 133.3<133.3 666.7> 466.4 133.3<133.3 200 600 666.7>
LayerCount: 2
Back
Fore
SplineSet
499.700195312 800 m 2
 549.649978098 800 599.599760884 750.100383993 599.599760884 700.150651591 c 0
 599.599609375 700 l 2
 599.599609375 600 l 1
 466.299804688 600 l 1
 466.299804688 666.700195312 l 1
 199.799804688 666.700195312 l 1
 199.799804688 133.299804688 l 1
 466.400390625 133.299804688 l 1
 466.400390625 200 l 1
 599.700195312 200 l 1
 599.700195312 100 l 2
 599.700195312 50 549.700195312 0 499.700195312 0 c 2
 166.400390625 0 l 2
 116.400390625 0 66.400390625 50 66.400390625 100 c 1
 66.5 100 l 1
 66.5 700 l 1
 66.400390625 700 l 1
 66.400390625 750 116.400390625 800 166.400390625 800 c 2
 499.700195312 800 l 2
EndSplineSet
Validated: 1
EndChar

StartChar: d
Encoding: 68 100 69
Width: 666
VWidth: 0
Flags: W
HStem: 0 133.4<199.7 466.4> 666.7 133.3<199.7 466.4>
VStem: 66.4004 133.3<133.4 666.7> 466.4 133.5<133.4 666.7>
LayerCount: 2
Back
Fore
SplineSet
199.700195312 666.700195312 m 1
 199.700195312 133.400390625 l 1
 466.400390625 133.400390625 l 1
 466.400390625 666.700195312 l 1
 199.700195312 666.700195312 l 1
599.799804688 700 m 1
 599.900390625 700 l 1
 599.900390625 100 l 2
 599.900390625 50 549.900390625 0 499.900390625 0 c 2
 66.400390625 0 l 1
 66.400390625 800 l 1
 66.5 800 l 1
 199.700195312 800 l 1
 499.799804688 800 l 2
 549.799804688 800 599.799804688 750 599.799804688 700 c 1
EndSplineSet
Validated: 1
EndChar

StartChar: e
Encoding: 69 101 70
Width: 666
VWidth: 0
Flags: W
HStem: 0 133.3<199.7 599.7> 333.3 133.4<199.7 399.7> 666.7 133.3<199.7 599.7>
VStem: 66.4004 133.3<133.3 333.3 466.7 666.7>
CounterMasks: 1 e0
LayerCount: 2
Back
Fore
SplineSet
599.700195312 0 m 1
 66.400390625 0 l 1
 66.400390625 800 l 1
 599.700195312 800 l 1
 599.700195312 666.700195312 l 1
 199.700195312 666.700195312 l 1
 199.700195312 466.700195312 l 1
 399.700195312 466.700195312 l 1
 399.700195312 333.299804688 l 1
 199.700195312 333.299804688 l 1
 199.700195312 133.299804688 l 1
 599.700195312 133.299804688 l 1
 599.700195312 0 l 1
EndSplineSet
Validated: 1
EndChar

StartChar: f
Encoding: 70 102 71
Width: 666
VWidth: 0
Flags: W
HStem: 0 21G<66.4004 199.7> 0 21G<66.4004 199.7> 333.3 133.4<199.7 399.7> 666.7 133.3<199.7 599.7>
VStem: 66.4004 133.3<0 333.3 466.7 666.7>
LayerCount: 2
Back
Fore
SplineSet
66.400390625 800 m 1xb8
 599.700195312 800 l 1
 599.700195312 666.700195312 l 1
 199.700195312 666.700195312 l 1
 199.700195312 466.700195312 l 1
 399.700195312 466.700195312 l 1
 399.700195312 333.299804688 l 1
 199.700195312 333.299804688 l 1
 199.700195312 0 l 1
 66.400390625 0 l 1
 66.400390625 800 l 1xb8
EndSplineSet
Validated: 1
EndChar

StartChar: g
Encoding: 71 103 72
Width: 666
VWidth: 0
Flags: W
HStem: 0 133.4<199.7 466.3> 266.7 133.3<333 466.3> 666.7 133.3<199.7 466.4>
VStem: 66.2998 133.4<133.4 666.7> 466.3 133.3<133.4 266.7 600 666.7>
LayerCount: 2
Back
Fore
SplineSet
499.799804688 800 m 2
 549.700195312 799.900390625 599.700195312 750 599.700195312 700 c 2
 599.700195312 600 l 1
 466.400390625 600 l 1
 466.400390625 666.700195312 l 1
 199.700195312 666.700195312 l 1
 199.700195312 133.400390625 l 1
 466.299804688 133.400390625 l 1
 466.299804688 266.700195312 l 1
 333 266.700195312 l 1
 333 400 l 1
 599.599609375 400 l 1
 599.599609375 100 l 2
 599.599609375 50 549.700195312 0 499.700195312 0 c 2
 166.099609375 0 l 2
 116.200195312 0.2001953125 66.2998046875 50.099609375 66.2998046875 100 c 2
 66.2998046875 700 l 2
 66.2998046875 749.900390625 116.200195312 799.900390625 166.099609375 800 c 2
 499.799804688 800 l 2
EndSplineSet
Validated: 1
EndChar

StartChar: i
Encoding: 73 105 73
Width: 666
VWidth: 0
Flags: W
HStem: 0 133.3<66.4004 266.3 399.7 599.7> 666.7 133.3<66.4004 266.3 399.7 599.7>
VStem: 266.3 133.4<133.3 666.7>
LayerCount: 2
Back
Fore
SplineSet
66.400390625 800 m 1
 599.700195312 800 l 1
 599.700195312 666.700195312 l 1
 399.700195312 666.700195312 l 1
 399.700195312 133.299804688 l 1
 599.700195312 133.299804688 l 1
 599.700195312 0 l 1
 66.400390625 0 l 1
 66.400390625 133.299804688 l 1
 266.299804688 133.299804688 l 1
 266.299804688 666.700195312 l 1
 66.400390625 666.700195312 l 1
 66.400390625 800 l 1
EndSplineSet
Validated: 1
EndChar

StartChar: j
Encoding: 74 106 74
Width: 666
VWidth: 0
Flags: W
HStem: 0 133.4<199.7 466.3> 666.7 133.3<333 466.3>
VStem: 66.4004 133.3<133.4 200> 466.3 133.4<133.4 666.7>
LayerCount: 2
Back
Fore
SplineSet
333 800 m 1
 599.700195312 800 l 1
 599.700195312 100 l 2
 599.700195312 50 549.700195312 0 499.700195312 0 c 2
 166.400390625 0 l 2
 116.5 0.099609375 66.5 50 66.5 100 c 1
 66.400390625 100 l 1
 66.400390625 200 l 1
 199.700195312 200 l 1
 199.700195312 133.400390625 l 1
 466.299804688 133.400390625 l 1
 466.299804688 666.700195312 l 1
 333 666.700195312 l 1
 333 800 l 1
EndSplineSet
Validated: 1
EndChar

StartChar: k
Encoding: 75 107 75
Width: 666
VWidth: 0
Flags: W
HStem: 0 21G<66.4004 199.7 466.4 599.7> 0 21G<66.4004 199.7 466.4 599.7> 333.3 133.4<199.7 466.3> 780 20G<66.4004 199.7 466.3 599.7> 780 20G<66.4004 199.7 466.3 599.7>
VStem: 66.4004 133.3<0 333.3 466.7 800> 466.4 133.3<0 332.289 467.711 800>
LayerCount: 2
Back
Fore
SplineSet
466.299804688 466.700195312 m 1xb6
 466.299804688 800 l 1
 599.700195312 800 l 1
 599.700195312 500 l 2
 599.700195312 450 549.700195312 400 499.700195312 400 c 1
 549.700195312 400 599.700195312 350 599.700195312 300 c 2
 599.700195312 0 l 1
 466.400390625 0 l 1
 466.400390625 333.299804688 l 1
 199.700195312 333.299804688 l 1
 199.700195312 0 l 1
 66.400390625 0 l 1
 66.400390625 800 l 1
 199.700195312 800 l 1
 199.700195312 466.700195312 l 1
 466.299804688 466.700195312 l 1xb6
EndSplineSet
Validated: 1
EndChar

StartChar: l
Encoding: 76 108 76
Width: 666
VWidth: 0
Flags: W
HStem: 0 133.3<199.7 599.7> 780 20G<66.4004 199.7> 780 20G<66.4004 199.7>
VStem: 66.4004 133.3<133.3 800>
LayerCount: 2
Back
Fore
SplineSet
199.700195312 0 m 1xd0
 66.400390625 0 l 1
 66.400390625 800 l 1
 199.700195312 800 l 1
 199.700195312 133.299804688 l 1
 599.700195312 133.299804688 l 1
 599.700195312 0 l 1
 199.700195312 0 l 1xd0
EndSplineSet
Validated: 1
EndChar

StartChar: m
Encoding: 77 109 77
Width: 666
VWidth: 0
Flags: W
HStem: 0 21G<66.4004 199.7 466.3 599.7> 0 21G<66.4004 199.7 466.3 599.7> 780 20G<66.4004 213.03 452.97 599.7> 780 20G<66.4004 213.03 452.97 599.7>
VStem: 66.4004 133.3<0 566.7> 466.3 133.4<0 566.7>
LayerCount: 2
Back
Fore
SplineSet
333 600 m 1xac
 466.299804688 800 l 1
 599.700195312 800 l 1
 599.700195312 0 l 1
 466.299804688 0 l 1
 466.299804688 566.700195312 l 1
 355.200195312 400 l 1
 310.799804688 400 l 1
 199.700195312 566.700195312 l 1
 199.700195312 0 l 1
 66.400390625 0 l 1
 66.400390625 800 l 1
 199.700195312 800 l 1
 333 600 l 1xac
EndSplineSet
Validated: 1
EndChar

StartChar: n
Encoding: 78 110 78
Width: 666
VWidth: 0
Flags: W
HStem: 0 21G<66.4004 199.7 456.302 599.7> 0 21G<66.4004 199.7 456.302 599.7> 780 20G<66.4004 209.698 466.3 599.7> 780 20G<66.4004 209.698 466.3 599.7>
VStem: 66.4004 133.3<0 533.3> 466.3 133.4<266.7 800>
LayerCount: 2
Back
Fore
SplineSet
466.299804688 266.700195312 m 1xac
 466.299804688 800 l 1
 599.700195312 800 l 1
 599.700195312 0 l 1
 466.299804688 0 l 1
 199.700195312 533.299804688 l 1
 199.700195312 0 l 1
 66.400390625 0 l 1
 66.400390625 800 l 1
 199.700195312 800 l 1
 466.299804688 266.700195312 l 1xac
EndSplineSet
Validated: 1
EndChar

StartChar: o
Encoding: 79 111 79
Width: 666
VWidth: 0
Flags: W
HStem: 0 133.4<199.7 466.4> 666.7 133.3<199.7 466.4>
VStem: 66.2998 133.4<133.4 666.7> 466.4 133.199<133.4 666.7>
LayerCount: 2
Back
Fore
SplineSet
199.700195312 666.700195312 m 1
 199.700195312 133.400390625 l 1
 466.400390625 133.400390625 l 1
 466.400390625 666.700195312 l 1
 199.700195312 666.700195312 l 1
166.299804688 0 m 2
 116.299804688 0 66.400390625 50 66.2998046875 100 c 2
 66.2998046875 700 l 2
 66.2998046875 750 116.299804688 800 166.299804688 800 c 2
 499.599609375 800 l 2
 549.599609375 800 599.599609375 750 599.599609375 700 c 2
 599.599609375 100 l 2
 599.599609375 50 549.599609375 0 499.599609375 0 c 2
 166.299804688 0 l 2
EndSplineSet
Validated: 1
EndChar

StartChar: p
Encoding: 80 112 80
Width: 666
VWidth: 0
Flags: W
HStem: 0 21G<66.4004 199.7> 0 21G<66.4004 199.7> 333.3 133.4<199.7 466.4> 666.7 133.3<199.7 466.4>
VStem: 66.4004 133.3<0 333.3 466.7 666.7> 466.4 133.3<466.7 666.7>
LayerCount: 2
Back
Fore
SplineSet
199.700195312 666.700195312 m 1x3c
 199.700195312 466.700195312 l 1
 466.400390625 466.700195312 l 1
 466.400390625 666.700195312 l 1
 199.700195312 666.700195312 l 1x3c
499.700195312 800 m 2
 549.700195312 800 599.700195312 750 599.700195312 700 c 2
 599.700195312 433.299804688 l 2
 599.700195312 383.299804688 549.700195312 333.299804688 499.700195312 333.299804688 c 2
 199.700195312 333.299804688 l 1
 199.700195312 0 l 1
 66.400390625 0 l 1xbc
 66.400390625 800 l 1
 499.700195312 800 l 2
EndSplineSet
Validated: 1
EndChar

StartChar: q
Encoding: 81 113 81
Width: 666
VWidth: 0
Flags: HMW
LayerCount: 2
Back
Fore
SplineSet
600 700 m 2
 600 100 l 2
 600 77 589 54 573 36 c 1
 600 0 l 1
 166 0 l 2
 116 0 66 50 66 100 c 2
 66 700 l 2
 66 750 116 800 166 800 c 2
 500 800 l 2
 550 800 600 750 600 700 c 2
400 267 m 1
 466 178 l 1
 466 667 l 1
 200 667 l 1
 200 133 l 1
 366 133 l 1
 266 267 l 1
 400 267 l 1
EndSplineSet
Validated: 1
EndChar

StartChar: r
Encoding: 82 114 82
Width: 666
VWidth: 0
Flags: W
HStem: 0 21G<66.4004 199.7 466.6 599.7> 0 21G<66.4004 199.7 466.6 599.7> 333.3 133.4<199.7 466.6> 666.7 133.3<199.7 466.6>
VStem: 66.4004 133.3<0 333.3 466.7 666.7> 466.6 133.101<0 333.3 466.7 666.7>
LayerCount: 2
Back
Fore
SplineSet
199.700195312 666.700195312 m 1x3c
 199.700195312 466.700195312 l 1
 466.599609375 466.700195312 l 1
 466.599609375 666.700195312 l 1
 199.700195312 666.700195312 l 1x3c
199.700195312 333.299804688 m 1
 199.700195312 0 l 1
 66.400390625 0 l 1
 66.400390625 800 l 1
 499.700195312 800 l 2
 549.700195312 800 599.700195312 750 599.700195312 700 c 2
 599.700195312 466.700195312 l 2
 599.700195312 433.299804688 566.299804688 400 533 400 c 1
 566.400390625 400 599.700195312 366.599609375 599.700195312 333.299804688 c 2
 599.700195312 0 l 1
 466.599609375 0 l 1xbc
 466.599609375 333.299804688 l 1
 199.700195312 333.299804688 l 1
EndSplineSet
Validated: 1
EndChar

StartChar: s
Encoding: 83 115 83
Width: 666
VWidth: 0
Flags: W
HStem: 0 133.3<199.7 466.3> 333.3 133.4<199.7 466.3> 666.7 133.3<199.7 466.3>
VStem: 66.4004 133.3<133.3 200 466.7 666.7> 466.3 133.3<133.3 333.3 600 666.7>
CounterMasks: 1 e0
LayerCount: 2
Back
Fore
SplineSet
499.599609375 800 m 2
 549.599609375 800 599.599609375 750 599.599609375 700 c 2
 599.599609375 600 l 1
 466.299804688 600 l 1
 466.299804688 666.700195312 l 1
 199.700195312 666.700195312 l 1
 199.700195312 466.700195312 l 1
 499.700195312 466.700195312 l 2
 549.599609375 466.599609375 599.599609375 416.700195312 599.599609375 366.700195312 c 2
 599.599609375 100 l 2
 599.599609375 50 549.700195312 0 499.700195312 0 c 2
 166.400390625 0 l 2
 116.400390625 0 66.400390625 50 66.400390625 100 c 2
 66.400390625 200 l 1
 199.700195312 200 l 1
 199.700195312 133.299804688 l 1
 466.299804688 133.299804688 l 1
 466.299804688 333.299804688 l 1
 166.299804688 333.299804688 l 2
 116.400390625 333.400390625 66.400390625 383.299804688 66.400390625 433.299804688 c 2
 66.400390625 700 l 2
 66.400390625 750 116.299804688 800 166.299804688 800 c 2
 499.599609375 800 l 2
EndSplineSet
Validated: 1
EndChar

StartChar: t
Encoding: 84 116 84
Width: 666
VWidth: 0
Flags: W
HStem: 0 21G<266.3 399.7> 0 21G<266.3 399.7> 666.7 133.3<66.4004 266.3 399.7 599.7>
VStem: 266.3 133.4<0 666.7>
LayerCount: 2
Back
Fore
SplineSet
66.400390625 666.700195312 m 1xb0
 66.400390625 800 l 1
 599.700195312 800 l 1
 599.700195312 666.700195312 l 1
 399.700195312 666.700195312 l 1
 399.700195312 0 l 1
 266.299804688 0 l 1
 266.299804688 666.700195312 l 1
 66.400390625 666.700195312 l 1xb0
EndSplineSet
Validated: 1
EndChar

StartChar: u
Encoding: 85 117 85
Width: 666
VWidth: 0
Flags: W
HStem: 0 133.3<199.8 466.4> 780 20G<66.4972 199.8 466.4 599.7> 780 20G<66.4972 199.8 466.4 599.7>
VStem: 66.4004 133.399<133.3 800> 466.4 133.3<133.3 800>
LayerCount: 2
Back
Fore
SplineSet
466.400390625 133.299804688 m 1xd8
 466.400390625 800 l 1
 599.700195312 800 l 1
 599.700195312 100 l 2
 599.700195312 50 549.700195312 0 499.700195312 0 c 2
 166.400390625 0 l 2
 116.400390625 0 66.400390625 50 66.400390625 100 c 2
 66.5 800 l 1
 199.799804688 800 l 1
 199.799804688 133.299804688 l 1
 466.400390625 133.299804688 l 1xd8
EndSplineSet
Validated: 1
EndChar

StartChar: v
Encoding: 86 118 86
Width: 666
VWidth: 0
Flags: W
HStem: 0 21G<261.4 404.7> 0 21G<261.4 404.7> 780 20G<66.4004 204.699 461.398 599.7> 780 20G<66.4004 204.699 461.398 599.7>
LayerCount: 2
Back
Fore
SplineSet
399.700195312 0 m 1xa0
 266.400390625 0 l 1
 66.400390625 800 l 1
 199.700195312 800 l 1
 333 266.700195312 l 1
 466.400390625 800 l 1
 599.700195312 800 l 1
 399.700195312 0 l 1xa0
EndSplineSet
Validated: 1
EndChar

StartChar: w
Encoding: 87 119 87
Width: 666
VWidth: 0
Flags: W
HStem: 0 21G<66.4004 209.753 456.34 599.7> 0 21G<66.4004 209.753 456.34 599.7> 780 20G<66.4004 199.7 466.4 599.7> 780 20G<66.4004 199.7 466.4 599.7>
VStem: 66.4004 133.3<266.7 800> 466.4 133.3<266.7 800>
LayerCount: 2
Back
Fore
SplineSet
466.400390625 266.700195312 m 1xac
 466.400390625 800 l 1
 599.700195312 800 l 1
 599.700195312 0 l 1
 466.400390625 0 l 1
 333 265.200195312 l 1
 199.700195312 0 l 1
 66.400390625 0 l 1
 66.400390625 800 l 1
 199.700195312 800 l 1
 199.700195312 266.700195312 l 1
 266.200195312 399.599609375 l 1
 266 400 l 1
 400.099609375 400 l 1
 399.900390625 399.599609375 l 1
 466.400390625 266.700195312 l 1xac
EndSplineSet
Validated: 1
EndChar

StartChar: x
Encoding: 88 120 88
Width: 666
VWidth: 0
Flags: W
HStem: 0 21G<66.4004 209.696 456.397 599.7> 0 21G<66.4004 209.696 456.397 599.7> 780 20G<66.4004 209.696 456.397 599.7> 780 20G<66.4004 209.696 456.397 599.7>
LayerCount: 2
Back
Fore
SplineSet
466.400390625 800 m 1xa0
 599.700195312 800 l 1
 399.700195312 400 l 1
 599.700195312 0 l 1
 466.400390625 0 l 1
 333 266.700195312 l 1
 199.700195312 0 l 1
 66.400390625 0 l 1
 266.400390625 400 l 1
 66.400390625 800 l 1
 199.700195312 800 l 1
 333 533.299804688 l 1
 466.400390625 800 l 1xa0
EndSplineSet
Validated: 1
EndChar

StartChar: y
Encoding: 89 121 89
Width: 666
VWidth: 0
Flags: W
HStem: 0 21G<266.4 399.7> 0 21G<266.4 399.7> 780 20G<66.4004 209.696 456.397 599.7> 780 20G<66.4004 209.696 456.397 599.7>
VStem: 266.4 133.3<0 400>
LayerCount: 2
Back
Fore
SplineSet
266.400390625 0 m 1xa8
 266.400390625 400 l 1
 66.400390625 800 l 1
 199.700195312 800 l 1
 333 533.299804688 l 1
 466.400390625 800 l 1
 599.700195312 800 l 1
 399.700195312 400 l 1
 399.700195312 0 l 1
 266.400390625 0 l 1xa8
EndSplineSet
Validated: 1
EndChar

StartChar: z
Encoding: 90 122 90
Width: 666
VWidth: 0
Flags: W
HStem: 0 133.3<233 599.7> 666.7 133.3<66.2998 433>
LayerCount: 2
Back
Fore
SplineSet
66.2998046875 666.700195312 m 1
 66.2998046875 800 l 1
 599.700195312 800 l 1
 599.700195312 666.700195312 l 1
 233 133.299804688 l 1
 599.700195312 133.299804688 l 1
 599.700195312 0 l 1
 66.2998046875 0 l 1
 66.2998046875 133.299804688 l 1
 433 666.700195312 l 1
 66.2998046875 666.700195312 l 1
EndSplineSet
Validated: 1
EndChar

StartChar: braceleft
Encoding: 91 123 91
Width: 666
VWidth: 0
Flags: W
HStem: 0 133.3<399.7 466.4> 333.4 133.3<199.7 266.4> 666.7 133.3<399.7 466.4>
VStem: 266.4 200<42.4149 133.3 666.7 757.585> 266.4 133.3<133.3 333.4 466.7 666.7>
LayerCount: 2
Back
Fore
SplineSet
266.400390625 333.299804688 m 1xe8
 266.400390625 333.400390625 l 1
 199.700195312 333.400390625 l 1
 199.700195312 466.700195312 l 1
 266.400390625 466.700195312 l 1xe8
 266.400390625 700 l 2
 266.400390625 750 316.400390625 800 366.400390625 800 c 2
 466.400390625 800 l 1
 466.400390625 666.700195312 l 1xf0
 399.700195312 666.700195312 l 1
 399.700195312 466.700195312 l 2
 399.700195312 433.299804688 366.299804688 400 333 400 c 1
 366.400390625 400 399.700195312 366.599609375 399.700195312 333.299804688 c 2
 399.700195312 133.299804688 l 1xe8
 466.400390625 133.299804688 l 1
 466.400390625 0 l 1
 366.400390625 0 l 2
 316.400390625 0 266.400390625 50 266.400390625 100 c 2xf0
 266.400390625 333.299804688 l 1xe8
EndSplineSet
Validated: 1
EndChar

StartChar: bar
Encoding: 92 124 92
Width: 666
VWidth: 0
Flags: W
HStem: 0 21G<266.3 399.6> 0 21G<266.3 399.6> 780 20G<266.3 399.6> 780 20G<266.3 399.6>
VStem: 266.3 133.3<0 800>
LayerCount: 2
Back
Fore
SplineSet
266.299804688 0 m 1xa8
 266.299804688 800 l 1
 399.599609375 800 l 1
 399.599609375 0 l 1
 266.299804688 0 l 1xa8
EndSplineSet
Validated: 1
EndChar

StartChar: braceright
Encoding: 93 125 93
Width: 666
VWidth: 0
Flags: W
HStem: 0 133.3<199.7 266.4> 333.4 133.3<399.7 466.4> 666.7 133.3<199.7 266.4>
VStem: 199.7 200<42.4149 133.3 666.7 757.585> 266.4 133.3<133.3 333.4 466.7 666.7>
LayerCount: 2
Back
Fore
SplineSet
399.700195312 333.299804688 m 1xe8
 399.700195312 100 l 2
 399.700195312 50 349.700195312 0 299.700195312 0 c 2
 199.700195312 0 l 1
 199.700195312 133.299804688 l 1xf0
 266.400390625 133.299804688 l 1
 266.400390625 333.299804688 l 2
 266.400390625 366.599609375 299.700195312 400 333.100585938 400 c 1
 299.80078125 400 266.400390625 433.299804688 266.400390625 466.700195312 c 2
 266.400390625 666.700195312 l 1xe8
 199.700195312 666.700195312 l 1
 199.700195312 800 l 1
 299.700195312 800 l 2
 349.700195312 800 399.700195312 750 399.700195312 700 c 2xf0
 399.700195312 466.700195312 l 1
 466.400390625 466.700195312 l 1
 466.400390625 333.400390625 l 1
 399.700195312 333.400390625 l 1
 399.700195312 333.299804688 l 1xe8
EndSplineSet
Validated: 1
EndChar

StartChar: asciitilde
Encoding: 94 126 94
Width: 666
VWidth: 0
Flags: W
HStem: 666.7 133.3<66.4004 599.7>
LayerCount: 2
Back
Fore
SplineSet
66.400390625 666.700195312 m 1
 66.400390625 800 l 1
 599.700195312 800 l 1
 599.700195312 666.700195312 l 1
 66.400390625 666.700195312 l 1
EndSplineSet
Validated: 1
EndChar

StartChar: exclamdown
Encoding: 95 161 95
Width: 666
VWidth: 0
Flags: W
HStem: -0.0996094 21G<266.5 399.8> -0.0996094 21G<266.5 399.8> 599.9 200.1<253.862 412.275>
VStem: 233 200.1<620.763 779.138> 266.5 133.3<-0.0996094 466.601>
LayerCount: 2
Back
Fore
SplineSet
266.5 466.600585938 m 1xa8
 299.799804688 533.200195312 l 1
 366.5 533.200195312 l 1
 399.799804688 466.600585938 l 1
 399.799804688 -0.099609375 l 1
 266.5 -0.099609375 l 1
 266.5 466.600585938 l 1xa8
433.099609375 666.600585938 m 2x30
 433.099609375 633.200195312 399.799804688 599.900390625 366.399414062 599.900390625 c 2
 299.69921875 599.900390625 l 2
 266.299804688 599.900390625 233 633.30078125 233 666.600585938 c 2
 233 733.30078125 l 2
 233 766.700195312 266.399414062 800 299.69921875 800 c 2
 366.399414062 800 l 2
 399.799804688 800 433.099609375 766.600585938 433.099609375 733.30078125 c 2
 433.099609375 666.600585938 l 2x30
EndSplineSet
Validated: 1
EndChar

StartChar: cent
Encoding: 96 162 96
Width: 666
VWidth: 0
Flags: W
HStem: 0 21G<266.3 399.6> 0 21G<266.3 399.6> 133.4 133.199<199.4 266.3 399.6 466.3> 533.3 133.4<199.4 266.3 399.6 466.3> 780 20G<266.3 399.6> 780 20G<266.3 399.6>
VStem: 66.2998 133.101<266.6 533.3> 266.3 133.3<0 133.3 666.7 800> 466.3 133.3<266.6 333.3 466.6 533.3>
LayerCount: 2
Back
Fore
SplineSet
599.599609375 466.700195312 m 1xbb80
 599.599609375 466.599609375 l 1
 466.299804688 466.599609375 l 1
 466.299804688 533.299804688 l 1
 199.400390625 533.299804688 l 1
 199.400390625 266.599609375 l 1
 466.299804688 266.599609375 l 1
 466.299804688 333.299804688 l 1
 599.599609375 333.299804688 l 1
 599.599609375 233.299804688 l 2
 599.599609375 183.299804688 549.599609375 133.299804688 499.599609375 133.299804688 c 2
 399.599609375 133.299804688 l 1
 399.599609375 0 l 1
 266.299804688 0 l 1
 266.299804688 133.400390625 l 1
 166.299804688 133.400390625 l 2
 116.299804688 133.400390625 66.2998046875 183.400390625 66.2998046875 233.400390625 c 2
 66.2998046875 566.700195312 l 2
 66.2998046875 616.700195312 116.299804688 666.700195312 166.299804688 666.700195312 c 2
 266.299804688 666.700195312 l 1
 266.299804688 800 l 1
 399.599609375 800 l 1
 399.599609375 666.700195312 l 1
 499.599609375 666.700195312 l 2
 549.599609375 666.700195312 599.599609375 616.700195312 599.599609375 566.700195312 c 2
 599.599609375 466.700195312 l 1xbb80
EndSplineSet
Validated: 1
EndChar

StartChar: sterling
Encoding: 97 163 97
Width: 666
VWidth: 0
Flags: W
HStem: 0 133.3<66.4004 133.1 266.4 466.4> 333.4 133.3<66.4004 133.1 266.4 333.1> 666.7 133.3<266.4 333.1>
VStem: 133.1 133.301<133.4 333.3 466.7 666.7> 466.4 133.3<133.3 200>
LayerCount: 2
Back
Fore
SplineSet
466.400390625 200 m 1
 599.700195312 200 l 1
 599.700195312 100 l 2
 599.700195312 50 549.700195312 0 499.700195312 0 c 2
 66.400390625 0 l 1
 66.400390625 133.400390625 l 1
 133.099609375 133.400390625 l 1
 133.099609375 333.400390625 l 1
 66.400390625 333.400390625 l 1
 66.400390625 466.700195312 l 1
 133.099609375 466.700195312 l 1
 133.099609375 700 l 2
 133.099609375 750 183.099609375 800 233.099609375 800 c 2
 333.099609375 800 l 1
 333.099609375 666.700195312 l 1
 266.400390625 666.700195312 l 1
 266.400390625 466.700195312 l 1
 333.099609375 466.700195312 l 1
 333.099609375 333.299804688 l 1
 266.400390625 333.299804688 l 1
 266.400390625 133.299804688 l 1
 466.400390625 133.299804688 l 1
 466.400390625 200 l 1
EndSplineSet
Validated: 1
EndChar

StartChar: currency
Encoding: 98 164 98
Width: 666
VWidth: 0
Flags: W
HStem: 133.3 66.7002<266.4 399.7> 266.7 66.7002<133 199.7 266.4 399.7 466.4 533> 366.6 66.7002<299.7 366.4> 466.7 66.5996<133 199.7 266.4 399.7 466.4 533> 600 66.7002<266.4 399.7>
VStem: 66.2998 66.7002<333.4 466.7> 199.7 66.7002<200 266.6 333.4 466.7 533.3 600> 299.7 66.7002<366.6 433.3> 399.7 66.7002<200 266.7 333.4 466.7 533.3 600> 533 66.7002<333.4 466.7>
LayerCount: 2
Back
Fore
SplineSet
299.700195312 366.599609375 m 1
 299.700195312 433.299804688 l 1
 366.400390625 433.299804688 l 1
 366.400390625 366.599609375 l 1
 299.700195312 366.599609375 l 1
533 533.299804688 m 2
 566.299804688 533.299804688 599.700195312 500 599.700195312 466.700195312 c 2
 599.700195312 333.400390625 l 2
 599.700195312 300 566.299804688 266.700195312 533 266.700195312 c 2
 466.400390625 266.700195312 l 1
 466.400390625 200 l 2
 466.400390625 166.599609375 433 133.299804688 399.700195312 133.299804688 c 2
 266.400390625 133.299804688 l 2
 233 133.299804688 199.700195312 166.700195312 199.700195312 200 c 2
 199.700195312 266.599609375 l 1
 133 266.599609375 l 2
 99.599609375 266.599609375 66.2998046875 300 66.2998046875 333.299804688 c 2
 66.2998046875 466.599609375 l 2
 66.2998046875 500 99.7001953125 533.299804688 133 533.299804688 c 2
 199.700195312 533.299804688 l 1
 199.700195312 600 l 2
 199.700195312 633.400390625 233.099609375 666.700195312 266.400390625 666.700195312 c 2
 399.599609375 666.700195312 l 2
 433 666.700195312 466.299804688 633.299804688 466.299804688 600 c 2
 466.299804688 533.299804688 l 1
 533 533.299804688 l 2
266.400390625 600 m 1
 266.400390625 533.299804688 l 1
 399.700195312 533.299804688 l 1
 399.700195312 600 l 1
 266.400390625 600 l 1
399.700195312 466.700195312 m 1
 266.400390625 466.700195312 l 1
 266.400390625 333.400390625 l 1
 399.700195312 333.400390625 l 1
 399.700195312 466.700195312 l 1
133 466.700195312 m 1
 133 333.400390625 l 1
 199.700195312 333.400390625 l 1
 199.700195312 466.700195312 l 1
 133 466.700195312 l 1
399.700195312 200 m 1
 399.700195312 266.700195312 l 1
 266.400390625 266.700195312 l 1
 266.400390625 200 l 1
 399.700195312 200 l 1
466.400390625 466.700195312 m 1
 466.400390625 333.400390625 l 1
 533 333.400390625 l 1
 533 466.700195312 l 1
 466.400390625 466.700195312 l 1
EndSplineSet
Validated: 1
EndChar

StartChar: yen
Encoding: 99 165 99
Width: 666
VWidth: 0
Flags: W
HStem: 0 21G<266.4 399.7> 0 21G<266.4 399.7> 200 133.3<133 266.4 399.7 533> 400 133.3<133 199.7 466.4 533> 780 20G<66.4004 209.696 456.397 599.7> 780 20G<66.4004 209.696 456.397 599.7>
VStem: 266.4 133.3<0 200 333.3 400>
LayerCount: 2
Back
Fore
SplineSet
599.700195312 800 m 1xba
 466.400390625 533.299804688 l 1
 533 533.299804688 l 1
 533 400 l 1
 399.700195312 400 l 1
 399.700195312 333.299804688 l 1
 533 333.299804688 l 1
 533 200 l 1
 399.700195312 200 l 1
 399.700195312 0 l 1
 266.400390625 0 l 1
 266.400390625 200 l 1
 133 200 l 1
 133 333.299804688 l 1
 266.400390625 333.299804688 l 1
 266.400390625 400 l 1
 133 400 l 1
 133 533.299804688 l 1
 199.700195312 533.299804688 l 1
 66.400390625 800 l 1
 199.700195312 800 l 1
 333 533.299804688 l 1
 466.400390625 800 l 1
 599.700195312 800 l 1xba
EndSplineSet
Validated: 1
EndChar

StartChar: brokenbar
Encoding: 100 166 100
Width: 666
VWidth: 0
Flags: W
HStem: 0 21G<266.6 399.9> 0 21G<266.6 399.9> 780 20G<266.6 399.9> 780 20G<266.6 399.9>
VStem: 266.6 133.301<0 266.7 533.3 800>
LayerCount: 2
Back
Fore
SplineSet
266.599609375 0 m 1x88
 266.599609375 266.700195312 l 1
 399.900390625 266.700195312 l 1
 399.900390625 0 l 1
 266.599609375 0 l 1x88
266.599609375 533.299804688 m 1
 266.599609375 800 l 1
 399.900390625 800 l 1x28
 399.900390625 533.299804688 l 1
 266.599609375 533.299804688 l 1
EndSplineSet
Validated: 1
EndChar

StartChar: section
Encoding: 101 167 101
Width: 666
VWidth: 0
Flags: W
HStem: 0 133.3<199.7 466.4> 233.3 133.4<200.7 466.4> 433.4 133.3<200.7 466.4> 666.7 133.3<199.7 466.4>
VStem: 66.4004 133.3<133.3 200 366.7 433.4 566.7 666.7> 466.4 133.3<133.3 233.3 366.7 433.4 600 666.7>
LayerCount: 2
Back
Fore
SplineSet
200.700195312 366.700195312 m 1
 466.400390625 366.700195312 l 1
 466.400390625 433.400390625 l 1
 200.700195312 433.400390625 l 1
 200.700195312 366.700195312 l 1
599.700195312 600 m 1
 466.400390625 600 l 1
 466.400390625 666.700195312 l 1
 199.700195312 666.700195312 l 1
 199.700195312 566.700195312 l 1
 499.700195312 566.700195312 l 2
 549.700195312 566.700195312 599.700195312 516.700195312 599.700195312 466.700195312 c 2
 599.700195312 366.700195312 l 2
 599.700195312 333.299804688 566.299804688 300 533 300 c 1
 566.400390625 300 599.700195312 266.599609375 599.700195312 233.299804688 c 2
 599.700195312 100 l 2
 599.700195312 50 549.700195312 0 499.700195312 0 c 2
 166.400390625 0 l 2
 116.400390625 0 66.400390625 50 66.400390625 100 c 2
 66.400390625 200 l 1
 199.700195312 200 l 1
 199.700195312 133.299804688 l 1
 466.400390625 133.299804688 l 1
 466.400390625 233.299804688 l 1
 166.400390625 233.299804688 l 2
 116.400390625 233.299804688 66.400390625 283.299804688 66.400390625 333.299804688 c 2
 66.400390625 433.299804688 l 2
 66.400390625 466.700195312 99.7001953125 500 133.099609375 500 c 1
 99.7001953125 500 66.400390625 533.299804688 66.400390625 566.700195312 c 2
 66.400390625 700 l 2
 66.400390625 750 116.400390625 800 166.400390625 800 c 2
 499.700195312 800 l 2
 549.700195312 800 599.700195312 750 599.700195312 700 c 2
 599.700195312 600 l 1
EndSplineSet
Validated: 1
EndChar

StartChar: dieresis
Encoding: 102 168 102
Width: 666
VWidth: 0
Flags: W
HStem: 666.7 133.3<66.4004 199.7 466.4 599.7>
VStem: 66.4004 133.3<666.7 800> 466.4 133.3<666.7 800>
LayerCount: 2
Back
Fore
SplineSet
466.400390625 666.700195312 m 1
 466.400390625 800 l 1
 599.700195312 800 l 1
 599.700195312 666.700195312 l 1
 466.400390625 666.700195312 l 1
66.400390625 666.700195312 m 1
 66.400390625 800 l 1
 199.700195312 800 l 1
 199.700195312 666.700195312 l 1
 66.400390625 666.700195312 l 1
EndSplineSet
Validated: 1
EndChar

StartChar: copyright
Encoding: 103 169 103
Width: 666
VWidth: 0
Flags: W
HStem: 0 21G<379.585 599.6> 0 21G<379.585 599.6> 133.3 133.4<199.7 266.2> 666.7 133.3<199.7 466.4>
VStem: 66.2998 133.4<266.7 666.7> 466.4 133.3<266.7 666.7>
LayerCount: 2
Back
Fore
SplineSet
466.400390625 266.700195312 m 1x3c
 466.400390625 666.700195312 l 1
 199.700195312 666.700195312 l 1
 199.700195312 266.700195312 l 1
 466.400390625 266.700195312 l 1x3c
599.700195312 233.299804688 m 2
 599.700195312 183.299804688 549.700195312 133.299804688 499.700195312 133.299804688 c 2
 466.400390625 133.299804688 l 1
 599.599609375 0 l 1
 399.599609375 0 l 1xbc
 266.200195312 133.299804688 l 1
 166.299804688 133.299804688 l 2
 116.299804688 133.299804688 66.2998046875 183.299804688 66.2998046875 233.299804688 c 2
 66.2998046875 700 l 2
 66.2998046875 750 116.299804688 800 166.299804688 800 c 2
 499.700195312 800 l 2
 549.700195312 800 599.700195312 750 599.700195312 700 c 2
 599.700195312 233.299804688 l 2
EndSplineSet
Validated: 1
EndChar

StartChar: ordfeminine
Encoding: 104 170 104
Width: 666
VWidth: 0
Flags: W
HStem: 200 133.3<132.1 532.1> 466.7 66.5996<309.9 354.3> 780 20G<258.735 405.365> 780 20G<258.735 405.365>
LayerCount: 2
Back
Fore
SplineSet
354.299804688 533.299804688 m 1xc0
 332.099609375 600 l 1
 309.900390625 533.299804688 l 1
 354.299804688 533.299804688 l 1xc0
287.599609375 466.700195312 m 1
 265.400390625 400 l 1
 132.099609375 400 l 1
 265.400390625 800 l 1
 398.700195312 800 l 1xe0
 532 400 l 1
 398.700195312 400 l 1
 376.5 466.700195312 l 1
 287.599609375 466.700195312 l 1
132.099609375 200 m 1
 132.099609375 333.299804688 l 1
 532.099609375 333.299804688 l 1
 532.099609375 200 l 1
 132.099609375 200 l 1
EndSplineSet
Validated: 1
EndChar

StartChar: guillemotleft
Encoding: 105 171 105
Width: 666
VWidth: 0
Flags: W
LayerCount: 2
Back
Fore
SplineSet
599.700195312 733.299804688 m 1
 599.700195312 566.700195312 l 1
 421.900390625 400 l 1
 599.700195312 233.299804688 l 1
 599.700195312 66.7001953125 l 1
 333 316.700195312 l 1
 333 483.299804688 l 1
 599.700195312 733.299804688 l 1
333 566.700195312 m 1
 155.200195312 400 l 1
 333 233.299804688 l 1
 333 66.7001953125 l 1
 66.2998046875 316.700195312 l 1
 66.2998046875 483.299804688 l 1
 333 733.299804688 l 1
 333 566.700195312 l 1
EndSplineSet
Validated: 1
EndChar

StartChar: logicalnot
Encoding: 106 172 106
Width: 666
VWidth: 0
Flags: W
HStem: 266.8 199.9<466.5 599.8> 333.4 133.3<66.4004 466.5>
VStem: 466.5 133.3<266.8 333.4>
LayerCount: 2
Back
Fore
SplineSet
599.799804688 466.700195312 m 1xa0
 599.799804688 266.799804688 l 1
 466.5 266.799804688 l 1xa0
 466.5 333.400390625 l 1
 66.400390625 333.400390625 l 1
 66.400390625 466.700195312 l 1x60
 599.799804688 466.700195312 l 1xa0
EndSplineSet
Validated: 1
EndChar

StartChar: uni00AD
Encoding: 107 173 107
Width: 666
VWidth: 0
Flags: W
HStem: 333.4 133.3<133 533>
LayerCount: 2
Back
Fore
SplineSet
133 333.400390625 m 1
 133 466.700195312 l 1
 533 466.700195312 l 1
 533 333.400390625 l 1
 133 333.400390625 l 1
EndSplineSet
Validated: 1
EndChar

StartChar: registered
Encoding: 108 174 108
Width: 666
VWidth: 0
Flags: W
HStem: 0 21G<66.4004 199.7 419.256 599.7> 0 21G<66.4004 199.7 419.256 599.7> 780 20G<66.4004 199.7 419.468 599.7> 780 20G<66.4004 199.7 419.468 599.7>
VStem: 66.4004 133.3<0 200 450.3 800>
LayerCount: 2
Back
Fore
SplineSet
599.700195312 800 m 1xa8
 328.900390625 393.799804688 l 1
 599.700195312 0 l 1
 433 0 l 1
 246.900390625 270.799804688 l 1
 199.700195312 200 l 1
 199.700195312 0 l 1
 66.400390625 0 l 1
 66.400390625 800 l 1
 199.700195312 800 l 1
 199.700195312 450.299804688 l 1
 432.799804688 800 l 1
 599.700195312 800 l 1xa8
EndSplineSet
Validated: 1
EndChar

StartChar: macron
Encoding: 109 175 109
Width: 666
VWidth: 0
Flags: W
HStem: 666.7 133.3<66.4004 599.7>
LayerCount: 2
Back
Fore
SplineSet
66.400390625 666.700195312 m 1
 66.400390625 800 l 1
 599.700195312 800 l 1
 599.700195312 666.700195312 l 1
 66.400390625 666.700195312 l 1
EndSplineSet
Validated: 1
EndChar

StartChar: degree
Encoding: 110 176 110
Width: 666
VWidth: 0
Flags: W
HStem: 400 133.4<266.4 399.7> 666.7 133.3<266.4 399.7>
VStem: 133 133.4<533.4 666.7> 399.7 133.3<533.4 666.7>
LayerCount: 2
Back
Fore
SplineSet
266.400390625 666.700195312 m 1
 266.400390625 533.400390625 l 1
 399.700195312 533.400390625 l 1
 399.700195312 666.700195312 l 1
 266.400390625 666.700195312 l 1
533 700 m 2
 533 500 l 2
 533 450 483 400 433 400 c 2
 233 400 l 2
 183 400 133 450 133 500 c 2
 133 700 l 2
 133 750 183 800 233 800 c 2
 433 800 l 2
 483 800 533 750 533 700 c 2
EndSplineSet
Validated: 1
EndChar

StartChar: plusminus
Encoding: 111 177 111
Width: 666
VWidth: 0
Flags: W
HStem: 0 133.3<66.4004 599.7> 400 133.3<66.4004 266.4 399.6 599.7>
VStem: 266.4 133.199<200 400 533.3 733.3>
LayerCount: 2
Back
Fore
SplineSet
399.599609375 733.299804688 m 1
 399.599609375 533.299804688 l 1
 599.700195312 533.299804688 l 1
 599.700195312 400 l 1
 399.599609375 400 l 1
 399.599609375 200 l 1
 266.400390625 200 l 1
 266.400390625 400 l 1
 66.400390625 400 l 1
 66.400390625 533.299804688 l 1
 266.400390625 533.299804688 l 1
 266.400390625 733.299804688 l 1
 399.599609375 733.299804688 l 1
66.400390625 0 m 1
 66.400390625 133.299804688 l 1
 599.700195312 133.299804688 l 1
 599.700195312 0 l 1
 66.400390625 0 l 1
EndSplineSet
Validated: 1
EndChar

StartChar: NameMe.224
Encoding: 112 8776 112
Width: 666
VWidth: 0
Flags: W
HStem: 166.7 133.3<399.6 466.3> 233.4 133.3<199.6 266.3> 433.3 133.3<399.6 466.3> 500 133.3<199.6 266.3>
VStem: 66.2998 133.3<166.7 233.4 433.3 500> 466.3 133.4<300 366.7 566.6 633.3>
LayerCount: 2
Back
Fore
SplineSet
599.5 366.700195312 m 1x4c
 599.700195312 266.700195312 l 2
 599.700195312 216.700195312 549.700195312 166.700195312 499.700195312 166.700195312 c 2
 333 166.700195312 l 2x8c
 299.599609375 166.700195312 266.299804688 200.099609375 266.299804688 233.400390625 c 1
 199.599609375 233.400390625 l 1x4c
 199.599609375 166.700195312 l 1
 66.2998046875 166.700195312 l 1x8c
 66.2998046875 266.700195312 l 2
 66.2998046875 316.700195312 116.299804688 366.700195312 166.299804688 366.700195312 c 2
 332.900390625 366.700195312 l 2x4c
 366.299804688 366.700195312 399.599609375 333.299804688 399.599609375 300 c 1
 466.299804688 300 l 1x8c
 466.299804688 366.700195312 l 1
 599.5 366.700195312 l 1x4c
599.5 633.299804688 m 1x1c
 599.700195312 533.299804688 l 2
 599.700195312 483.299804688 549.700195312 433.299804688 499.700195312 433.299804688 c 2
 333 433.299804688 l 2x2c
 299.599609375 433.299804688 266.299804688 466.700195312 266.299804688 500 c 1
 199.599609375 500 l 1x1c
 199.599609375 433.299804688 l 1
 66.2998046875 433.299804688 l 1x2c
 66.2998046875 533.299804688 l 2
 66.2998046875 583.299804688 116.299804688 633.299804688 166.299804688 633.299804688 c 2
 332.900390625 633.299804688 l 2x1c
 366.299804688 633.299804688 399.599609375 599.900390625 399.599609375 566.599609375 c 1
 466.299804688 566.599609375 l 1x2c
 466.299804688 633.299804688 l 1
 599.5 633.299804688 l 1x1c
EndSplineSet
Validated: 1
EndChar

StartChar: NameMe.225
Encoding: 113 8260 113
Width: 666
VWidth: 0
Flags: W
HStem: 0 21G<66.4004 225.983> 0 21G<66.4004 225.983> 780 20G<440.118 599.7> 780 20G<440.118 599.7>
LayerCount: 2
Back
Fore
SplineSet
66.400390625 0 m 1xa0
 449.700195312 800 l 1
 599.700195312 800 l 1
 216.400390625 0 l 1
 66.400390625 0 l 1xa0
EndSplineSet
Validated: 1
EndChar

StartChar: acute
Encoding: 114 180 114
Width: 666
VWidth: 0
Flags: W
HStem: 666.7 133.3<399.7 466.4>
LayerCount: 2
Back
Fore
SplineSet
266.400390625 666.700195312 m 1
 399.700195312 800 l 1
 599.700195312 800 l 1
 466.400390625 666.700195312 l 1
 266.400390625 666.700195312 l 1
EndSplineSet
Validated: 1
EndChar

StartChar: mu
Encoding: 115 181 115
Width: 666
VWidth: 0
Flags: W
HStem: 0 133.4<246.37 415.013> 666.6 133.4<250.987 419.628>
VStem: 66.4004 138.8<173.984 266.7 518.396 625.066> 460.8 138.8<174.934 281.581 533.3 626.231>
LayerCount: 2
Back
Fore
SplineSet
513 400 m 0
 562.200195312 364.099609375 599.599609375 311.900390625 599.599609375 233.299804688 c 0
 599.599609375 66.7001953125 466.299804688 0 333 0 c 0
 149.700195312 0 66.400390625 83.2998046875 66.400390625 266.700195312 c 1
 114.400390625 266.700195312 160.099609375 266.700195312 199.700195312 266.700195312 c 1
 199.700195312 175.099609375 241.299804688 133.400390625 333 133.400390625 c 0
 398.5 133.400390625 460.799804688 166.700195312 460.799804688 233.400390625 c 0
 460.799804688 300 366.200195312 323.299804688 333 330 c 0
 280 340.599609375 208.400390625 359.700195312 152.599609375 400 c 0
 103.5 435.5 66.400390625 488.099609375 66.400390625 566.700195312 c 0
 66.400390625 733.299804688 199.700195312 800 333 800 c 0
 516.289801295 800 599.599700356 716.800623584 599.599700356 533.63146349 c 0
 599.599609375 533.299804688 l 1
 551.599609375 533.299804688 505.900390625 533.299804688 466.299804688 533.299804688 c 1
 466.299804688 624.900390625 424.700195312 666.599609375 333 666.599609375 c 0
 267.5 666.599609375 205.200195312 633.299804688 205.200195312 566.599609375 c 0
 205.200195312 500 299.799804688 476.700195312 333 470 c 0
 386 459.400390625 457.700195312 440.400390625 513 400 c 0
EndSplineSet
Validated: 1
EndChar

StartChar: paragraph
Encoding: 116 182 116
Width: 666
VWidth: 0
Flags: W
HStem: 0 21G<199.7 333 399.7 533> 0 21G<199.7 333 399.7 533> 666.7 133.3<166.4 199.7 333 399.7 533 599.7>
VStem: 66.4004 100<533.3 666.6> 199.7 133.3<0 400 533.3 666.6> 399.7 133.3<0 666.7>
LayerCount: 2
Back
Fore
SplineSet
199.700195312 533.299804688 m 1x3c
 199.700195312 666.599609375 l 1
 166.400390625 666.599609375 l 1
 166.400390625 533.299804688 l 1
 199.700195312 533.299804688 l 1x3c
166.400390625 800 m 2
 599.700195312 800 l 1
 599.700195312 666.700195312 l 1
 533 666.700195312 l 1
 533 0 l 1
 399.700195312 0 l 1
 399.700195312 666.700195312 l 1
 333 666.700195312 l 1
 333 0 l 1
 199.700195312 0 l 1xbc
 199.700195312 400 l 1
 166.400390625 400 l 2
 116.400390625 400 66.400390625 450 66.400390625 500 c 2
 66.400390625 700 l 2
 66.400390625 750 116.400390625 800 166.400390625 800 c 2
EndSplineSet
Validated: 1
EndChar

StartChar: periodcentered
Encoding: 117 183 117
Width: 666
VWidth: 0
Flags: W
HStem: 299.9 200.1<259.425 417.838>
VStem: 238.6 200.101<320.763 479.137>
LayerCount: 2
Back
Fore
SplineSet
238.599609375 433.299804688 m 2
 238.599609375 466.700195312 271.900390625 500 305.299804688 500 c 2
 372 500 l 2
 405.400390625 500 438.700195312 466.599609375 438.700195312 433.299804688 c 2
 438.700195312 366.599609375 l 2
 438.700195312 333.200195312 405.299804688 299.900390625 372 299.900390625 c 2
 305.299804688 299.900390625 l 2
 271.900390625 299.900390625 238.599609375 333.299804688 238.599609375 366.599609375 c 2
 238.599609375 433.299804688 l 2
EndSplineSet
Validated: 1
EndChar

StartChar: cedilla
Encoding: 118 184 118
Width: 666
VWidth: 0
Flags: W
HStem: 0 200.1<399.7 512.237> 0 66.7002<266.4 399.7> 133.4 133.3<266.4 399.7>
VStem: 266.4 133.3<200.1 266.7> 399.7 133.399<66.7002 133.4>
LayerCount: 2
Back
Fore
SplineSet
466.400390625 200.099609375 m 2x90
 499.799804688 200.099609375 533.099609375 166.700195312 533.099609375 133.400390625 c 2
 533.099609375 66.7001953125 l 2x68
 533.099609375 33.2998046875 499.700195312 0 466.400390625 0 c 2x88
 266.400390625 0 l 1
 266.400390625 66.7001953125 l 1x50
 399.700195312 66.7001953125 l 1
 399.700195312 133.400390625 l 1x68
 266.400390625 133.400390625 l 1
 266.400390625 266.700195312 l 1
 399.700195312 266.700195312 l 1x70
 399.700195312 200.099609375 l 1
 466.400390625 200.099609375 l 2x90
EndSplineSet
Validated: 1
EndChar

StartChar: integral
Encoding: 119 8747 119
Width: 666
VWidth: 0
Flags: HMW
LayerCount: 2
Back
Fore
SplineSet
133 267 m 1
 133 333 l 1
 466 333 l 1
 466 267 l 1
 133 267 l 1
533 700 m 1
 466 700 l 1
 466 733 l 1
 400 733 l 1
 400 667 l 1
 483 667 l 2
 508 667 533 642 533 617 c 2
 533 517 l 2
 533 492 508 467 483 467 c 2
 383 467 l 2
 358 467 333 492 333 517 c 2
 333 567 l 1
 400 567 l 1
 400 533 l 1
 466 533 l 1
 466 600 l 1
 383 600 l 2
 358 600 333 625 333 650 c 2
 333 750 l 2
 333 775 358 800 383 800 c 2
 483 800 l 2
 508 800 533 775 533 750 c 2
 533 700 l 1
266 800 m 1
 266 733 l 1
 200 733 l 1
 200 467 l 1
 133 467 l 1
 133 733 l 1
 66 733 l 1
 66 800 l 1
 266 800 l 1
EndSplineSet
Validated: 1
EndChar

StartChar: ordmasculine
Encoding: 120 186 120
Width: 666
VWidth: 0
Flags: W
HStem: 200 133.3<133 533> 400 133.4<266.4 399.7> 666.7 133.3<266.4 399.7>
VStem: 133 133.4<533.4 666.7> 399.7 133.3<533.4 666.7>
LayerCount: 2
Back
Fore
SplineSet
266.400390625 666.700195312 m 1
 266.400390625 533.400390625 l 1
 399.700195312 533.400390625 l 1
 399.700195312 666.700195312 l 1
 266.400390625 666.700195312 l 1
533 700 m 2
 533 500 l 2
 533 450 483 400 433 400 c 2
 233 400 l 2
 183 400 133 450 133 500 c 2
 133 700 l 2
 133 750 183 800 233 800 c 2
 433 800 l 2
 483 800 533 750 533 700 c 2
133 200 m 1
 133 333.299804688 l 1
 533 333.299804688 l 1
 533 200 l 1
 133 200 l 1
EndSplineSet
Validated: 1
EndChar

StartChar: guillemotright
Encoding: 121 187 121
Width: 666
VWidth: 0
Flags: W
LayerCount: 2
Back
Fore
SplineSet
66.2998046875 733.299804688 m 1
 333 483.299804688 l 1
 333 316.700195312 l 1
 66.2998046875 66.7001953125 l 1
 66.2998046875 233.299804688 l 1
 244.099609375 400 l 1
 66.2998046875 566.700195312 l 1
 66.2998046875 733.299804688 l 1
333 566.700195312 m 1
 333 733.299804688 l 1
 599.700195312 483.299804688 l 1
 599.700195312 316.700195312 l 1
 333 66.7001953125 l 1
 333 233.299804688 l 1
 510.799804688 400 l 1
 333 566.700195312 l 1
EndSplineSet
Validated: 1
EndChar

StartChar: onequarter
Encoding: 122 188 122
Width: 666
VWidth: 0
Flags: W
HStem: 0 21G<399.8 533> 0 21G<399.8 533> 133.4 133.3<222.1 399.8 533 599.6> 780 20G<365.929 533> 780 20G<365.929 533>
VStem: 399.9 133.1<0 133.3 266.7 571.5>
LayerCount: 2
Back
Fore
SplineSet
222.099609375 266.700195312 m 1x24
 399.900390625 266.700195312 l 1
 399.900390625 571.5 l 1
 222.099609375 266.700195312 l 1x24
599.599609375 266.700195312 m 1
 599.599609375 133.299804688 l 1
 533 133.299804688 l 1
 533 0 l 1
 399.799804688 0 l 1
 399.799804688 133.400390625 l 1
 66.400390625 133.400390625 l 1
 66.400390625 266.700195312 l 1
 377.599609375 800 l 1
 533 800 l 1xb4
 533 266.700195312 l 1
 599.599609375 266.700195312 l 1
EndSplineSet
Validated: 1
EndChar

StartChar: onehalf
Encoding: 123 189 123
Width: 666
VWidth: 0
Flags: W
HStem: 0 133.3<233 599.6> 666.7 133.3<199.6 466.3>
VStem: 66.2998 133.3<533.3 666.7>
LayerCount: 2
Back
Fore
SplineSet
599.700195312 615.799804688 m 2
 599.700195312 591.5 591.299804688 568.099609375 575.900390625 549.400390625 c 2
 233 133.299804688 l 1
 599.599609375 133.299804688 l 1
 599.599609375 0 l 1
 66.2998046875 0 l 1
 66.2998046875 133.400390625 l 1
 466.299804688 613.400390625 l 1
 466.299804688 666.700195312 l 1
 199.599609375 666.700195312 l 1
 199.599609375 533.299804688 l 1
 66.2998046875 533.299804688 l 1
 66.2998046875 700 l 2
 66.2998046875 755 111.299804688 800 166.299804688 800 c 2
 499.700195312 800 l 2
 554.700195312 800 599.700195312 755 599.700195312 700 c 2
 599.700195312 615.799804688 l 2
EndSplineSet
Validated: 1
EndChar

StartChar: threequarters
Encoding: 124 190 124
Width: 666
VWidth: 0
Flags: W
HStem: 0 133.4<199.6 466.3> 666.7 133.3<199.6 433>
VStem: 66.2998 133.3<133.4 200 533.3 666.7> 466.3 133.3<133.4 333.4>
LayerCount: 2
Back
Fore
SplineSet
599.599609375 800 m 1
 599.599609375 666.700195312 l 1
 432.900390625 466.700195312 l 1
 499.599609375 466.700195312 l 2
 549.599609375 466.700195312 599.599609375 416.700195312 599.599609375 366.700195312 c 2
 599.599609375 100 l 2
 599.599609375 50 549.599609375 0 499.599609375 0 c 2
 166.299804688 0 l 2
 116.299804688 0 66.2998046875 50 66.2998046875 100 c 2
 66.2998046875 200 l 1
 199.599609375 200 l 1
 199.599609375 133.400390625 l 1
 466.299804688 133.400390625 l 1
 466.299804688 333.400390625 l 1
 266.299804688 333.400390625 l 1
 266.299804688 466.700195312 l 1
 433 666.700195312 l 1
 199.599609375 666.700195312 l 1
 199.599609375 533.299804688 l 1
 66.2998046875 533.299804688 l 1
 66.2998046875 800 l 1
 599.599609375 800 l 1
EndSplineSet
Validated: 1
EndChar

StartChar: questiondown
Encoding: 125 191 125
Width: 666
VWidth: 0
Flags: W
HStem: 0 133.3<199.7 466.4> 266.6 133.4<199.7 266.4> 599.9 200.1<253.963 412.338>
VStem: 66.4004 133.3<133.3 266.6> 233.101 200.1<620.763 779.137> 266.4 133.3<400 466.6> 466.4 133.3<133.3 200>
LayerCount: 2
Back
Fore
SplineSet
299.80078125 800 m 2xfa
 366.500976562 800 l 2
 399.900390625 800 433.200195312 766.599609375 433.200195312 733.299804688 c 2
 433.200195312 666.599609375 l 2
 433.200195312 633.200195312 399.80078125 599.900390625 366.500976562 599.900390625 c 2
 299.80078125 599.900390625 l 2
 266.400390625 599.900390625 233.100585938 633.299804688 233.100585938 666.599609375 c 2
 233.100585938 733.299804688 l 2
 233.100585938 766.700195312 266.500976562 800 299.80078125 800 c 2xfa
166.30078125 0 m 2
 116.400390625 0.099609375 66.400390625 50 66.400390625 100 c 2
 66.400390625 300 l 2
 66.400390625 350 116.30078125 400 166.30078125 400 c 2
 266.400390625 400 l 1
 266.400390625 466.599609375 l 1
 299.700195312 533.299804688 l 1
 366.400390625 533.299804688 l 1
 399.700195312 466.599609375 l 1
 399.700195312 366.599609375 l 1xf6
 399.400390625 366.599609375 l 1
 399.400390625 316.700195312 349.500976562 266.700195312 299.600585938 266.599609375 c 2
 199.700195312 266.599609375 l 1
 199.700195312 133.299804688 l 1
 466.400390625 133.299804688 l 1
 466.400390625 200 l 1
 599.700195312 200 l 1
 599.700195312 100 l 2
 599.700195312 50 549.700195312 0 499.700195312 0 c 2
 166.30078125 0 l 2
EndSplineSet
Validated: 1
EndChar

StartChar: Agrave
Encoding: 126 192 126
Width: 666
VWidth: 0
Flags: W
HStem: 0 21G<66.4004 206.357 459.643 599.6> 0 21G<66.4004 206.357 459.643 599.6> 66.7002 133.3<266.4 399.7> 666.7 133.3<199.7 266.4>
LayerCount: 2
Back
Fore
SplineSet
266.400390625 200 m 1x30
 399.700195312 200 l 1
 333 400 l 1
 266.400390625 200 l 1x30
266.400390625 600 m 1
 399.599609375 600 l 1
 599.599609375 0 l 1
 466.299804688 0 l 1
 444.099609375 66.7001953125 l 1
 221.900390625 66.7001953125 l 1
 199.700195312 0 l 1
 66.400390625 0 l 1xb0
 266.400390625 600 l 1
399.700195312 666.700195312 m 1
 199.700195312 666.700195312 l 1
 66.400390625 800 l 1
 266.400390625 800 l 1
 399.700195312 666.700195312 l 1
EndSplineSet
Validated: 1
EndChar

StartChar: Aacute
Encoding: 127 193 127
Width: 666
VWidth: 0
Flags: W
HStem: 0 21G<66.4004 206.357 459.643 599.6> 0 21G<66.4004 206.357 459.643 599.6> 66.7002 133.3<266.4 399.7> 666.7 133.3<399.7 466.4>
LayerCount: 2
Back
Fore
SplineSet
266.400390625 200 m 1x30
 399.700195312 200 l 1
 333 400 l 1
 266.400390625 200 l 1x30
266.400390625 600 m 1
 399.599609375 600 l 1
 599.599609375 0 l 1
 466.299804688 0 l 1
 444.099609375 66.7001953125 l 1
 221.900390625 66.7001953125 l 1
 199.700195312 0 l 1
 66.400390625 0 l 1xb0
 266.400390625 600 l 1
266.400390625 666.700195312 m 1
 399.700195312 800 l 1
 599.700195312 800 l 1
 466.400390625 666.700195312 l 1
 266.400390625 666.700195312 l 1
EndSplineSet
Validated: 1
EndChar

StartChar: Acircumflex
Encoding: 128 194 128
Width: 666
VWidth: 0
Flags: W
HStem: 0 21G<66.4004 206.357 459.643 599.6> 0 21G<66.4004 206.357 459.643 599.6> 66.7002 133.3<266.4 399.7> 666.7 133.3<199.7 266.4 399.7 466.4>
LayerCount: 2
Back
Fore
SplineSet
266.400390625 200 m 1x30
 399.700195312 200 l 1
 333 400 l 1
 266.400390625 200 l 1x30
266.400390625 600 m 1
 399.599609375 600 l 1
 599.599609375 0 l 1
 466.299804688 0 l 1
 444.099609375 66.7001953125 l 1
 221.900390625 66.7001953125 l 1
 199.700195312 0 l 1
 66.400390625 0 l 1xb0
 266.400390625 600 l 1
599.700195312 666.700195312 m 1
 399.700195312 666.700195312 l 1
 333 733.299804688 l 1
 266.400390625 666.700195312 l 1
 66.400390625 666.700195312 l 1
 199.700195312 800 l 1
 466.400390625 800 l 1
 599.700195312 666.700195312 l 1
EndSplineSet
Validated: 1
EndChar

StartChar: Atilde
Encoding: 129 195 129
Width: 666
VWidth: 0
Flags: W
HStem: 0 21G<66.4004 206.357 459.643 599.6> 0 21G<66.4004 206.357 459.643 599.6> 66.7002 133.3<266.4 399.7> 666.7 133.3<66.4004 599.7>
LayerCount: 2
Back
Fore
SplineSet
266.400390625 200 m 1x30
 399.700195312 200 l 1
 333 400 l 1
 266.400390625 200 l 1x30
266.400390625 600 m 1
 399.599609375 600 l 1
 599.599609375 0 l 1
 466.299804688 0 l 1
 444.099609375 66.7001953125 l 1
 221.900390625 66.7001953125 l 1
 199.700195312 0 l 1
 66.400390625 0 l 1xb0
 266.400390625 600 l 1
66.400390625 666.700195312 m 1
 66.400390625 800 l 1
 599.700195312 800 l 1
 599.700195312 666.700195312 l 1
 66.400390625 666.700195312 l 1
EndSplineSet
Validated: 1
EndChar

StartChar: Adieresis
Encoding: 130 196 130
Width: 666
VWidth: 0
Flags: W
HStem: 0 21G<66.4004 206.357 459.643 599.6> 0 21G<66.4004 206.357 459.643 599.6> 66.7002 133.3<266.4 399.7> 666.7 133.3<66.4004 199.7 466.4 599.7>
VStem: 66.4004 133.3<666.7 800> 466.4 133.3<666.7 800>
LayerCount: 2
Back
Fore
SplineSet
266.400390625 200 m 1x3c
 399.700195312 200 l 1
 333 400 l 1
 266.400390625 200 l 1x3c
266.400390625 600 m 1
 399.599609375 600 l 1
 599.599609375 0 l 1
 466.299804688 0 l 1
 444.099609375 66.7001953125 l 1
 221.900390625 66.7001953125 l 1
 199.700195312 0 l 1
 66.400390625 0 l 1xbc
 266.400390625 600 l 1
466.400390625 666.700195312 m 1
 466.400390625 800 l 1
 599.700195312 800 l 1
 599.700195312 666.700195312 l 1
 466.400390625 666.700195312 l 1
66.400390625 666.700195312 m 1
 66.400390625 800 l 1
 199.700195312 800 l 1
 199.700195312 666.700195312 l 1
 66.400390625 666.700195312 l 1
EndSplineSet
Validated: 1
EndChar

StartChar: Aring
Encoding: 131 197 131
Width: 666
VWidth: 0
Flags: W
HStem: -0.0996094 21G<66.4004 206.357 459.643 599.6> -0.0996094 21G<66.4004 206.357 459.643 599.6> 66.5996 133.4<266.4 399.7> 733.3 66.7002<299.7 366.4>
VStem: 233 66.7002<666.6 733.3> 366.4 66.6992<666.6 733.3>
LayerCount: 2
Back
Fore
SplineSet
266.400390625 200 m 1x3c
 399.700195312 200 l 1
 333 400 l 1
 266.400390625 200 l 1x3c
299.700195312 733.299804688 m 1
 299.700195312 666.599609375 l 1
 366.400390625 666.599609375 l 1
 366.400390625 733.299804688 l 1
 299.700195312 733.299804688 l 1
399.700195312 600 m 1
 599.599609375 -0.099609375 l 1
 466.299804688 -0.099609375 l 1
 444.099609375 66.599609375 l 1
 221.900390625 66.599609375 l 1
 199.700195312 -0.099609375 l 1
 66.400390625 -0.099609375 l 1xbc
 266.400390625 599.900390625 l 1
 299.700195312 599.900390625 l 2
 266.299804688 599.900390625 233 633.299804688 233 666.599609375 c 2
 233 733.299804688 l 2
 233 766.700195312 266.400390625 800 299.700195312 800 c 2
 366.400390625 800 l 2
 399.700195312 800 433 766.700195312 433.099609375 733.299804688 c 2
 433.099609375 666.700195312 l 2
 433.099609375 633.299804688 399.700195312 600 366.400390625 600 c 2
 399.700195312 600 l 1
EndSplineSet
Validated: 1
EndChar

StartChar: AE
Encoding: 132 198 132
Width: 666
VWidth: 0
Flags: W
HStem: 0 133.3<466.4 599.7> 133.3 133.4<266.4 333> 336.1 133.301<466.4 549.7> 666.7 133.3<466.4 599.7>
VStem: 333.1 216.601<336.1 469.4> 333.1 133.301<266.7 336.1 469.4 533.4>
LayerCount: 2
Back
Fore
SplineSet
266.400390625 266.700195312 m 1x74
 333.099609375 266.700195312 l 1
 333.099609375 533.400390625 l 1
 266.400390625 266.700195312 l 1x74
599.700195312 666.700195312 m 1
 466.400390625 666.700195312 l 1
 466.400390625 469.400390625 l 1xb4
 549.700195312 469.400390625 l 1
 549.700195312 336.099609375 l 1xb8
 466.400390625 336.099609375 l 1
 466.400390625 133.299804688 l 1
 599.700195312 133.299804688 l 1
 599.700195312 0 l 1
 333 0 l 1xb4
 333 133.299804688 l 1
 233 133.299804688 l 1x74
 199.700195312 0 l 1
 66.400390625 0 l 1xb4
 266.400390625 800 l 1
 599.700195312 800 l 1
 599.700195312 666.700195312 l 1
EndSplineSet
Validated: 1
EndChar

StartChar: Ccedilla
Encoding: 133 199 133
Width: 666
VWidth: 0
Flags: W
HStem: 0 200<399.6 512.137> 0 66.5996<266.3 399.6> 267.9 132.1<229.664 266.3 399.6 436.235> 666.7 133.3<230.765 435.098>
VStem: 66.2998 133.3<429.89 635.534> 266.3 133.3<200 269.7> 399.6 133.4<66.5996 133.3> 466.3 133.3<429.89 500 566.7 635.767>
LayerCount: 2
Back
Fore
SplineSet
366.299804688 400 m 2x7d
 435.099609375 400 466.299804688 431.299804688 466.299804688 500 c 1
 599.599609375 500 l 1
 599.599609375 351.200195312 536.799804688 277.700195312 399.599609375 267.900390625 c 1
 399.599609375 200 l 1
 466.299804688 200 l 2xbd
 499.700195312 200 533 166.599609375 533 133.299804688 c 2
 533 66.599609375 l 2x7a
 533 33.2001953125 499.599609375 0 466.299804688 0 c 2xb9
 266.299804688 0 l 1
 266.299804688 66.599609375 l 1x7d
 399.599609375 66.599609375 l 1
 399.599609375 133.299804688 l 1x7a
 266.299804688 133.299804688 l 1
 266.299804688 267.900390625 l 1
 129.099609375 277.700195312 66.2998046875 351.200195312 66.2998046875 500 c 2
 66.2998046875 566.700195312 l 2
 66.2998046875 727.099609375 139.200195312 800 299.599609375 800 c 0
 306 800 360 800 366.299804688 800 c 0
 526.589847783 800 599.599713175 727.199878593 599.599713175 567.031111654 c 0
 599.599609375 566.700195312 l 1
 466.299804688 566.700195312 l 1
 466.299804688 635.400390625 435 666.700195312 366.299804688 666.700195312 c 2
 299.599609375 666.700195312 l 2
 230.799804688 666.700195312 199.599609375 635.400390625 199.599609375 566.700195312 c 2
 199.599609375 500 l 2
 199.599609375 431.299804688 230.900390625 400 299.599609375 400 c 2
 366.299804688 400 l 2x7d
EndSplineSet
Validated: 1
EndChar

StartChar: Egrave
Encoding: 134 200 134
Width: 666
VWidth: 0
Flags: W
HStem: 0 133.3<199.7 599.7> 233.3 133.4<199.7 399.7> 466.7 133.3<199.7 599.7> 666.7 133.3<199.7 266.4>
VStem: 66.4004 133.3<133.3 233.3 366.7 466.7>
LayerCount: 2
Back
Fore
SplineSet
66.400390625 600 m 1
 599.700195312 600 l 1
 599.700195312 466.700195312 l 1
 199.700195312 466.700195312 l 1
 199.700195312 366.700195312 l 1
 399.700195312 366.700195312 l 1
 399.700195312 233.299804688 l 1
 199.700195312 233.299804688 l 1
 199.700195312 133.299804688 l 1
 599.700195312 133.299804688 l 1
 599.700195312 0 l 1
 66.400390625 0 l 1
 66.400390625 600 l 1
399.700195312 666.700195312 m 1
 199.700195312 666.700195312 l 1
 66.400390625 800 l 1
 266.400390625 800 l 1
 399.700195312 666.700195312 l 1
EndSplineSet
Validated: 1
EndChar

StartChar: Eacute
Encoding: 135 201 135
Width: 666
VWidth: 0
Flags: W
HStem: 0 133.3<199.7 599.7> 233.3 133.4<199.7 399.7> 466.7 133.3<199.7 599.7> 666.7 133.3<399.7 466.4>
VStem: 66.4004 133.3<133.3 233.3 366.7 466.7>
LayerCount: 2
Back
Fore
SplineSet
66.400390625 600 m 1
 599.700195312 600 l 1
 599.700195312 466.700195312 l 1
 199.700195312 466.700195312 l 1
 199.700195312 366.700195312 l 1
 399.700195312 366.700195312 l 1
 399.700195312 233.299804688 l 1
 199.700195312 233.299804688 l 1
 199.700195312 133.299804688 l 1
 599.700195312 133.299804688 l 1
 599.700195312 0 l 1
 66.400390625 0 l 1
 66.400390625 600 l 1
266.400390625 666.700195312 m 1
 399.700195312 800 l 1
 599.700195312 800 l 1
 466.400390625 666.700195312 l 1
 266.400390625 666.700195312 l 1
EndSplineSet
Validated: 1
EndChar

StartChar: Ecircumflex
Encoding: 136 202 136
Width: 666
VWidth: 0
Flags: W
HStem: 0 133.3<199.7 599.7> 233.3 133.4<199.7 399.7> 466.7 133.3<199.7 599.7> 666.7 133.3<199.7 266.4 399.7 466.4>
VStem: 66.4004 133.3<133.3 233.3 366.7 466.7>
LayerCount: 2
Back
Fore
SplineSet
599.700195312 666.700195312 m 1
 399.700195312 666.700195312 l 1
 333 733.299804688 l 1
 266.400390625 666.700195312 l 1
 66.400390625 666.700195312 l 1
 199.700195312 800 l 1
 466.400390625 800 l 1
 599.700195312 666.700195312 l 1
66.400390625 600 m 1
 599.700195312 600 l 1
 599.700195312 466.700195312 l 1
 199.700195312 466.700195312 l 1
 199.700195312 366.700195312 l 1
 399.700195312 366.700195312 l 1
 399.700195312 233.299804688 l 1
 199.700195312 233.299804688 l 1
 199.700195312 133.299804688 l 1
 599.700195312 133.299804688 l 1
 599.700195312 0 l 1
 66.400390625 0 l 1
 66.400390625 600 l 1
EndSplineSet
Validated: 1
EndChar

StartChar: Edieresis
Encoding: 137 203 137
Width: 666
VWidth: 0
Flags: W
HStem: 0 133.3<199.7 599.7> 233.3 133.4<199.7 399.7> 466.7 133.3<199.7 599.7> 666.7 133.3<66.4004 199.7 466.4 599.7>
VStem: 66.4004 133.3<133.3 233.3 366.7 466.7 666.7 800> 466.4 133.3<666.7 800>
LayerCount: 2
Back
Fore
SplineSet
66.400390625 600 m 1
 599.700195312 600 l 1
 599.700195312 466.700195312 l 1
 199.700195312 466.700195312 l 1
 199.700195312 366.700195312 l 1
 399.700195312 366.700195312 l 1
 399.700195312 233.299804688 l 1
 199.700195312 233.299804688 l 1
 199.700195312 133.299804688 l 1
 599.700195312 133.299804688 l 1
 599.700195312 0 l 1
 66.400390625 0 l 1
 66.400390625 600 l 1
466.400390625 666.700195312 m 1
 466.400390625 800 l 1
 599.700195312 800 l 1
 599.700195312 666.700195312 l 1
 466.400390625 666.700195312 l 1
66.400390625 666.700195312 m 1
 66.400390625 800 l 1
 199.700195312 800 l 1
 199.700195312 666.700195312 l 1
 66.400390625 666.700195312 l 1
EndSplineSet
Validated: 1
EndChar

StartChar: Igrave
Encoding: 138 204 138
Width: 666
VWidth: 0
Flags: W
HStem: 0 133.3<66.4004 266.3 399.7 599.7> 466.7 133.3<66.4004 266.3 399.7 599.7> 666.7 133.3<199.7 266.4>
VStem: 266.3 133.4<133.3 466.7>
LayerCount: 2
Back
Fore
SplineSet
66.400390625 600 m 1
 599.700195312 600 l 1
 599.700195312 466.700195312 l 1
 399.700195312 466.700195312 l 1
 399.700195312 133.299804688 l 1
 599.700195312 133.299804688 l 1
 599.700195312 0 l 1
 66.400390625 0 l 1
 66.400390625 133.299804688 l 1
 266.299804688 133.299804688 l 1
 266.299804688 466.700195312 l 1
 66.400390625 466.700195312 l 1
 66.400390625 600 l 1
399.700195312 666.700195312 m 1
 199.700195312 666.700195312 l 1
 66.400390625 800 l 1
 266.400390625 800 l 1
 399.700195312 666.700195312 l 1
EndSplineSet
Validated: 1
EndChar

StartChar: Iacute
Encoding: 139 205 139
Width: 666
VWidth: 0
Flags: W
HStem: 0 133.3<66.4004 266.3 399.7 599.7> 466.7 133.3<66.4004 266.3 399.7 599.7> 666.7 133.3<399.7 466.4>
VStem: 266.3 133.4<133.3 466.7>
LayerCount: 2
Back
Fore
SplineSet
66.400390625 600 m 1
 599.700195312 600 l 1
 599.700195312 466.700195312 l 1
 399.700195312 466.700195312 l 1
 399.700195312 133.299804688 l 1
 599.700195312 133.299804688 l 1
 599.700195312 0 l 1
 66.400390625 0 l 1
 66.400390625 133.299804688 l 1
 266.299804688 133.299804688 l 1
 266.299804688 466.700195312 l 1
 66.400390625 466.700195312 l 1
 66.400390625 600 l 1
266.400390625 666.700195312 m 1
 399.700195312 800 l 1
 599.700195312 800 l 1
 466.400390625 666.700195312 l 1
 266.400390625 666.700195312 l 1
EndSplineSet
Validated: 1
EndChar

StartChar: Icircumflex
Encoding: 140 206 140
Width: 666
VWidth: 0
Flags: W
HStem: 0 133.3<66.4004 266.3 399.7 599.7> 466.7 133.3<66.4004 266.3 399.7 599.7> 666.7 133.3<199.7 266.4 399.7 466.4>
VStem: 266.3 133.4<133.3 466.7>
LayerCount: 2
Back
Fore
SplineSet
66.400390625 600 m 1
 599.700195312 600 l 1
 599.700195312 466.700195312 l 1
 399.700195312 466.700195312 l 1
 399.700195312 133.299804688 l 1
 599.700195312 133.299804688 l 1
 599.700195312 0 l 1
 66.400390625 0 l 1
 66.400390625 133.299804688 l 1
 266.299804688 133.299804688 l 1
 266.299804688 466.700195312 l 1
 66.400390625 466.700195312 l 1
 66.400390625 600 l 1
599.700195312 666.700195312 m 1
 399.700195312 666.700195312 l 1
 333 733.299804688 l 1
 266.400390625 666.700195312 l 1
 66.400390625 666.700195312 l 1
 199.700195312 800 l 1
 466.400390625 800 l 1
 599.700195312 666.700195312 l 1
EndSplineSet
Validated: 1
EndChar

StartChar: Idieresis
Encoding: 141 207 141
Width: 666
VWidth: 0
Flags: W
HStem: 0 133.3<66.4004 266.3 399.7 599.7> 466.7 133.3<66.4004 266.3 399.7 599.7> 666.7 133.3<66.4004 199.7 466.4 599.7>
VStem: 66.4004 133.3<666.7 800> 266.3 133.4<133.3 466.7> 466.4 133.3<666.7 800>
LayerCount: 2
Back
Fore
SplineSet
66.400390625 600 m 1
 599.700195312 600 l 1
 599.700195312 466.700195312 l 1
 399.700195312 466.700195312 l 1
 399.700195312 133.299804688 l 1
 599.700195312 133.299804688 l 1
 599.700195312 0 l 1
 66.400390625 0 l 1
 66.400390625 133.299804688 l 1
 266.299804688 133.299804688 l 1
 266.299804688 466.700195312 l 1
 66.400390625 466.700195312 l 1
 66.400390625 600 l 1
466.400390625 666.700195312 m 1
 466.400390625 800 l 1
 599.700195312 800 l 1
 599.700195312 666.700195312 l 1
 466.400390625 666.700195312 l 1
66.400390625 666.700195312 m 1
 66.400390625 800 l 1
 199.700195312 800 l 1
 199.700195312 666.700195312 l 1
 66.400390625 666.700195312 l 1
EndSplineSet
Validated: 1
EndChar

StartChar: Eth
Encoding: 142 208 142
Width: 666
VWidth: 0
Flags: W
HStem: 0 133.3<199.6 466.3> 333.3 133.4<199.6 333> 666.7 133.3<199.6 466.3>
VStem: 66.4004 133.199<133.3 333.3 466.7 666.7> 466.3 133.4<133.3 666.7>
CounterMasks: 1 e0
LayerCount: 2
Back
Fore
SplineSet
466.299804688 133.299804688 m 1
 466.299804688 666.700195312 l 1
 199.599609375 666.700195312 l 1
 199.599609375 466.700195312 l 1
 333 466.700195312 l 1
 333 333.299804688 l 1
 199.599609375 333.299804688 l 1
 199.599609375 133.299804688 l 1
 466.299804688 133.299804688 l 1
499.799804688 800 m 2
 549.700195312 799.900390625 599.700195312 750 599.700195312 700 c 2
 599.700195312 100 l 2
 599.700195312 50 549.799804688 0.099609375 499.799804688 0 c 2
 66.5 0 l 1
 66.400390625 0 l 1
 66.400390625 800 l 1
 66.5 800 l 1
 499.799804688 800 l 2
EndSplineSet
Validated: 1
EndChar

StartChar: Ntilde
Encoding: 143 209 143
Width: 666
VWidth: 0
Flags: W
HStem: 0 21G<66.4004 199.7 453.065 599.7> 0 21G<66.4004 199.7 453.065 599.7> 666.7 133.3<66.4004 599.7>
VStem: 66.4004 133.3<0 400> 466.4 133.3<200 600>
LayerCount: 2
Back
Fore
SplineSet
66.400390625 666.700195312 m 1x38
 66.400390625 800 l 1
 599.700195312 800 l 1
 599.700195312 666.700195312 l 1
 66.400390625 666.700195312 l 1x38
466.400390625 200 m 1
 466.400390625 600 l 1
 599.700195312 600 l 1
 599.700195312 0 l 1
 466.400390625 0 l 1
 199.700195312 400 l 1
 199.700195312 0 l 1
 66.400390625 0 l 1xb8
 66.400390625 600 l 1
 199.700195312 600 l 1
 466.400390625 200 l 1
EndSplineSet
Validated: 1
EndChar

StartChar: Ograve
Encoding: 144 210 144
Width: 666
VWidth: 0
Flags: W
HStem: 0.0996094 133.2<230.866 435.235> 466.7 133.3<230.866 435.235> 666.7 133.3<199.7 266.4>
VStem: 66.4004 133.3<164.566 435.534> 466.4 133.3<164.566 435.534>
LayerCount: 2
Back
Fore
SplineSet
366.400390625 133.299804688 m 2
 435.099609375 133.299804688 466.400390625 164.599609375 466.400390625 233.400390625 c 2
 466.400390625 366.700195312 l 2
 466.400390625 435.400390625 435.099609375 466.700195312 366.400390625 466.700195312 c 2
 299.700195312 466.700195312 l 2
 231 466.700195312 199.700195312 435.400390625 199.700195312 366.700195312 c 2
 199.700195312 233.299804688 l 2
 199.700195312 164.599609375 231 133.299804688 299.700195312 133.299804688 c 2
 366.400390625 133.299804688 l 2
366.400390625 600 m 0
 526.799804688 600 599.700195312 527.099609375 599.700195312 366.700195312 c 2
 599.700195312 233.400390625 l 2
 599.700195312 73 526.799804688 0.099609375 366.400390625 0.099609375 c 0
 360 0.099609375 306.099609375 0.099609375 299.700195312 0.099609375 c 0
 139.299804688 0.099609375 66.400390625 73 66.400390625 233.400390625 c 2
 66.400390625 366.700195312 l 2
 66.400390625 527.099609375 139.299804688 600 299.700195312 600 c 0
 306.099609375 600 360 600 366.400390625 600 c 0
399.700195312 666.700195312 m 1
 199.700195312 666.700195312 l 1
 66.400390625 800 l 1
 266.400390625 800 l 1
 399.700195312 666.700195312 l 1
EndSplineSet
Validated: 1
EndChar

StartChar: Oacute
Encoding: 145 211 145
Width: 666
VWidth: 0
Flags: W
HStem: 0.0996094 133.2<230.866 435.235> 466.7 133.3<230.866 435.235> 666.7 133.3<399.7 466.4>
VStem: 66.4004 133.3<164.566 435.534> 466.4 133.3<164.566 435.534>
LayerCount: 2
Back
Fore
SplineSet
366.400390625 133.299804688 m 2
 435.099609375 133.299804688 466.400390625 164.599609375 466.400390625 233.400390625 c 2
 466.400390625 366.700195312 l 2
 466.400390625 435.400390625 435.099609375 466.700195312 366.400390625 466.700195312 c 2
 299.700195312 466.700195312 l 2
 231 466.700195312 199.700195312 435.400390625 199.700195312 366.700195312 c 2
 199.700195312 233.299804688 l 2
 199.700195312 164.599609375 231 133.299804688 299.700195312 133.299804688 c 2
 366.400390625 133.299804688 l 2
366.400390625 600 m 0
 526.799804688 600 599.700195312 527.099609375 599.700195312 366.700195312 c 2
 599.700195312 233.400390625 l 2
 599.700195312 73 526.799804688 0.099609375 366.400390625 0.099609375 c 0
 360 0.099609375 306.099609375 0.099609375 299.700195312 0.099609375 c 0
 139.299804688 0.099609375 66.400390625 73 66.400390625 233.400390625 c 2
 66.400390625 366.700195312 l 2
 66.400390625 527.099609375 139.299804688 600 299.700195312 600 c 0
 306.099609375 600 360 600 366.400390625 600 c 0
266.400390625 666.700195312 m 1
 399.700195312 800 l 1
 599.700195312 800 l 1
 466.400390625 666.700195312 l 1
 266.400390625 666.700195312 l 1
EndSplineSet
Validated: 1
EndChar

StartChar: Ocircumflex
Encoding: 146 212 146
Width: 666
VWidth: 0
Flags: W
HStem: 0.0996094 133.2<230.866 435.235> 466.7 133.3<230.866 435.235> 666.7 133.3<199.7 266.4 399.7 466.4>
VStem: 66.4004 133.3<164.566 435.534> 466.4 133.3<164.566 435.534>
LayerCount: 2
Back
Fore
SplineSet
366.400390625 133.299804688 m 2
 435.099609375 133.299804688 466.400390625 164.599609375 466.400390625 233.400390625 c 2
 466.400390625 366.700195312 l 2
 466.400390625 435.400390625 435.099609375 466.700195312 366.400390625 466.700195312 c 2
 299.700195312 466.700195312 l 2
 231 466.700195312 199.700195312 435.400390625 199.700195312 366.700195312 c 2
 199.700195312 233.299804688 l 2
 199.700195312 164.599609375 231 133.299804688 299.700195312 133.299804688 c 2
 366.400390625 133.299804688 l 2
366.400390625 600 m 0
 526.799804688 600 599.700195312 527.099609375 599.700195312 366.700195312 c 2
 599.700195312 233.400390625 l 2
 599.700195312 73 526.799804688 0.099609375 366.400390625 0.099609375 c 0
 360 0.099609375 306.099609375 0.099609375 299.700195312 0.099609375 c 0
 139.299804688 0.099609375 66.400390625 73 66.400390625 233.400390625 c 2
 66.400390625 366.700195312 l 2
 66.400390625 527.099609375 139.299804688 600 299.700195312 600 c 0
 306.099609375 600 360 600 366.400390625 600 c 0
599.700195312 666.700195312 m 1
 399.700195312 666.700195312 l 1
 333 733.299804688 l 1
 266.400390625 666.700195312 l 1
 66.400390625 666.700195312 l 1
 199.700195312 800 l 1
 466.400390625 800 l 1
 599.700195312 666.700195312 l 1
EndSplineSet
Validated: 1
EndChar

StartChar: Otilde
Encoding: 147 213 147
Width: 666
VWidth: 0
Flags: W
HStem: 0.0996094 133.2<230.866 435.235> 466.7 133.3<230.866 435.235> 666.7 133.3<66.4004 599.7>
VStem: 66.4004 133.3<164.566 435.534> 466.4 133.3<164.566 435.534>
LayerCount: 2
Back
Fore
SplineSet
366.400390625 133.299804688 m 2
 435.099609375 133.299804688 466.400390625 164.599609375 466.400390625 233.400390625 c 2
 466.400390625 366.700195312 l 2
 466.400390625 435.400390625 435.099609375 466.700195312 366.400390625 466.700195312 c 2
 299.700195312 466.700195312 l 2
 231 466.700195312 199.700195312 435.400390625 199.700195312 366.700195312 c 2
 199.700195312 233.299804688 l 2
 199.700195312 164.599609375 231 133.299804688 299.700195312 133.299804688 c 2
 366.400390625 133.299804688 l 2
366.400390625 600 m 0
 526.799804688 600 599.700195312 527.099609375 599.700195312 366.700195312 c 2
 599.700195312 233.400390625 l 2
 599.700195312 73 526.799804688 0.099609375 366.400390625 0.099609375 c 0
 360 0.099609375 306.099609375 0.099609375 299.700195312 0.099609375 c 0
 139.299804688 0.099609375 66.400390625 73 66.400390625 233.400390625 c 2
 66.400390625 366.700195312 l 2
 66.400390625 527.099609375 139.299804688 600 299.700195312 600 c 0
 306.099609375 600 360 600 366.400390625 600 c 0
66.400390625 666.700195312 m 1
 66.400390625 800 l 1
 599.700195312 800 l 1
 599.700195312 666.700195312 l 1
 66.400390625 666.700195312 l 1
EndSplineSet
Validated: 1
EndChar

StartChar: Odieresis
Encoding: 148 214 148
Width: 666
VWidth: 0
Flags: W
HStem: 0.0996094 133.2<230.866 435.235> 466.7 133.3<230.866 435.235> 666.7 133.3<66.4004 199.7 466.4 599.7>
VStem: 66.4004 133.3<164.566 435.534 666.7 800> 466.4 133.3<164.566 435.534 666.7 800>
LayerCount: 2
Back
Fore
SplineSet
466.400390625 666.700195312 m 1
 466.400390625 800 l 1
 599.700195312 800 l 1
 599.700195312 666.700195312 l 1
 466.400390625 666.700195312 l 1
66.400390625 666.700195312 m 1
 66.400390625 800 l 1
 199.700195312 800 l 1
 199.700195312 666.700195312 l 1
 66.400390625 666.700195312 l 1
366.400390625 133.299804688 m 2
 435.099609375 133.299804688 466.400390625 164.599609375 466.400390625 233.400390625 c 2
 466.400390625 366.700195312 l 2
 466.400390625 435.400390625 435.099609375 466.700195312 366.400390625 466.700195312 c 2
 299.700195312 466.700195312 l 2
 231 466.700195312 199.700195312 435.400390625 199.700195312 366.700195312 c 2
 199.700195312 233.299804688 l 2
 199.700195312 164.599609375 231 133.299804688 299.700195312 133.299804688 c 2
 366.400390625 133.299804688 l 2
366.400390625 600 m 0
 526.799804688 600 599.700195312 527.099609375 599.700195312 366.700195312 c 2
 599.700195312 233.400390625 l 2
 599.700195312 73 526.799804688 0.099609375 366.400390625 0.099609375 c 0
 360 0.099609375 306.099609375 0.099609375 299.700195312 0.099609375 c 0
 139.299804688 0.099609375 66.400390625 73 66.400390625 233.400390625 c 2
 66.400390625 366.700195312 l 2
 66.400390625 527.099609375 139.299804688 600 299.700195312 600 c 0
 306.099609375 600 360 600 366.400390625 600 c 0
EndSplineSet
Validated: 1
EndChar

StartChar: multiply
Encoding: 149 215 149
Width: 666
VWidth: 0
Flags: W
LayerCount: 2
Back
Fore
SplineSet
566.400390625 533.299804688 m 1
 433 400 l 1
 566.400390625 266.700195312 l 1
 466.400390625 166.700195312 l 1
 333 300 l 1
 199.700195312 166.700195312 l 1
 99.7001953125 266.700195312 l 1
 233 400 l 1
 99.7001953125 533.299804688 l 1
 199.700195312 633.299804688 l 1
 333 500 l 1
 466.400390625 633.299804688 l 1
 566.400390625 533.299804688 l 1
EndSplineSet
Validated: 1
EndChar

StartChar: Oslash
Encoding: 150 216 150
Width: 666
VWidth: 0
Flags: HMW
LayerCount: 2
Back
Fore
SplineSet
366.299804688 800 m 0
 526.700195312 800 599.599609375 727.099609375 599.599609375 566.700195312 c 2
 599.599609375 233.400390625 l 2
 599.599609375 73 526.700195312 0.099609375 366.299804688 0.099609375 c 0
 359.900390625 0.099609375 306 0.099609375 299.599609375 0.099609375 c 0
 139.200195312 0.099609375 66.2998046875 73 66.2998046875 233.400390625 c 2
 66.2998046875 566.700195312 l 2
 66.2998046875 727.099609375 139.200195312 800 299.599609375 800 c 0
 306 800 359.900390625 800 366.299804688 800 c 0
199.599609375 566.700195312 m 2
 199.599609375 266.400390625 l 1
 398.700195312 663.799804688 l 1
 389 665.700195312 378.299804688 666.700195312 366.299804688 666.700195312 c 2
 299.599609375 666.700195312 l 2
 230.900390625 666.700195312 199.599609375 635.400390625 199.599609375 566.700195312 c 2
466.299804688 233.299804688 m 1
 466.299804688 533.5 l 1
 267.200195312 136.200195312 l 1
 276.900390625 134.299804688 287.599609375 133.299804688 299.599609375 133.299804688 c 2
 366.299804688 133.299804688 l 2
 435 133.299804688 466.299804688 164.599609375 466.299804688 233.299804688 c 1
EndSplineSet
Validated: 1
EndChar

StartChar: Ugrave
Encoding: 151 217 151
Width: 666
VWidth: 0
Flags: W
HStem: 0 133.3<230.866 435.235> 666.7 133.3<199.7 266.4>
VStem: 66.4004 133.3<164.466 600> 466.4 133.3<164.466 600>
LayerCount: 2
Back
Fore
SplineSet
399.700195312 666.700195312 m 1
 199.700195312 666.700195312 l 1
 66.400390625 800 l 1
 266.400390625 800 l 1
 399.700195312 666.700195312 l 1
466.400390625 600 m 1
 599.700195312 600 l 1
 599.700195312 233.299804688 l 2
 599.700195312 72.900390625 526.799804688 0 366.400390625 0 c 0
 360 0 306.099609375 0 299.700195312 0 c 0
 139.299804688 0 66.400390625 72.900390625 66.400390625 233.299804688 c 2
 66.400390625 600 l 1
 199.700195312 600 l 1
 199.700195312 233.299804688 l 2
 199.700195312 164.599609375 231 133.299804688 299.700195312 133.299804688 c 2
 366.400390625 133.299804688 l 2
 435.099609375 133.299804688 466.400390625 164.599609375 466.400390625 233.299804688 c 2
 466.400390625 600 l 1
EndSplineSet
Validated: 1
EndChar

StartChar: Uacute
Encoding: 152 218 152
Width: 666
VWidth: 0
Flags: W
HStem: 0 133.3<230.866 435.235> 666.7 133.3<399.7 466.4>
VStem: 66.4004 133.3<164.466 600> 466.4 133.3<164.466 600>
LayerCount: 2
Back
Fore
SplineSet
266.400390625 666.700195312 m 1
 399.700195312 800 l 1
 599.700195312 800 l 1
 466.400390625 666.700195312 l 1
 266.400390625 666.700195312 l 1
466.400390625 600 m 1
 599.700195312 600 l 1
 599.700195312 233.299804688 l 2
 599.700195312 72.900390625 526.799804688 0 366.400390625 0 c 0
 360 0 306.099609375 0 299.700195312 0 c 0
 139.299804688 0 66.400390625 72.900390625 66.400390625 233.299804688 c 2
 66.400390625 600 l 1
 199.700195312 600 l 1
 199.700195312 233.299804688 l 2
 199.700195312 164.599609375 231 133.299804688 299.700195312 133.299804688 c 2
 366.400390625 133.299804688 l 2
 435.099609375 133.299804688 466.400390625 164.599609375 466.400390625 233.299804688 c 2
 466.400390625 600 l 1
EndSplineSet
Validated: 1
EndChar

StartChar: Ucircumflex
Encoding: 153 219 153
Width: 666
VWidth: 0
Flags: W
HStem: 0 133.3<230.866 435.235> 666.7 133.3<199.7 266.4 399.7 466.4>
VStem: 66.4004 133.3<164.466 600> 466.4 133.3<164.466 600>
LayerCount: 2
Back
Fore
SplineSet
599.700195312 666.700195312 m 1
 399.700195312 666.700195312 l 1
 333 733.299804688 l 1
 266.400390625 666.700195312 l 1
 66.400390625 666.700195312 l 1
 199.700195312 800 l 1
 466.400390625 800 l 1
 599.700195312 666.700195312 l 1
466.400390625 600 m 1
 599.700195312 600 l 1
 599.700195312 233.299804688 l 2
 599.700195312 72.900390625 526.799804688 0 366.400390625 0 c 0
 360 0 306.099609375 0 299.700195312 0 c 0
 139.299804688 0 66.400390625 72.900390625 66.400390625 233.299804688 c 2
 66.400390625 600 l 1
 199.700195312 600 l 1
 199.700195312 233.299804688 l 2
 199.700195312 164.599609375 231 133.299804688 299.700195312 133.299804688 c 2
 366.400390625 133.299804688 l 2
 435.099609375 133.299804688 466.400390625 164.599609375 466.400390625 233.299804688 c 2
 466.400390625 600 l 1
EndSplineSet
Validated: 1
EndChar

StartChar: Udieresis
Encoding: 154 220 154
Width: 666
VWidth: 0
Flags: W
HStem: 0 133.3<230.866 435.235> 666.7 133.3<66.4004 199.7 466.4 599.7>
VStem: 66.4004 133.3<164.466 600 666.7 800> 466.4 133.3<164.466 600 666.7 800>
LayerCount: 2
Back
Fore
SplineSet
466.400390625 666.700195312 m 1
 466.400390625 800 l 1
 599.700195312 800 l 1
 599.700195312 666.700195312 l 1
 466.400390625 666.700195312 l 1
66.400390625 666.700195312 m 1
 66.400390625 800 l 1
 199.700195312 800 l 1
 199.700195312 666.700195312 l 1
 66.400390625 666.700195312 l 1
466.400390625 600 m 1
 599.700195312 600 l 1
 599.700195312 233.299804688 l 2
 599.700195312 72.900390625 526.799804688 0 366.400390625 0 c 0
 360 0 306.099609375 0 299.700195312 0 c 0
 139.299804688 0 66.400390625 72.900390625 66.400390625 233.299804688 c 2
 66.400390625 600 l 1
 199.700195312 600 l 1
 199.700195312 233.299804688 l 2
 199.700195312 164.599609375 231 133.299804688 299.700195312 133.299804688 c 2
 366.400390625 133.299804688 l 2
 435.099609375 133.299804688 466.400390625 164.599609375 466.400390625 233.299804688 c 2
 466.400390625 600 l 1
EndSplineSet
Validated: 1
EndChar

StartChar: Yacute
Encoding: 155 221 155
Width: 666
VWidth: 0
Flags: W
HStem: 0 21G<266.4 399.7> 0 21G<266.4 399.7> 666.7 133.3<399.7 466.4>
VStem: 266.4 133.3<0 133.3>
LayerCount: 2
Back
Fore
SplineSet
466.400390625 600 m 1xb0
 599.700195312 600 l 1
 399.700195312 133.299804688 l 1
 399.700195312 0 l 1
 266.400390625 0 l 1
 266.400390625 133.299804688 l 1
 66.400390625 600 l 1
 199.700195312 600 l 1
 333 288.900390625 l 1
 466.400390625 600 l 1xb0
266.400390625 666.700195312 m 1
 399.700195312 800 l 1
 599.700195312 800 l 1
 466.400390625 666.700195312 l 1
 266.400390625 666.700195312 l 1
EndSplineSet
Validated: 1
EndChar

StartChar: Thorn
Encoding: 156 222 156
Width: 666
VWidth: 0
Flags: W
HStem: 0 133.4<66.4004 133.1 266.4 333.1> 200.5 133.4<266.4 466.4> 466.7 133.3<266.4 466.4> 666.7 133.3<66.4004 133.1 266.4 333.1>
VStem: 66.4004 266.699<0 133.3 666.7 800> 133.1 133.301<133.4 200.5 333.9 466.7 600 666.7> 466.4 133.3<333.9 466.7>
LayerCount: 2
Back
Fore
SplineSet
266.400390625 466.700195312 m 1xf6
 266.400390625 333.900390625 l 1
 466.400390625 333.900390625 l 1
 466.400390625 466.700195312 l 1
 266.400390625 466.700195312 l 1xf6
499.599609375 600 m 2
 549.700195312 600 599.700195312 550 599.700195312 500 c 2
 599.700195312 299.900390625 l 2
 599.700195312 249.900390625 549.700195312 199.900390625 499.700195312 199.900390625 c 1
 499.700195312 200.5 l 1
 266.400390625 200.5 l 1
 266.400390625 133.299804688 l 1xf6
 333.099609375 133.299804688 l 1
 333.099609375 0 l 1
 66.400390625 0 l 1
 66.400390625 133.400390625 l 1xfa
 133.099609375 133.400390625 l 1
 133.099609375 666.700195312 l 1xf6
 66.400390625 666.700195312 l 1
 66.400390625 800 l 1
 333.099609375 800 l 1
 333.099609375 666.700195312 l 1xfa
 266.400390625 666.700195312 l 1
 266.400390625 600 l 1
 499.599609375 600 l 2
EndSplineSet
Validated: 1
EndChar

StartChar: germandbls
Encoding: 157 223 157
Width: 666
VWidth: 0
Flags: W
HStem: 0 133.4<266.3 466.3> 666.7 133.3<199.6 433>
VStem: 66.2998 133.3<0 666.7> 466.3 133.3<133.4 333.4>
LayerCount: 2
Back
Fore
SplineSet
599.700195312 800 m 1
 599.700195312 666.700195312 l 1
 433 466.700195312 l 1
 499.700195312 466.700195312 l 2
 549.700195312 466.599609375 599.599609375 416.700195312 599.599609375 366.700195312 c 2
 599.599609375 99.900390625 l 2
 599.5 49.900390625 549.599609375 0 499.599609375 0 c 2
 266.299804688 0 l 1
 266.299804688 133.400390625 l 1
 466.299804688 133.400390625 l 1
 466.299804688 333.400390625 l 1
 266.299804688 333.400390625 l 1
 266.299804688 466.700195312 l 1
 433 666.700195312 l 1
 199.599609375 666.700195312 l 1
 199.599609375 0 l 1
 66.2998046875 0 l 1
 66.2998046875 700.099609375 l 2
 66.400390625 750.099609375 116.299804688 800 166.299804688 800 c 2
 599.700195312 800 l 1
EndSplineSet
Validated: 1
EndChar

StartChar: agrave
Encoding: 158 224 158
Width: 666
VWidth: 0
Flags: W
HStem: 0 21G<66.4004 206.357 459.643 599.6> 0 21G<66.4004 206.357 459.643 599.6> 66.7002 133.3<266.4 399.7> 666.7 133.3<199.7 266.4>
LayerCount: 2
Back
Fore
SplineSet
266.400390625 200 m 1x30
 399.700195312 200 l 1
 333 400 l 1
 266.400390625 200 l 1x30
266.400390625 600 m 1
 399.599609375 600 l 1
 599.599609375 0 l 1
 466.299804688 0 l 1
 444.099609375 66.7001953125 l 1
 221.900390625 66.7001953125 l 1
 199.700195312 0 l 1
 66.400390625 0 l 1xb0
 266.400390625 600 l 1
399.700195312 666.700195312 m 1
 199.700195312 666.700195312 l 1
 66.400390625 800 l 1
 266.400390625 800 l 1
 399.700195312 666.700195312 l 1
EndSplineSet
Validated: 1
EndChar

StartChar: aacute
Encoding: 159 225 159
Width: 666
VWidth: 0
Flags: W
HStem: 0 21G<66.4004 206.357 459.643 599.6> 0 21G<66.4004 206.357 459.643 599.6> 66.7002 133.3<266.4 399.7> 666.7 133.3<399.7 466.4>
LayerCount: 2
Back
Fore
SplineSet
266.400390625 200 m 1x30
 399.700195312 200 l 1
 333 400 l 1
 266.400390625 200 l 1x30
266.400390625 600 m 1
 399.599609375 600 l 1
 599.599609375 0 l 1
 466.299804688 0 l 1
 444.099609375 66.7001953125 l 1
 221.900390625 66.7001953125 l 1
 199.700195312 0 l 1
 66.400390625 0 l 1xb0
 266.400390625 600 l 1
266.400390625 666.700195312 m 1
 399.700195312 800 l 1
 599.700195312 800 l 1
 466.400390625 666.700195312 l 1
 266.400390625 666.700195312 l 1
EndSplineSet
Validated: 1
EndChar

StartChar: acircumflex
Encoding: 160 226 160
Width: 666
VWidth: 0
Flags: W
HStem: 0 21G<66.4004 206.357 459.643 599.6> 0 21G<66.4004 206.357 459.643 599.6> 66.7002 133.3<266.4 399.7> 666.7 133.3<199.7 266.4 399.7 466.4>
LayerCount: 2
Back
Fore
SplineSet
266.400390625 200 m 1x30
 399.700195312 200 l 1
 333 400 l 1
 266.400390625 200 l 1x30
266.400390625 600 m 1
 399.599609375 600 l 1
 599.599609375 0 l 1
 466.299804688 0 l 1
 444.099609375 66.7001953125 l 1
 221.900390625 66.7001953125 l 1
 199.700195312 0 l 1
 66.400390625 0 l 1xb0
 266.400390625 600 l 1
599.700195312 666.700195312 m 1
 399.700195312 666.700195312 l 1
 333 733.299804688 l 1
 266.400390625 666.700195312 l 1
 66.400390625 666.700195312 l 1
 199.700195312 800 l 1
 466.400390625 800 l 1
 599.700195312 666.700195312 l 1
EndSplineSet
Validated: 1
EndChar

StartChar: atilde
Encoding: 161 227 161
Width: 666
VWidth: 0
Flags: W
HStem: 0 21G<66.4004 206.357 459.643 599.6> 0 21G<66.4004 206.357 459.643 599.6> 66.7002 133.3<266.4 399.7> 666.7 133.3<66.4004 599.7>
LayerCount: 2
Back
Fore
SplineSet
266.400390625 200 m 1x30
 399.700195312 200 l 1
 333 400 l 1
 266.400390625 200 l 1x30
266.400390625 600 m 1
 399.599609375 600 l 1
 599.599609375 0 l 1
 466.299804688 0 l 1
 444.099609375 66.7001953125 l 1
 221.900390625 66.7001953125 l 1
 199.700195312 0 l 1
 66.400390625 0 l 1xb0
 266.400390625 600 l 1
66.400390625 666.700195312 m 1
 66.400390625 800 l 1
 599.700195312 800 l 1
 599.700195312 666.700195312 l 1
 66.400390625 666.700195312 l 1
EndSplineSet
Validated: 1
EndChar

StartChar: adieresis
Encoding: 162 228 162
Width: 666
VWidth: 0
Flags: W
HStem: 0 21G<66.4004 206.357 459.643 599.6> 0 21G<66.4004 206.357 459.643 599.6> 66.7002 133.3<266.4 399.7> 666.7 133.3<66.4004 199.7 466.4 599.7>
VStem: 66.4004 133.3<666.7 800> 466.4 133.3<666.7 800>
LayerCount: 2
Back
Fore
SplineSet
266.400390625 200 m 1x3c
 399.700195312 200 l 1
 333 400 l 1
 266.400390625 200 l 1x3c
266.400390625 600 m 1
 399.599609375 600 l 1
 599.599609375 0 l 1
 466.299804688 0 l 1
 444.099609375 66.7001953125 l 1
 221.900390625 66.7001953125 l 1
 199.700195312 0 l 1
 66.400390625 0 l 1xbc
 266.400390625 600 l 1
466.400390625 666.700195312 m 1
 466.400390625 800 l 1
 599.700195312 800 l 1
 599.700195312 666.700195312 l 1
 466.400390625 666.700195312 l 1
66.400390625 666.700195312 m 1
 66.400390625 800 l 1
 199.700195312 800 l 1
 199.700195312 666.700195312 l 1
 66.400390625 666.700195312 l 1
EndSplineSet
Validated: 1
EndChar

StartChar: aring
Encoding: 163 229 163
Width: 666
VWidth: 0
Flags: W
HStem: -0.0996094 21G<66.4004 206.357 459.643 599.6> -0.0996094 21G<66.4004 206.357 459.643 599.6> 66.5996 133.4<266.4 399.7> 733.3 66.7002<299.7 366.4>
VStem: 233 66.7002<666.6 733.3> 366.4 66.6992<666.6 733.3>
LayerCount: 2
Back
Fore
SplineSet
266.400390625 200 m 1x3c
 399.700195312 200 l 1
 333 400 l 1
 266.400390625 200 l 1x3c
299.700195312 733.299804688 m 1
 299.700195312 666.599609375 l 1
 366.400390625 666.599609375 l 1
 366.400390625 733.299804688 l 1
 299.700195312 733.299804688 l 1
399.700195312 600 m 1
 599.599609375 -0.099609375 l 1
 466.299804688 -0.099609375 l 1
 444.099609375 66.599609375 l 1
 221.900390625 66.599609375 l 1
 199.700195312 -0.099609375 l 1
 66.400390625 -0.099609375 l 1xbc
 266.400390625 599.900390625 l 1
 299.700195312 599.900390625 l 2
 266.299804688 599.900390625 233 633.299804688 233 666.599609375 c 2
 233 733.299804688 l 2
 233 766.700195312 266.400390625 800 299.700195312 800 c 2
 366.400390625 800 l 2
 399.700195312 800 433 766.700195312 433.099609375 733.299804688 c 2
 433.099609375 666.700195312 l 2
 433.099609375 633.299804688 399.700195312 600 366.400390625 600 c 2
 399.700195312 600 l 1
EndSplineSet
Validated: 1
EndChar

StartChar: ae
Encoding: 164 230 164
Width: 666
VWidth: 0
Flags: W
HStem: 0 133.3<466.4 599.7> 133.3 133.4<266.4 333> 336.1 133.301<466.4 549.7> 666.7 133.3<466.4 599.7>
VStem: 333.1 216.601<336.1 469.4> 333.1 133.301<266.7 336.1 469.4 533.4>
LayerCount: 2
Back
Fore
SplineSet
266.400390625 266.700195312 m 1x74
 333.099609375 266.700195312 l 1
 333.099609375 533.400390625 l 1
 266.400390625 266.700195312 l 1x74
599.700195312 666.700195312 m 1
 466.400390625 666.700195312 l 1
 466.400390625 469.400390625 l 1xb4
 549.700195312 469.400390625 l 1
 549.700195312 336.099609375 l 1xb8
 466.400390625 336.099609375 l 1
 466.400390625 133.299804688 l 1
 599.700195312 133.299804688 l 1
 599.700195312 0 l 1
 333 0 l 1xb4
 333 133.299804688 l 1
 233 133.299804688 l 1x74
 199.700195312 0 l 1
 66.400390625 0 l 1xb4
 266.400390625 800 l 1
 599.700195312 800 l 1
 599.700195312 666.700195312 l 1
EndSplineSet
Validated: 1
EndChar

StartChar: ccedilla
Encoding: 165 231 165
Width: 666
VWidth: 0
Flags: W
HStem: 0 200.1<399.7 512.237> 0 66.7002<266.4 399.7> 266.7 133.3<199.4 266.4 399.7 466.4> 666.7 133.3<199.4 466.3>
VStem: 66.4004 133<400 666.7> 266.4 133.3<200.1 266.7> 399.7 133.399<66.7002 133.4> 466.4 133.3<400 466.8 600 666.7>
LayerCount: 2
Back
Fore
SplineSet
499.700195312 800 m 2x7c
 549.649978098 800 599.599760884 750.100383993 599.599760884 700.150651591 c 0
 599.599609375 700 l 2
 599.599609375 600 l 1
 466.299804688 600 l 1
 466.299804688 666.700195312 l 1
 199.400390625 666.700195312 l 1
 199.400390625 400 l 1
 466.400390625 400 l 1
 466.400390625 466.799804688 l 1
 599.700195312 466.799804688 l 1
 599.700195312 366.799804688 l 2x7d
 599.700195312 316.799804688 549.700195312 266.799804688 499.700195312 266.799804688 c 2
 399.700195312 266.799804688 l 1x7a
 399.700195312 200.099609375 l 1
 466.400390625 200.099609375 l 2xbd
 499.799804688 200.099609375 533.099609375 166.700195312 533.099609375 133.400390625 c 2
 533.099609375 66.7001953125 l 2x7a
 533.099609375 33.2998046875 499.700195312 0 466.400390625 0 c 2xb9
 266.400390625 0 l 1
 266.400390625 66.7001953125 l 1x7d
 399.700195312 66.7001953125 l 1
 399.700195312 133.400390625 l 1x7a
 266.400390625 133.400390625 l 1
 266.400390625 266.700195312 l 1
 166.400390625 266.700195312 l 2
 116.400390625 266.700195312 66.400390625 316.700195312 66.400390625 366.700195312 c 2
 66.400390625 700 l 2
 66.400390625 750 116.400390625 800 166.400390625 800 c 2
 499.700195312 800 l 2x7c
EndSplineSet
Validated: 1
EndChar

StartChar: egrave
Encoding: 166 232 166
Width: 666
VWidth: 0
Flags: W
HStem: 0 133.3<199.7 599.7> 233.3 133.4<199.7 399.7> 466.7 133.3<199.7 599.7> 666.7 133.3<199.7 266.4>
VStem: 66.4004 133.3<133.3 233.3 366.7 466.7>
LayerCount: 2
Back
Fore
SplineSet
66.400390625 600 m 1
 599.700195312 600 l 1
 599.700195312 466.700195312 l 1
 199.700195312 466.700195312 l 1
 199.700195312 366.700195312 l 1
 399.700195312 366.700195312 l 1
 399.700195312 233.299804688 l 1
 199.700195312 233.299804688 l 1
 199.700195312 133.299804688 l 1
 599.700195312 133.299804688 l 1
 599.700195312 0 l 1
 66.400390625 0 l 1
 66.400390625 600 l 1
399.700195312 666.700195312 m 1
 199.700195312 666.700195312 l 1
 66.400390625 800 l 1
 266.400390625 800 l 1
 399.700195312 666.700195312 l 1
EndSplineSet
Validated: 1
EndChar

StartChar: eacute
Encoding: 167 233 167
Width: 666
VWidth: 0
Flags: W
HStem: 0 133.3<199.7 599.7> 233.3 133.4<199.7 399.7> 466.7 133.3<199.7 599.7> 666.7 133.3<399.7 466.4>
VStem: 66.4004 133.3<133.3 233.3 366.7 466.7>
LayerCount: 2
Back
Fore
SplineSet
66.400390625 600 m 1
 599.700195312 600 l 1
 599.700195312 466.700195312 l 1
 199.700195312 466.700195312 l 1
 199.700195312 366.700195312 l 1
 399.700195312 366.700195312 l 1
 399.700195312 233.299804688 l 1
 199.700195312 233.299804688 l 1
 199.700195312 133.299804688 l 1
 599.700195312 133.299804688 l 1
 599.700195312 0 l 1
 66.400390625 0 l 1
 66.400390625 600 l 1
266.400390625 666.700195312 m 1
 399.700195312 800 l 1
 599.700195312 800 l 1
 466.400390625 666.700195312 l 1
 266.400390625 666.700195312 l 1
EndSplineSet
Validated: 1
EndChar

StartChar: ecircumflex
Encoding: 168 234 168
Width: 666
VWidth: 0
Flags: W
HStem: 0 133.3<199.7 599.7> 233.3 133.4<199.7 399.7> 466.7 133.3<199.7 599.7> 666.7 133.3<199.7 266.4 399.7 466.4>
VStem: 66.4004 133.3<133.3 233.3 366.7 466.7>
LayerCount: 2
Back
Fore
SplineSet
599.700195312 666.700195312 m 1
 399.700195312 666.700195312 l 1
 333 733.299804688 l 1
 266.400390625 666.700195312 l 1
 66.400390625 666.700195312 l 1
 199.700195312 800 l 1
 466.400390625 800 l 1
 599.700195312 666.700195312 l 1
66.400390625 600 m 1
 599.700195312 600 l 1
 599.700195312 466.700195312 l 1
 199.700195312 466.700195312 l 1
 199.700195312 366.700195312 l 1
 399.700195312 366.700195312 l 1
 399.700195312 233.299804688 l 1
 199.700195312 233.299804688 l 1
 199.700195312 133.299804688 l 1
 599.700195312 133.299804688 l 1
 599.700195312 0 l 1
 66.400390625 0 l 1
 66.400390625 600 l 1
EndSplineSet
Validated: 1
EndChar

StartChar: edieresis
Encoding: 169 235 169
Width: 666
VWidth: 0
Flags: W
HStem: 0 133.3<199.7 599.7> 233.3 133.4<199.7 399.7> 466.7 133.3<199.7 599.7> 666.7 133.3<66.4004 199.7 466.4 599.7>
VStem: 66.4004 133.3<133.3 233.3 366.7 466.7 666.7 800> 466.4 133.3<666.7 800>
LayerCount: 2
Back
Fore
SplineSet
66.400390625 600 m 1
 599.700195312 600 l 1
 599.700195312 466.700195312 l 1
 199.700195312 466.700195312 l 1
 199.700195312 366.700195312 l 1
 399.700195312 366.700195312 l 1
 399.700195312 233.299804688 l 1
 199.700195312 233.299804688 l 1
 199.700195312 133.299804688 l 1
 599.700195312 133.299804688 l 1
 599.700195312 0 l 1
 66.400390625 0 l 1
 66.400390625 600 l 1
466.400390625 666.700195312 m 1
 466.400390625 800 l 1
 599.700195312 800 l 1
 599.700195312 666.700195312 l 1
 466.400390625 666.700195312 l 1
66.400390625 666.700195312 m 1
 66.400390625 800 l 1
 199.700195312 800 l 1
 199.700195312 666.700195312 l 1
 66.400390625 666.700195312 l 1
EndSplineSet
Validated: 1
EndChar

StartChar: igrave
Encoding: 170 236 170
Width: 666
VWidth: 0
Flags: W
HStem: 0 133.3<66.4004 266.3 399.7 599.7> 466.7 133.3<66.4004 266.3 399.7 599.7> 666.7 133.3<199.7 266.4>
VStem: 266.3 133.4<133.3 466.7>
LayerCount: 2
Back
Fore
SplineSet
66.400390625 600 m 1
 599.700195312 600 l 1
 599.700195312 466.700195312 l 1
 399.700195312 466.700195312 l 1
 399.700195312 133.299804688 l 1
 599.700195312 133.299804688 l 1
 599.700195312 0 l 1
 66.400390625 0 l 1
 66.400390625 133.299804688 l 1
 266.299804688 133.299804688 l 1
 266.299804688 466.700195312 l 1
 66.400390625 466.700195312 l 1
 66.400390625 600 l 1
399.700195312 666.700195312 m 1
 199.700195312 666.700195312 l 1
 66.400390625 800 l 1
 266.400390625 800 l 1
 399.700195312 666.700195312 l 1
EndSplineSet
Validated: 1
EndChar

StartChar: iacute
Encoding: 171 237 171
Width: 666
VWidth: 0
Flags: W
HStem: 0 133.3<66.4004 266.3 399.7 599.7> 466.7 133.3<66.4004 266.3 399.7 599.7> 666.7 133.3<399.7 466.4>
VStem: 266.3 133.4<133.3 466.7>
LayerCount: 2
Back
Fore
SplineSet
66.400390625 600 m 1
 599.700195312 600 l 1
 599.700195312 466.700195312 l 1
 399.700195312 466.700195312 l 1
 399.700195312 133.299804688 l 1
 599.700195312 133.299804688 l 1
 599.700195312 0 l 1
 66.400390625 0 l 1
 66.400390625 133.299804688 l 1
 266.299804688 133.299804688 l 1
 266.299804688 466.700195312 l 1
 66.400390625 466.700195312 l 1
 66.400390625 600 l 1
266.400390625 666.700195312 m 1
 399.700195312 800 l 1
 599.700195312 800 l 1
 466.400390625 666.700195312 l 1
 266.400390625 666.700195312 l 1
EndSplineSet
Validated: 1
EndChar

StartChar: icircumflex
Encoding: 172 238 172
Width: 666
VWidth: 0
Flags: W
HStem: 0 133.3<66.4004 266.3 399.7 599.7> 466.7 133.3<66.4004 266.3 399.7 599.7> 666.7 133.3<199.7 266.4 399.7 466.4>
VStem: 266.3 133.4<133.3 466.7>
LayerCount: 2
Back
Fore
SplineSet
66.400390625 600 m 1
 599.700195312 600 l 1
 599.700195312 466.700195312 l 1
 399.700195312 466.700195312 l 1
 399.700195312 133.299804688 l 1
 599.700195312 133.299804688 l 1
 599.700195312 0 l 1
 66.400390625 0 l 1
 66.400390625 133.299804688 l 1
 266.299804688 133.299804688 l 1
 266.299804688 466.700195312 l 1
 66.400390625 466.700195312 l 1
 66.400390625 600 l 1
599.700195312 666.700195312 m 1
 399.700195312 666.700195312 l 1
 333 733.299804688 l 1
 266.400390625 666.700195312 l 1
 66.400390625 666.700195312 l 1
 199.700195312 800 l 1
 466.400390625 800 l 1
 599.700195312 666.700195312 l 1
EndSplineSet
Validated: 1
EndChar

StartChar: idieresis
Encoding: 173 239 173
Width: 666
VWidth: 0
Flags: W
HStem: 0 133.3<66.4004 266.3 399.7 599.7> 466.7 133.3<66.4004 266.3 399.7 599.7> 666.7 133.3<66.4004 199.7 466.4 599.7>
VStem: 66.4004 133.3<666.7 800> 266.3 133.4<133.3 466.7> 466.4 133.3<666.7 800>
LayerCount: 2
Back
Fore
SplineSet
66.400390625 600 m 1
 599.700195312 600 l 1
 599.700195312 466.700195312 l 1
 399.700195312 466.700195312 l 1
 399.700195312 133.299804688 l 1
 599.700195312 133.299804688 l 1
 599.700195312 0 l 1
 66.400390625 0 l 1
 66.400390625 133.299804688 l 1
 266.299804688 133.299804688 l 1
 266.299804688 466.700195312 l 1
 66.400390625 466.700195312 l 1
 66.400390625 600 l 1
466.400390625 666.700195312 m 1
 466.400390625 800 l 1
 599.700195312 800 l 1
 599.700195312 666.700195312 l 1
 466.400390625 666.700195312 l 1
66.400390625 666.700195312 m 1
 66.400390625 800 l 1
 199.700195312 800 l 1
 199.700195312 666.700195312 l 1
 66.400390625 666.700195312 l 1
EndSplineSet
Validated: 1
EndChar

StartChar: eth
Encoding: 174 240 174
Width: 666
VWidth: 0
Flags: W
HStem: 0 133.3<199.6 466.3> 333.3 133.4<199.6 333> 666.7 133.3<199.6 466.3>
VStem: 66.4004 133.199<133.3 333.3 466.7 666.7> 466.3 133.4<133.3 666.7>
CounterMasks: 1 e0
LayerCount: 2
Back
Fore
SplineSet
466.299804688 133.299804688 m 1
 466.299804688 666.700195312 l 1
 199.599609375 666.700195312 l 1
 199.599609375 466.700195312 l 1
 333 466.700195312 l 1
 333 333.299804688 l 1
 199.599609375 333.299804688 l 1
 199.599609375 133.299804688 l 1
 466.299804688 133.299804688 l 1
499.799804688 800 m 2
 549.700195312 799.900390625 599.700195312 750 599.700195312 700 c 2
 599.700195312 100 l 2
 599.700195312 50 549.799804688 0.099609375 499.799804688 0 c 2
 66.5 0 l 1
 66.400390625 0 l 1
 66.400390625 800 l 1
 66.5 800 l 1
 499.799804688 800 l 2
EndSplineSet
Validated: 1
EndChar

StartChar: ntilde
Encoding: 175 241 175
Width: 666
VWidth: 0
Flags: W
HStem: 0 21G<66.4004 199.7 453.065 599.7> 0 21G<66.4004 199.7 453.065 599.7> 666.7 133.3<66.4004 599.7>
VStem: 66.4004 133.3<0 400> 466.4 133.3<200 600>
LayerCount: 2
Back
Fore
SplineSet
66.400390625 666.700195312 m 1x38
 66.400390625 800 l 1
 599.700195312 800 l 1
 599.700195312 666.700195312 l 1
 66.400390625 666.700195312 l 1x38
466.400390625 200 m 1
 466.400390625 600 l 1
 599.700195312 600 l 1
 599.700195312 0 l 1
 466.400390625 0 l 1
 199.700195312 400 l 1
 199.700195312 0 l 1
 66.400390625 0 l 1xb8
 66.400390625 600 l 1
 199.700195312 600 l 1
 466.400390625 200 l 1
EndSplineSet
Validated: 1
EndChar

StartChar: ograve
Encoding: 176 242 176
Width: 666
VWidth: 0
Flags: W
HStem: 0 133.3<199.7 466.4> 466.7 133.3<199.7 466.4> 666.7 133.3<199.7 266.4>
VStem: 66.2998 133.4<133.3 466.7> 466.4 133.199<133.3 466.7>
LayerCount: 2
Back
Fore
SplineSet
466.400390625 133.299804688 m 1
 466.400390625 466.700195312 l 1
 199.700195312 466.700195312 l 1
 199.700195312 133.299804688 l 1
 466.400390625 133.299804688 l 1
499.700195312 600 m 2
 549.649978098 600 599.599760884 550.100383993 599.599760884 500.150651591 c 0
 599.599609375 500 l 2
 599.599609375 100 l 2
 599.599609375 50 549.599609375 0 499.599609375 0 c 2
 166.299804688 0 l 2
 116.299804688 0 66.2998046875 50 66.2998046875 100 c 2
 66.2998046875 500 l 2
 66.2998046875 550 116.299804688 600 166.299804688 600 c 2
 499.700195312 600 l 2
399.700195312 666.700195312 m 1
 199.700195312 666.700195312 l 1
 66.400390625 800 l 1
 266.400390625 800 l 1
 399.700195312 666.700195312 l 1
EndSplineSet
Validated: 1
EndChar

StartChar: oacute
Encoding: 177 243 177
Width: 666
VWidth: 0
Flags: W
HStem: 0 133.3<199.7 466.4> 466.7 133.3<199.7 466.4> 666.7 133.3<399.7 466.4>
VStem: 66.2998 133.4<133.3 466.7> 466.4 133.199<133.3 466.7>
LayerCount: 2
Back
Fore
SplineSet
466.400390625 133.299804688 m 1
 466.400390625 466.700195312 l 1
 199.700195312 466.700195312 l 1
 199.700195312 133.299804688 l 1
 466.400390625 133.299804688 l 1
499.700195312 600 m 2
 549.649978098 600 599.599760884 550.100383993 599.599760884 500.150651591 c 0
 599.599609375 500 l 2
 599.599609375 100 l 2
 599.599609375 50 549.599609375 0 499.599609375 0 c 2
 166.299804688 0 l 2
 116.299804688 0 66.2998046875 50 66.2998046875 100 c 2
 66.2998046875 500 l 2
 66.2998046875 550 116.299804688 600 166.299804688 600 c 2
 499.700195312 600 l 2
266.400390625 666.700195312 m 1
 399.700195312 800 l 1
 599.700195312 800 l 1
 466.400390625 666.700195312 l 1
 266.400390625 666.700195312 l 1
EndSplineSet
Validated: 1
EndChar

StartChar: ocircumflex
Encoding: 178 244 178
Width: 666
VWidth: 0
Flags: W
HStem: 0 133.3<199.7 466.4> 466.7 133.3<199.7 466.4> 666.7 133.3<199.7 266.4 399.7 466.4>
VStem: 66.2998 133.4<133.3 466.7> 466.4 133.199<133.3 466.7>
LayerCount: 2
Back
Fore
SplineSet
466.400390625 133.299804688 m 1
 466.400390625 466.700195312 l 1
 199.700195312 466.700195312 l 1
 199.700195312 133.299804688 l 1
 466.400390625 133.299804688 l 1
499.700195312 600 m 2
 549.649978098 600 599.599760884 550.100383993 599.599760884 500.150651591 c 0
 599.599609375 500 l 2
 599.599609375 100 l 2
 599.599609375 50 549.599609375 0 499.599609375 0 c 2
 166.299804688 0 l 2
 116.299804688 0 66.2998046875 50 66.2998046875 100 c 2
 66.2998046875 500 l 2
 66.2998046875 550 116.299804688 600 166.299804688 600 c 2
 499.700195312 600 l 2
599.700195312 666.700195312 m 1
 399.700195312 666.700195312 l 1
 333 733.299804688 l 1
 266.400390625 666.700195312 l 1
 66.400390625 666.700195312 l 1
 199.700195312 800 l 1
 466.400390625 800 l 1
 599.700195312 666.700195312 l 1
EndSplineSet
Validated: 1
EndChar

StartChar: otilde
Encoding: 179 245 179
Width: 666
VWidth: 0
Flags: W
HStem: 0 133.3<199.7 466.4> 466.7 133.3<199.7 466.4> 666.7 133.3<66.4004 599.7>
VStem: 66.2998 133.4<133.3 466.7> 466.4 133.199<133.3 466.7>
LayerCount: 2
Back
Fore
SplineSet
466.400390625 133.299804688 m 1
 466.400390625 466.700195312 l 1
 199.700195312 466.700195312 l 1
 199.700195312 133.299804688 l 1
 466.400390625 133.299804688 l 1
499.700195312 600 m 2
 549.649978098 600 599.599760884 550.100383993 599.599760884 500.150651591 c 0
 599.599609375 500 l 2
 599.599609375 100 l 2
 599.599609375 50 549.599609375 0 499.599609375 0 c 2
 166.299804688 0 l 2
 116.299804688 0 66.2998046875 50 66.2998046875 100 c 2
 66.2998046875 500 l 2
 66.2998046875 550 116.299804688 600 166.299804688 600 c 2
 499.700195312 600 l 2
66.400390625 666.700195312 m 1
 66.400390625 800 l 1
 599.700195312 800 l 1
 599.700195312 666.700195312 l 1
 66.400390625 666.700195312 l 1
EndSplineSet
Validated: 1
EndChar

StartChar: odieresis
Encoding: 180 246 180
Width: 666
VWidth: 0
Flags: W
HStem: 0 133.3<199.7 466.4> 466.7 133.3<199.7 466.4> 666.7 133.3<66.4004 199.7 466.4 599.7>
VStem: 66.2998 133.4<133.3 466.7 666.7 800> 466.4 133.199<133.3 466.7 666.7 800>
LayerCount: 2
Back
Fore
SplineSet
466.400390625 133.299804688 m 1
 466.400390625 466.700195312 l 1
 199.700195312 466.700195312 l 1
 199.700195312 133.299804688 l 1
 466.400390625 133.299804688 l 1
499.700195312 600 m 2
 549.649978098 600 599.599760884 550.100383993 599.599760884 500.150651591 c 0
 599.599609375 500 l 2
 599.599609375 100 l 2
 599.599609375 50 549.599609375 0 499.599609375 0 c 2
 166.299804688 0 l 2
 116.299804688 0 66.2998046875 50 66.2998046875 100 c 2
 66.2998046875 500 l 2
 66.2998046875 550 116.299804688 600 166.299804688 600 c 2
 499.700195312 600 l 2
466.400390625 666.700195312 m 1
 466.400390625 800 l 1
 599.700195312 800 l 1
 599.700195312 666.700195312 l 1
 466.400390625 666.700195312 l 1
66.400390625 666.700195312 m 1
 66.400390625 800 l 1
 199.700195312 800 l 1
 199.700195312 666.700195312 l 1
 66.400390625 666.700195312 l 1
EndSplineSet
Validated: 1
EndChar

StartChar: divide
Encoding: 181 247 181
Width: 666
VWidth: 0
Flags: W
HStem: 133.4 133.3<266.4 399.7> 333.4 133.3<66.4004 599.7> 533.4 133.3<266.4 399.7>
VStem: 266.4 133.3<133.4 266.7 533.4 666.7>
CounterMasks: 1 e0
LayerCount: 2
Back
Fore
SplineSet
266.400390625 533.400390625 m 1
 266.400390625 666.700195312 l 1
 399.700195312 666.700195312 l 1
 399.700195312 533.400390625 l 1
 266.400390625 533.400390625 l 1
266.400390625 133.400390625 m 1
 266.400390625 266.700195312 l 1
 399.700195312 266.700195312 l 1
 399.700195312 133.400390625 l 1
 266.400390625 133.400390625 l 1
66.400390625 333.400390625 m 1
 66.400390625 466.700195312 l 1
 599.700195312 466.700195312 l 1
 599.700195312 333.400390625 l 1
 66.400390625 333.400390625 l 1
EndSplineSet
Validated: 1
EndChar

StartChar: oslash
Encoding: 182 248 182
Width: 666
VWidth: 0
Flags: W
HStem: 0 133.3<265.8 466.3> 666.7 133.3<199.8 400.2>
VStem: 66.2998 133.5<266.7 666.7> 466.3 133.3<133.3 533.6>
LayerCount: 2
Back
Fore
SplineSet
466.299804688 533.599609375 m 1
 265.799804688 133.299804688 l 1
 466.299804688 133.299804688 l 1
 466.299804688 533.599609375 l 1
199.799804688 666.700195312 m 1
 199.799804688 266.700195312 l 1
 400.200195312 666.700195312 l 1
 199.799804688 666.700195312 l 1
499.900390625 800 m 2
 549.749588607 799.900490867 599.599761186 750.000974699 599.599761186 700.150651442 c 0
 599.599609375 700 l 2
 599.599609375 100 l 2
 599.599609375 50.099609375 549.700195312 0.099609375 499.799804688 0 c 2
 166.200195312 0 l 2
 116.299804688 0 66.2998046875 50 66.2998046875 100 c 2
 66.2998046875 700 l 2
 66.2998046875 750 116.200195312 800 166.200195312 800 c 2
 499.900390625 800 l 2
EndSplineSet
Validated: 1
EndChar

StartChar: ugrave
Encoding: 183 249 183
Width: 666
VWidth: 0
Flags: W
HStem: 0 133.3<199.7 466.3> 666.7 133.3<199.7 266.4>
VStem: 66.4004 133.3<133.3 600> 466.3 133.4<133.3 600>
LayerCount: 2
Back
Fore
SplineSet
600.400390625 600 m 1
 599.700195312 100 l 2
 599.700195312 50 549.700195312 0 499.700195312 0 c 2
 166.400390625 0 l 2
 116.400390625 0 66.400390625 50 66.400390625 100 c 2
 65.099609375 600 l 1
 199.700195312 600 l 1
 199.700195312 133.299804688 l 1
 466.299804688 133.299804688 l 1
 465.700195312 600 l 1
 466.400390625 600 l 1
 600.400390625 600 l 1
399.700195312 666.700195312 m 1
 199.700195312 666.700195312 l 1
 66.400390625 800 l 1
 266.400390625 800 l 1
 399.700195312 666.700195312 l 1
EndSplineSet
Validated: 1
EndChar

StartChar: uacute
Encoding: 184 250 184
Width: 666
VWidth: 0
Flags: W
HStem: 0 133.3<199.7 466.3> 666.7 133.3<399.7 466.4>
VStem: 66.4004 133.3<133.3 600> 466.3 133.4<133.3 600>
LayerCount: 2
Back
Fore
SplineSet
600.400390625 600 m 1
 599.700195312 100 l 2
 599.700195312 50 549.700195312 0 499.700195312 0 c 2
 166.400390625 0 l 2
 116.400390625 0 66.400390625 50 66.400390625 100 c 2
 65.099609375 600 l 1
 199.700195312 600 l 1
 199.700195312 133.299804688 l 1
 466.299804688 133.299804688 l 1
 465.700195312 600 l 1
 466.400390625 600 l 1
 600.400390625 600 l 1
266.400390625 666.700195312 m 1
 399.700195312 800 l 1
 599.700195312 800 l 1
 466.400390625 666.700195312 l 1
 266.400390625 666.700195312 l 1
EndSplineSet
Validated: 1
EndChar

StartChar: ucircumflex
Encoding: 185 251 185
Width: 666
VWidth: 0
Flags: W
HStem: 0 133.3<199.7 466.3> 666.7 133.3<199.7 266.4 399.7 466.4>
VStem: 66.4004 133.3<133.3 600> 466.3 133.4<133.3 600>
LayerCount: 2
Back
Fore
SplineSet
600.400390625 600 m 1
 599.700195312 100 l 2
 599.700195312 50 549.700195312 0 499.700195312 0 c 2
 166.400390625 0 l 2
 116.400390625 0 66.400390625 50 66.400390625 100 c 2
 65.099609375 600 l 1
 199.700195312 600 l 1
 199.700195312 133.299804688 l 1
 466.299804688 133.299804688 l 1
 465.700195312 600 l 1
 466.400390625 600 l 1
 600.400390625 600 l 1
599.700195312 666.700195312 m 1
 399.700195312 666.700195312 l 1
 333 733.299804688 l 1
 266.400390625 666.700195312 l 1
 66.400390625 666.700195312 l 1
 199.700195312 800 l 1
 466.400390625 800 l 1
 599.700195312 666.700195312 l 1
EndSplineSet
Validated: 1
EndChar

StartChar: udieresis
Encoding: 186 252 186
Width: 666
VWidth: 0
Flags: W
HStem: 0 133.3<199.7 466.3> 666.7 133.3<66.4004 199.7 466.4 599.7>
VStem: 66.4004 133.3<133.3 600 666.7 800> 466.4 133.3<133.3 600 666.7 800>
LayerCount: 2
Back
Fore
SplineSet
66.400390625 666.700195312 m 1
 66.400390625 800 l 1
 199.700195312 800 l 1
 199.700195312 666.700195312 l 1
 66.400390625 666.700195312 l 1
466.400390625 666.700195312 m 1
 466.400390625 800 l 1
 599.700195312 800 l 1
 599.700195312 666.700195312 l 1
 466.400390625 666.700195312 l 1
600.400390625 600 m 1
 599.700195312 100 l 2
 599.700195312 50 549.700195312 0 499.700195312 0 c 2
 166.400390625 0 l 2
 116.400390625 0 66.400390625 50 66.400390625 100 c 2
 65.099609375 600 l 1
 199.700195312 600 l 1
 199.700195312 133.299804688 l 1
 466.299804688 133.299804688 l 1
 465.700195312 600 l 1
 466.400390625 600 l 1
 600.400390625 600 l 1
EndSplineSet
Validated: 1
EndChar

StartChar: yacute
Encoding: 187 253 187
Width: 666
VWidth: 0
Flags: W
HStem: 0 21G<266.4 399.7> 0 21G<266.4 399.7> 666.7 133.3<399.7 466.4>
VStem: 266.4 133.3<0 200>
LayerCount: 2
Back
Fore
SplineSet
266.400390625 0 m 1xb0
 266.400390625 200 l 1
 66.400390625 600 l 1
 199.700195312 600 l 1
 333 333.299804688 l 1
 466.400390625 600 l 1
 599.700195312 600 l 1
 399.700195312 200 l 1
 399.700195312 0 l 1
 266.400390625 0 l 1xb0
266.400390625 666.700195312 m 1
 399.700195312 800 l 1
 599.700195312 800 l 1
 466.400390625 666.700195312 l 1
 266.400390625 666.700195312 l 1
EndSplineSet
Validated: 1
EndChar

StartChar: thorn
Encoding: 188 254 188
Width: 666
VWidth: 0
Flags: W
HStem: 0 21G<66.4004 199.7> 0 21G<66.4004 199.7> 200.6 133.301<199.7 466.4> 466.7 133.3<199.7 466.4> 780 20G<66.4004 199.6> 780 20G<66.4004 199.6>
VStem: 66.4004 133.3<0 200.6 333.9 466.7 600 800> 466.4 133.3<333.9 466.7>
LayerCount: 2
Back
Fore
SplineSet
199.700195312 466.700195312 m 1x33
 199.700195312 333.900390625 l 1
 466.400390625 333.900390625 l 1
 466.400390625 466.700195312 l 1
 199.700195312 466.700195312 l 1x33
499.599609375 600 m 2
 549.700195312 600 599.700195312 550 599.700195312 500 c 2
 599.700195312 300 l 2
 599.700195312 250 549.700195312 200 499.700195312 200 c 1
 499.700195312 200.599609375 l 1
 199.700195312 200.599609375 l 1
 199.700195312 0 l 1
 66.400390625 0 l 1
 66.400390625 800 l 1
 199.599609375 800 l 1xbb
 199.599609375 600 l 1
 499.599609375 600 l 2
EndSplineSet
Validated: 1
EndChar

StartChar: ydieresis
Encoding: 189 255 189
Width: 666
VWidth: 0
Flags: W
HStem: 0 21G<266.4 399.7> 0 21G<266.4 399.7> 666.7 133.3<66.4004 199.7 466.4 599.7>
VStem: 66.4004 133.3<666.7 800> 266.4 133.3<0 200> 466.4 133.3<666.7 800>
CounterMasks: 1 1c
LayerCount: 2
Back
Fore
SplineSet
266.400390625 0 m 1xbc
 266.400390625 200 l 1
 66.400390625 600 l 1
 199.700195312 600 l 1
 333 333.299804688 l 1
 466.400390625 600 l 1
 599.700195312 600 l 1
 399.700195312 200 l 1
 399.700195312 0 l 1
 266.400390625 0 l 1xbc
466.400390625 666.700195312 m 1
 466.400390625 800 l 1
 599.700195312 800 l 1
 599.700195312 666.700195312 l 1
 466.400390625 666.700195312 l 1
66.400390625 666.700195312 m 1
 66.400390625 800 l 1
 199.700195312 800 l 1
 199.700195312 666.700195312 l 1
 66.400390625 666.700195312 l 1
EndSplineSet
Validated: 1
EndChar

StartChar: Ydieresis
Encoding: 190 376 190
Width: 666
VWidth: 0
Flags: W
HStem: 0 21G<266.4 399.7> 0 21G<266.4 399.7> 666.7 133.3<66.4004 199.7 466.4 599.7>
VStem: 66.4004 133.3<666.7 800> 266.4 133.3<0 133.3> 466.4 133.3<666.7 800>
CounterMasks: 1 1c
LayerCount: 2
Back
Fore
SplineSet
466.400390625 600 m 1xbc
 599.700195312 600 l 1
 399.700195312 133.299804688 l 1
 399.700195312 0 l 1
 266.400390625 0 l 1
 266.400390625 133.299804688 l 1
 66.400390625 600 l 1
 199.700195312 600 l 1
 333 288.900390625 l 1
 466.400390625 600 l 1xbc
466.400390625 666.700195312 m 1
 466.400390625 800 l 1
 599.700195312 800 l 1
 599.700195312 666.700195312 l 1
 466.400390625 666.700195312 l 1
66.400390625 666.700195312 m 1
 66.400390625 800 l 1
 199.700195312 800 l 1
 199.700195312 666.700195312 l 1
 66.400390625 666.700195312 l 1
EndSplineSet
Validated: 1
EndChar

StartChar: OE
Encoding: 191 338 191
Width: 666
VWidth: 0
Flags: W
HStem: 0.0996094 133.2<230.765 333 466.3 599.6> 333.3 133.4<466.3 566.3> 666.7 133.3<230.826 333 466.3 599.7>
VStem: 66.2998 133.4<164.566 635.534> 333 133.3<133.3 333.3 466.7 666.7>
LayerCount: 2
Back
Fore
SplineSet
333 133.299804688 m 1
 333 666.700195312 l 1
 299.700195312 666.700195312 l 2
 231 666.700195312 199.700195312 635.400390625 199.700195312 566.700195312 c 2
 199.700195312 233.299804688 l 2
 199.700195312 164.599609375 231 133.299804688 299.700195312 133.299804688 c 2
 333 133.299804688 l 1
599.700195312 666.700195312 m 1
 466.299804688 666.700195312 l 1
 466.299804688 466.700195312 l 1
 566.299804688 466.700195312 l 1
 566.299804688 333.299804688 l 1
 466.299804688 333.299804688 l 1
 466.299804688 133.299804688 l 1
 599.599609375 133.299804688 l 1
 599.599609375 0.099609375 l 1
 599.599609375 0.099609375 302.799804688 0.099609375 299.599609375 0.099609375 c 0
 139.200195312 0.099609375 66.2998046875 73 66.2998046875 233.400390625 c 2
 66.2998046875 566.700195312 l 2
 66.2998046875 727.099609375 139.200195312 800 299.700195312 800 c 0
 302.900390625 800 599.700195312 800 599.700195312 800 c 1
 599.700195312 666.700195312 l 1
EndSplineSet
Validated: 1
EndChar

StartChar: NameMe.192
Encoding: 192 339 192
Width: 666
VWidth: 0
Flags: W
HStem: 0 133.4<199.6 333 466.3 599.6> 333.3 133.4<466.3 566.3> 666.7 133.3<199.6 333 466.3 599.7>
VStem: 66.2998 133.3<133.4 666.7> 333 133.3<133.4 333.3 466.7 666.7>
LayerCount: 2
Back
Fore
SplineSet
199.599609375 666.700195312 m 1
 199.599609375 133.400390625 l 1
 333 133.400390625 l 1
 333 666.700195312 l 1
 199.599609375 666.700195312 l 1
599.700195312 666.700195312 m 1
 466.299804688 666.700195312 l 1
 466.299804688 466.700195312 l 1
 566.299804688 466.700195312 l 1
 566.299804688 333.299804688 l 1
 466.299804688 333.299804688 l 1
 466.299804688 133.299804688 l 1
 599.599609375 133.299804688 l 1
 599.599609375 0 l 1
 166.299804688 0 l 2
 116.299804688 0 66.2998046875 50 66.2998046875 100 c 2
 66.2998046875 700 l 2
 66.2998046875 750 116.299804688 800 166.299804688 800 c 2
 599.700195312 800 l 1
 599.700195312 666.700195312 l 1
EndSplineSet
Validated: 1
EndChar

StartChar: uniFB01
Encoding: 193 64257 193
Width: 666
VWidth: 0
Flags: W
HStem: 0 133.4<199.7 445.487> 266.7 133.3<333 466.3> 666.7 133.3<199.7 466.4>
VStem: 66.2998 133.4<133.4 666.7> 466.3 133.3<0 66.7002 133.4 266.7 600 666.7>
LayerCount: 2
Back
Fore
SplineSet
599.700195312 600 m 1
 466.400390625 600 l 1
 466.400390625 666.700195312 l 1
 199.700195312 666.700195312 l 1
 199.700195312 133.400390625 l 1
 399.700195312 133.400390625 l 1
 466.299804688 133.400390625 l 1
 466.299804688 266.700195312 l 1
 333 266.700195312 l 1
 333 400 l 1
 466.299804688 400 l 1
 599.599609375 400 l 1
 599.599609375 266.700195312 l 1
 599.599609375 0 l 1
 466.299804688 0 l 1
 466.299804688 66.7001953125 l 2
 466.299804688 33.400390625 433 0 399.700195312 0 c 2
 166.099609375 0 l 2
 116.200195312 0.2001953125 66.2998046875 50.099609375 66.2998046875 100 c 2
 66.2998046875 700 l 2
 66.2998046875 749.900390625 116.200195312 799.900390625 166.099609375 800 c 2
 499.799804688 800 l 2
 549.700195312 799.900390625 599.700195312 750 599.700195312 700 c 2
 599.700195312 600 l 1
EndSplineSet
Validated: 1
EndChar

StartChar: florin
Encoding: 194 402 194
Width: 666
VWidth: 0
Flags: W
HStem: 0 21G<66.4004 202.401 463.685 599.7> 0 21G<66.4004 202.401 463.685 599.7> 133.3 133.4<235.7 430.3> 666.7 133.3<293.832 372.168>
LayerCount: 2
Back
Fore
SplineSet
235.700195312 266.700195312 m 1x30
 430.299804688 266.700195312 l 1
 381.900390625 624.599609375 l 2
 378.200195312 649 357.700195312 666.700195312 333 666.700195312 c 0
 308.299804688 666.700195312 287.799804688 649 284.099609375 624.599609375 c 2
 235.700195312 266.700195312 l 1x30
466.400390625 0 m 1xb0
 448.299804688 133.299804688 l 1
 217.700195312 133.299804688 l 1
 199.700195312 0 l 1
 66.400390625 0 l 1
 152.299804688 644.299804688 l 2
 165.799804688 734.5 241.799804688 800 333 800 c 0
 424.200195312 800 500.200195312 734.5 513.799804688 644.299804688 c 2
 599.700195312 0 l 1
 466.400390625 0 l 1xb0
EndSplineSet
Validated: 1
EndChar

StartChar: lozenge
Encoding: 195 9674 195
Width: 666
VWidth: 0
Flags: W
HStem: 0 21G<295 370.85> 0 21G<295 370.85> 780 20G<295.05 370.85> 780 20G<295.05 370.85>
LayerCount: 2
Back
Fore
SplineSet
333 133.299804688 m 1x00
 466.299804688 400 l 1
 332.900390625 666.700195312 l 1
 199.599609375 400 l 1
 333 133.299804688 l 1x00
599.700195312 400.299804688 m 0
 599.700195312 400.200195312 599.599609375 400.099609375 599.599609375 400 c 0
 599.599609375 399.900390625 599.599609375 399.799804688 599.599609375 399.700195312 c 0
 599 382.599609375 595.700195312 366.700195312 589.099609375 352.400390625 c 2
 441.799804688 57.7998046875 l 2
 424 25 388.900390625 0 352.799804688 0 c 2
 313.099609375 0 l 2
 276.900390625 0 241.900390625 25 224.099609375 57.7998046875 c 2
 76.7998046875 352.400390625 l 2
 70.2001953125 366.700195312 66.900390625 382.700195312 66.2998046875 399.700195312 c 0
 66.2998046875 399.799804688 66.2998046875 399.900390625 66.2998046875 400 c 0
 66.2998046875 400.099609375 66.2998046875 400.200195312 66.2998046875 400.299804688 c 0
 67 417.299804688 70.2998046875 433.200195312 76.900390625 447.5 c 2
 224.099609375 742.200195312 l 2
 241.900390625 775 277 800 313.099609375 800 c 2
 352.799804688 800 l 2xa0
 388.900390625 800 424 775 441.700195312 742.200195312 c 2
 589.099609375 447.599609375 l 2
 595.700195312 433.299804688 599 417.299804688 599.700195312 400.299804688 c 0
EndSplineSet
Validated: 1
EndChar

StartChar: dagger
Encoding: 196 8224 196
Width: 666
VWidth: 0
Flags: W
LayerCount: 2
Back
Fore
SplineSet
599.599609375 466.700195312 m 1
 433 300 l 1
 466.299804688 400 l 1
 399.599609375 466.700195312 l 1
 466.299804688 533.299804688 l 1
 449.599609375 583.299804688 l 1
 399.599609375 600 l 1
 333 533.299804688 l 1
 266.299804688 600 l 1
 216.299804688 583.299804688 l 1
 199.599609375 533.299804688 l 1
 266.299804688 466.700195312 l 1
 199.599609375 400 l 1
 233 300 l 1
 66.2998046875 466.700195312 l 1
 333 733.299804688 l 1
 599.599609375 466.700195312 l 1
333 466.700195312 m 1
 399.599609375 266.700195312 l 1
 333 133.299804688 l 1
 266.299804688 266.700195312 l 1
 333 466.700195312 l 1
EndSplineSet
Validated: 1
EndChar

StartChar: daggerdbl
Encoding: 197 8225 197
Width: 666
VWidth: 0
Flags: W
HStem: 0 21G<266.4 399.7> 0 21G<266.4 399.7> 233.3 133.4<66.4004 266.4 399.7 599.7> 666.7 133.3<66.4004 266.4 399.7 599.7>
VStem: 266.4 133.3<0 233.3 433.3 666.7>
LayerCount: 2
Back
Fore
SplineSet
66.400390625 800 m 1x38
 599.700195312 800 l 1
 599.700195312 666.700195312 l 1
 399.700195312 666.700195312 l 1
 399.700195312 433.299804688 l 1
 266.400390625 433.299804688 l 1
 266.400390625 666.700195312 l 1
 66.400390625 666.700195312 l 1
 66.400390625 800 l 1x38
66.400390625 233.299804688 m 1
 66.400390625 366.700195312 l 1
 599.700195312 366.700195312 l 1
 599.700195312 233.299804688 l 1
 399.700195312 233.299804688 l 1
 399.700195312 0 l 1
 266.400390625 0 l 1xb8
 266.400390625 233.299804688 l 1
 66.400390625 233.299804688 l 1
EndSplineSet
Validated: 1
EndChar

StartChar: IJ
Encoding: 198 306 198
Width: 666
VWidth: 0
Flags: W
HStem: 0 133.4<199.7 466.3> 666.7 133.3<333 466.3>
VStem: 66.4004 133.3<133.4 200 333.3 800> 466.3 133.4<133.4 666.7>
LayerCount: 2
Back
Fore
SplineSet
333 800 m 1
 599.700195312 800 l 1
 599.700195312 100 l 2
 599.700195312 50 549.700195312 0 499.700195312 0 c 2
 166.400390625 0 l 2
 116.400390625 0 66.400390625 50 66.400390625 100 c 2
 66.400390625 200 l 1
 199.700195312 200 l 1
 199.700195312 133.400390625 l 1
 466.299804688 133.400390625 l 1
 466.299804688 666.700195312 l 1
 333 666.700195312 l 1
 333 800 l 1
66.400390625 333.299804688 m 1
 66.400390625 800 l 1
 199.700195312 800 l 1
 199.700195312 333.299804688 l 1
 66.400390625 333.299804688 l 1
EndSplineSet
Validated: 1
EndChar

StartChar: summation
Encoding: 199 8721 199
Width: 666
VWidth: 0
Flags: W
HStem: 0 133.3<233 599.7> 666.7 133.3<233 599.7>
LayerCount: 2
Back
Fore
SplineSet
599.700195312 800 m 1
 599.700195312 666.700195312 l 1
 233 666.700195312 l 1
 466.299804688 400 l 1
 233 133.299804688 l 1
 599.700195312 133.299804688 l 1
 599.700195312 0 l 1
 66.2998046875 0 l 1
 66.2998046875 133.299804688 l 1
 299.599609375 400 l 1
 66.2998046875 666.700195312 l 1
 66.2998046875 800 l 1
 599.700195312 800 l 1
EndSplineSet
Validated: 1
EndChar

StartChar: epsilon
Encoding: 200 949 200
Width: 666
VWidth: 0
Flags: W
HStem: 0 133.3<199.4 466.3> 333.3 133.4<199.4 399.7> 666.7 133.3<199.4 466.3>
VStem: 66.2998 133.101<133.3 333.3 466.7 666.7> 466.3 133.3<133.3 200 600 666.7>
CounterMasks: 1 e0
LayerCount: 2
Back
Fore
SplineSet
599.700195312 700 m 1
 599.599609375 700 l 1
 599.599609375 600 l 1
 466.299804688 600 l 1
 466.299804688 666.700195312 l 1
 199.400390625 666.700195312 l 1
 199.400390625 466.700195312 l 1
 399.700195312 466.700195312 l 1
 399.700195312 333.299804688 l 1
 199.400390625 333.299804688 l 1
 199.400390625 133.299804688 l 1
 466.299804688 133.299804688 l 1
 466.299804688 200 l 1
 599.599609375 200 l 1
 599.599609375 100 l 2
 599.599609375 50 549.599609375 0 499.599609375 0 c 2
 166.299804688 0 l 2
 116.299804688 0 66.2998046875 50 66.2998046875 100 c 2
 66.2998046875 333.299804688 l 2
 66.2998046875 366.700195312 99.7001953125 400 133 400 c 1
 99.599609375 400 66.2998046875 433.400390625 66.2998046875 466.700195312 c 2
 66.2998046875 700 l 2
 66.2998046875 750 116.299804688 800 166.299804688 800 c 2
 499.700195312 800 l 2
 549.700195312 800 599.700195312 750 599.700195312 700 c 1
EndSplineSet
Validated: 1
EndChar

StartChar: uni03F5
Encoding: 201 1013 201
Width: 666
VWidth: 0
Flags: W
HStem: 0.0996094 133.2<230.866 599.7> 333.3 133.4<199.7 599.7> 666.7 133.3<230.866 599.7>
VStem: 66.4004 133.3<164.566 333.3 466.7 635.534>
LayerCount: 2
Back
Fore
SplineSet
199.700195312 466.700195312 m 1
 599.700195312 466.700195312 l 1
 599.700195312 333.299804688 l 1
 199.700195312 333.299804688 l 1
 199.700195312 233.299804688 l 2
 199.700195312 164.599609375 231 133.299804688 299.700195312 133.299804688 c 2
 599.700195312 133.299804688 l 1
 599.700195312 0.099609375 l 1
 299.700195312 0.099609375 l 2
 139.299804688 0.099609375 66.400390625 73 66.400390625 233.400390625 c 2
 66.400390625 566.700195312 l 2
 66.400390625 727.099609375 139.299804688 800 299.700195312 800 c 2
 599.700195312 800 l 1
 599.700195312 666.700195312 l 1
 299.700195312 666.700195312 l 2
 231 666.700195312 199.700195312 635.400390625 199.700195312 566.700195312 c 2
 199.700195312 466.700195312 l 1
EndSplineSet
Validated: 1
EndChar

StartChar: Euro
Encoding: 202 8364 202
Width: 666
VWidth: 0
Flags: W
HStem: 0 133.3<266.6 466.4> 233.3 133.4<66.4004 133.3 266.6 399.7> 433.4 133.3<66.4004 133.3 266.6 399.7> 666.7 133.3<266.6 466.3>
VStem: 66.4004 333.3<233.4 366.7 433.4 566.7> 133.2 133.399<133.3 233.3 366.7 433.4 566.7 666.7> 466.4 133.399<133.3 200 600 666.7>
LayerCount: 2
Back
Fore
SplineSet
599.700195312 200 m 1xf6
 599.799804688 200 l 1
 599.799804688 100 l 2
 599.799804688 50 549.900390625 0.099609375 499.900390625 0 c 2
 233.200195312 0 l 2
 183.200195312 0 133.200195312 50 133.200195312 100 c 2xf6
 133.299804688 233.400390625 l 1
 66.400390625 233.400390625 l 1
 66.400390625 366.700195312 l 1
 133.299804688 366.700195312 l 1
 133.299804688 433.400390625 l 1
 66.400390625 433.400390625 l 1
 66.400390625 566.700195312 l 1xfa
 133.299804688 566.700195312 l 1
 133.200195312 700 l 2
 133.200195312 750 183.200195312 800 233.200195312 800 c 2
 499.700195312 800 l 2
 549.700195312 799.900390625 599.599609375 750 599.599609375 700 c 2
 599.599609375 600 l 1
 466.299804688 600 l 1
 466.299804688 666.700195312 l 1
 266.599609375 666.700195312 l 1
 266.599609375 566.700195312 l 1xf6
 399.700195312 566.700195312 l 1
 399.700195312 433.400390625 l 1xfa
 266.599609375 433.400390625 l 1
 266.599609375 366.700195312 l 1xf6
 399.700195312 366.700195312 l 1
 399.700195312 233.299804688 l 1xfa
 266.599609375 233.299804688 l 1
 266.599609375 133.299804688 l 1
 466.400390625 133.299804688 l 1
 466.400390625 200 l 1
 599.700195312 200 l 1xf6
EndSplineSet
Validated: 1
EndChar

StartChar: Theta
Encoding: 203 920 203
Width: 666
VWidth: 0
Flags: W
HStem: 0 133.3<199.6 466.3> 666.7 133.3<199.6 466.3>
VStem: 66.2998 133.3<133.3 666.7> 266.3 133.3<200 600> 466.3 133.3<133.3 666.7>
LayerCount: 2
Back
Fore
SplineSet
266.299804688 200 m 1
 266.299804688 600 l 1
 399.599609375 600 l 1
 399.599609375 200 l 1
 266.299804688 200 l 1
466.299804688 133.299804688 m 1
 466.299804688 666.700195312 l 1
 199.599609375 666.700195312 l 1
 199.599609375 133.299804688 l 1
 466.299804688 133.299804688 l 1
499.599609375 800 m 2
 549.649877126 800 599.599760884 750.100383891 599.599760884 700.150651439 c 0
 599.599609375 700 l 2
 599.599609375 100 l 2
 599.599609375 50 549.599609375 0 499.599609375 0 c 2
 166.299804688 0 l 2
 116.299804688 0 66.2998046875 50 66.2998046875 100 c 2
 66.2998046875 700 l 2
 66.2998046875 750 116.299804688 800 166.299804688 800 c 2
 499.599609375 800 l 2
EndSplineSet
Validated: 1
EndChar

StartChar: Lambda
Encoding: 204 923 204
Width: 666
VWidth: 0
Flags: W
HStem: 0 21G<66.4004 204.703 461.401 599.7> 0 21G<66.4004 204.703 461.401 599.7> 780 20G<261.4 404.7> 780 20G<261.4 404.7>
LayerCount: 2
Back
Fore
SplineSet
266.400390625 800 m 1xa0
 399.700195312 800 l 1
 599.700195312 0 l 1
 466.400390625 0 l 1
 333.100585938 533.299804688 l 1
 199.700195312 0 l 1
 66.400390625 0 l 1
 266.400390625 800 l 1xa0
EndSplineSet
Validated: 1
EndChar

StartChar: Delta
Encoding: 205 8710 205
Width: 666
VWidth: 0
Flags: W
HStem: 0 133.3<233 433> 780 20G<261.4 404.7> 780 20G<261.4 404.7>
LayerCount: 2
Back
Fore
SplineSet
233 133.299804688 m 1x80
 433 133.299804688 l 1
 333 533.299804688 l 1
 233 133.299804688 l 1x80
399.700195312 800 m 1xc0
 599.700195312 0 l 1
 66.400390625 0 l 1
 266.400390625 800 l 1
 399.700195312 800 l 1xc0
EndSplineSet
Validated: 1
EndChar

StartChar: product
Encoding: 206 8719 206
Width: 666
VWidth: 0
Flags: W
HStem: 0 21G<133 266.4 399.7 533> 0 21G<133 266.4 399.7 533> 666.7 133.3<66.4004 133 266.4 399.7 533 599.7>
VStem: 133 133.4<0 666.7> 399.7 133.3<0 666.7>
LayerCount: 2
Back
Fore
SplineSet
66.400390625 800 m 1xb8
 599.700195312 800 l 1
 599.700195312 666.700195312 l 1
 533 666.700195312 l 1
 533 0 l 1
 399.700195312 0 l 1
 399.700195312 666.700195312 l 1
 266.400390625 666.700195312 l 1
 266.400390625 0 l 1
 133 0 l 1
 133 666.700195312 l 1
 66.400390625 666.700195312 l 1
 66.400390625 800 l 1xb8
EndSplineSet
Validated: 1
EndChar

StartChar: radical
Encoding: 207 8730 207
Width: 666
VWidth: 0
Flags: W
HStem: 0 21G<266.4 399.7> 0 21G<266.4 399.7> 780 20G<66.4004 199.7 466.3 599.7> 780 20G<66.4004 199.7 466.3 599.7>
VStem: 266.4 133.3<0 357.122>
LayerCount: 2
Back
Fore
SplineSet
466.299804688 800 m 1xa8
 599.700195312 800 l 1
 599.700195312 800 599.700195312 800 513.200195312 489 c 0
 495.299804688 424.400390625 455.599609375 370.799804688 399.700195312 346.799804688 c 1
 399.700195312 0 l 1
 266.400390625 0 l 1
 266.400390625 346.799804688 l 1
 210.5 370.700195312 170.900390625 424.400390625 152.900390625 489 c 0
 66.400390625 800 66.400390625 800 66.400390625 800 c 1
 199.700195312 800 l 1
 199.700195312 800 199.682839248 800 199.682839248 799.888919926 c 0
 199.682839248 798.468367194 199.700195312 800 280.799804688 508.799804688 c 0
 287.422375169 485.020481551 308.299804688 466.700195312 333 466.700195312 c 0
 357.700195312 466.700195312 378.577624831 485.020481551 385.200195312 508.799804688 c 0
 466.299804688 800 466.317160752 798.468367194 466.317160752 799.888919926 c 0
 466.317160752 800 466.299804688 800 466.299804688 800 c 1xa8
EndSplineSet
Validated: 1
EndChar

StartChar: quoteleft
Encoding: 208 8216 208
Width: 666
VWidth: 0
Flags: W
HStem: 533.3 266.7<344.1 382.787>
VStem: 238.5 200.1<554.162 713.089>
LayerCount: 2
Back
Fore
SplineSet
305.200195312 533.299804688 m 2
 271.900390625 533.299804688 238.5 566.700195312 238.5 600 c 2
 238.5 666.700195312 l 2
 238.5 684.599609375 249.099609375 701.5 262.299804688 715.200195312 c 2
 262.299804688 715.200195312 344.099609375 800 344.099609375 800 c 1
 410.700195312 800 l 1
 384 731.900390625 l 1
 412.900390625 725.200195312 438.599609375 696 438.599609375 666.700195312 c 2
 438.599609375 600 l 2
 438.599609375 566.599609375 405.200195312 533.299804688 371.900390625 533.299804688 c 2
 305.200195312 533.299804688 l 2
EndSplineSet
Validated: 1
EndChar

StartChar: anoteleia
Encoding: 209 903 209
Width: 666
VWidth: 0
Flags: W
HStem: 333.4 133.3<266.4 399.7>
VStem: 266.4 133.3<333.4 466.7>
LayerCount: 2
Back
Fore
SplineSet
266.400390625 333.400390625 m 1
 266.400390625 466.700195312 l 1
 399.700195312 466.700195312 l 1
 399.700195312 333.400390625 l 1
 266.400390625 333.400390625 l 1
EndSplineSet
Validated: 1
EndChar

StartChar: quoteright
Encoding: 210 8217 210
Width: 666
VWidth: 0
Flags: W
HStem: 533.3 266.7<294.314 333>
VStem: 238.5 200.1<620.211 779.137>
LayerCount: 2
Back
Fore
SplineSet
371.900390625 800 m 2
 405.200195312 800 438.599609375 766.599609375 438.599609375 733.299804688 c 2
 438.599609375 666.599609375 l 2
 438.599609375 648.700195312 428 631.799804688 414.799804688 618.099609375 c 0
 333 533.299804688 333 533.299804688 333 533.299804688 c 1
 266.400390625 533.299804688 l 1
 293.099609375 601.400390625 l 1
 264.200195312 608.099609375 238.5 637.299804688 238.5 666.599609375 c 2
 238.5 733.299804688 l 2
 238.5 766.700195312 271.900390625 800 305.200195312 800 c 2
 371.900390625 800 l 2
EndSplineSet
Validated: 1
EndChar

StartChar: notequal
Encoding: 211 8800 211
Width: 666
VWidth: 0
Flags: HMW
LayerCount: 2
Back
Fore
SplineSet
66 467 m 1
 66 800 l 1
 133 800 l 1
 133 467 l 1
 66 467 l 1
400 733 m 1
 266 733 l 1
 266 667 l 1
 333 667 l 1
 333 600 l 1
 266 600 l 1
 266 533 l 1
 400 533 l 1
 400 467 l 1
 200 467 l 1
 200 800 l 1
 400 800 l 1
 400 733 l 1
EndSplineSet
Validated: 1
EndChar

StartChar: endash
Encoding: 212 8211 212
Width: 666
VWidth: 0
Flags: W
HStem: 333.4 133.3<99.7002 566.4>
LayerCount: 2
Back
Fore
SplineSet
99.7001953125 333.400390625 m 1
 99.7001953125 466.700195312 l 1
 566.400390625 466.700195312 l 1
 566.400390625 333.400390625 l 1
 99.7001953125 333.400390625 l 1
EndSplineSet
Validated: 1
EndChar

StartChar: emdash
Encoding: 213 8212 213
Width: 666
VWidth: 0
Flags: W
HStem: 333.4 133.3<66.4004 599.7>
LayerCount: 2
Back
Fore
SplineSet
66.400390625 333.400390625 m 1
 66.400390625 466.700195312 l 1
 599.700195312 466.700195312 l 1
 599.700195312 333.400390625 l 1
 66.400390625 333.400390625 l 1
EndSplineSet
Validated: 1
EndChar

StartChar: guilsinglleft
Encoding: 214 8249 214
Width: 666
VWidth: 0
Flags: W
VStem: 199.6 266.801
LayerCount: 2
Back
Fore
SplineSet
466.400390625 733.299804688 m 1
 466.400390625 566.700195312 l 1
 288.5 400 l 1
 466.400390625 233.299804688 l 1
 466.400390625 66.7001953125 l 1
 199.599609375 316.700195312 l 1
 199.599609375 483.299804688 l 1
 466.400390625 733.299804688 l 1
EndSplineSet
Validated: 1
EndChar

StartChar: infinity
Encoding: 215 8734 215
Width: 666
VWidth: 0
Flags: W
HStem: 200 133.3<199.6 266.2 399.6 466.3> 466.7 133.3<199.6 266.2 399.6 466.3>
VStem: 66.2998 133.3<333.3 466.7> 266.2 133.399<333.3 466.7> 466.3 133.4<333.3 466.7>
LayerCount: 2
Back
Fore
SplineSet
466.299804688 333.299804688 m 1
 466.299804688 466.700195312 l 1
 399.599609375 466.700195312 l 1
 399.599609375 333.299804688 l 1
 466.299804688 333.299804688 l 1
266.200195312 333.299804688 m 1
 266.200195312 466.700195312 l 1
 199.599609375 466.700195312 l 1
 199.599609375 333.299804688 l 1
 266.200195312 333.299804688 l 1
499.900390625 600 m 2
 549.799804688 599.799804688 599.700195312 549.900390625 599.700195312 500 c 2
 599.700195312 300 l 2
 599.700195312 250.099609375 549.799804688 200.099609375 499.900390625 200 c 2
 399.599609375 200 l 2
 366.299804688 200.099609375 333 233.400390625 333 266.700195312 c 1
 333 233.400390625 299.700195312 200.099609375 266.400390625 200 c 2
 166.099609375 200 l 2
 116.099609375 200.200195312 66.2998046875 250.099609375 66.2998046875 300 c 2
 66.2998046875 500 l 2
 66.2998046875 549.900390625 116.099609375 599.799804688 166 600 c 2
 266.400390625 600 l 2
 299.700195312 599.900390625 333 566.599609375 333 533.299804688 c 1
 333 566.700195312 366.299804688 600 399.599609375 600 c 2
 499.900390625 600 l 2
EndSplineSet
Validated: 1
EndChar

StartChar: guilsinglright
Encoding: 216 8250 216
Width: 666
VWidth: 0
Flags: W
VStem: 199.6 266.801
LayerCount: 2
Back
Fore
SplineSet
199.599609375 733.299804688 m 1
 466.400390625 483.299804688 l 1
 466.400390625 316.700195312 l 1
 199.599609375 66.7001953125 l 1
 199.599609375 233.299804688 l 1
 377.5 400 l 1
 199.599609375 566.700195312 l 1
 199.599609375 733.299804688 l 1
EndSplineSet
Validated: 1
EndChar

StartChar: ellipsis
Encoding: 217 8230 217
Width: 666
VWidth: 0
Flags: W
HStem: -0.0996094 200.1<259.425 417.838> 299.9 200.1<259.425 417.838> 599.9 200.1<259.425 417.838>
VStem: 238.6 200.101<20.7626 179.137 320.763 479.137 620.763 779.137>
CounterMasks: 1 e0
LayerCount: 2
Back
Fore
SplineSet
238.599609375 433.299804688 m 2
 238.599609375 466.700195312 271.900390625 500 305.299804688 500 c 2
 372 500 l 2
 405.400390625 500 438.700195312 466.599609375 438.700195312 433.299804688 c 2
 438.700195312 366.599609375 l 2
 438.700195312 333.200195312 405.299804688 299.900390625 372 299.900390625 c 2
 305.299804688 299.900390625 l 2
 271.900390625 299.900390625 238.599609375 333.299804688 238.599609375 366.599609375 c 2
 238.599609375 433.299804688 l 2
238.599609375 733.299804688 m 2
 238.599609375 766.700195312 271.900390625 800 305.299804688 800 c 2
 372 800 l 2
 405.400390625 800 438.700195312 766.599609375 438.700195312 733.299804688 c 2
 438.700195312 666.599609375 l 2
 438.700195312 633.200195312 405.299804688 599.900390625 372 599.900390625 c 2
 305.299804688 599.900390625 l 2
 271.900390625 599.900390625 238.599609375 633.299804688 238.599609375 666.599609375 c 2
 238.599609375 733.299804688 l 2
238.599609375 133.299804688 m 2
 238.599609375 166.700195312 271.900390625 200 305.299804688 200 c 2
 372 200 l 2
 405.400390625 200 438.700195312 166.599609375 438.700195312 133.299804688 c 2
 438.700195312 66.599609375 l 2
 438.700195312 33.2001953125 405.299804688 -0.099609375 372 -0.099609375 c 2
 305.299804688 -0.099609375 l 2
 271.900390625 -0.099609375 238.599609375 33.2998046875 238.599609375 66.599609375 c 2
 238.599609375 133.299804688 l 2
EndSplineSet
Validated: 1
EndChar

StartChar: uni2630
Encoding: 218 9776 218
Width: 666
VWidth: 0
Flags: W
HStem: 0 133.3<133 533> 333.4 133.3<133 533> 666.7 133.3<133 533>
VStem: 133 400<0 133.3 333.4 466.7 666.7 800>
LayerCount: 2
Back
Fore
SplineSet
133 333.400390625 m 1
 133 466.700195312 l 1
 533 466.700195312 l 1
 533 333.400390625 l 1
 133 333.400390625 l 1
133 0 m 1
 133 133.299804688 l 1
 533 133.299804688 l 1
 533 0 l 1
 133 0 l 1
133 666.700195312 m 1
 133 800 l 1
 533 800 l 1
 533 666.700195312 l 1
 133 666.700195312 l 1
EndSplineSet
Validated: 1
EndChar

StartChar: u1F33C
Encoding: 219 127804 219
Width: 666
VWidth: 0
Flags: W
LayerCount: 2
Back
Fore
SplineSet
399.599609375 333.299804688 m 1
 366.299804688 400 l 1
 399.700195312 466.700195312 l 1
 333 433.400390625 l 1
 266.299804688 466.700195312 l 1
 299.599609375 400 l 1
 266.299804688 333.299804688 l 1
 332.900390625 366.599609375 l 1
 399.599609375 333.299804688 l 1
560.400390625 492.900390625 m 1
 582.299804688 481.5 599.5 457.299804688 599.599609375 433.299804688 c 2
 599.599609375 366.599609375 l 2
 599.599609375 342.5 582.5 318.5 560.799804688 307 c 1
 564.504514148 298.115652188 566.359186517 288.196304454 566.359186517 278.279713562 c 0
 566.359186517 260.626274887 560.481572877 242.981572877 548.700195312 231.200195312 c 2
 501.599609375 184.099609375 l 2
 489.81823181 172.31823181 472.214369673 166.440618171 454.590566545 166.440618171 c 0
 444.690623038 166.440618171 434.78438718 168.29529054 425.900390625 172 c 1
 414.299804688 150.299804688 390.400390625 133.400390625 366.400390625 133.400390625 c 2
 299.700195312 133.400390625 l 2
 276 133.400390625 252.299804688 149.900390625 240.599609375 171.200195312 c 1
 231.554989671 167.318361258 221.383784472 165.367685671 211.210601891 165.367685671 c 0
 193.60266485 165.367685671 175.988804099 171.211391214 164.200195312 183 c 2
 117.099609375 230.099609375 l 2
 105.332625869 241.8672107 99.4488868387 259.518056501 99.4488868387 277.177830522 c 0
 99.4488868387 287.432168751 101.43268916 297.689517281 105.400390625 306.799804688 c 1
 83.599609375 318.299804688 66.400390625 342.400390625 66.400390625 366.5 c 2
 66.400390625 433.200195312 l 2
 66.400390625 457.299804688 83.5 481.299804688 105.299804688 492.799804688 c 1
 101.481388657 501.782244854 99.5673901281 511.835839148 99.5673901281 521.883332628 c 0
 99.5673901281 539.464751422 105.4278807 557.027490076 117.200195312 568.799804688 c 2
 164.299804688 615.900390625 l 2
 176.081807558 627.68176819 193.685494218 633.559381829 211.309346589 633.559381829 c 0
 221.209317758 633.559381829 231.115652188 631.70470946 240 628 c 1
 251.599609375 649.700195312 275.5 666.599609375 299.5 666.599609375 c 2
 366.200195312 666.599609375 l 2
 389.900390625 666.599609375 413.599609375 650.099609375 425.299804688 628.799804688 c 1
 434.344782 632.681638742 444.516082902 634.632314329 454.689291094 634.632314329 c 0
 472.297272465 634.632314329 489.910967571 628.788608786 501.700195312 617 c 2
 548.799804688 569.900390625 l 2
 560.584439166 558.115756146 566.451582698 540.45357708 566.451582698 522.795213715 c 0
 566.451582698 512.432780641 564.431127189 502.071661572 560.400390625 492.900390625 c 1
EndSplineSet
Validated: 1
EndChar

StartChar: NameMe.220
Encoding: 220 9760 220
Width: 666
VWidth: 0
Flags: W
HStem: 0 21G<66.4004 146.34 519.73 599.7> 0 21G<66.4004 146.34 519.73 599.7> 666.7 133.3<199.7 266.4 399.7 466.4>
VStem: 66.4004 133.3<466.7 666.7> 166.4 333.399<220.863 366.7> 266.4 133.3<466.7 666.7> 466.4 133.399<466.7 666.7>
LayerCount: 2
Back
Fore
SplineSet
66.400390625 200 m 1xb2
 333 133.299804688 l 1
 599.700195312 200 l 1
 599.700195312 133.299804688 l 1
 466.400390625 100 l 1
 599.700195312 66.7001953125 l 1
 599.700195312 0 l 1
 333 66.7001953125 l 1
 66.400390625 0 l 1
 66.400390625 66.7001953125 l 1
 199.700195312 100 l 1
 66.400390625 133.299804688 l 1
 66.400390625 200 l 1xb2
399.700195312 466.700195312 m 1x26
 466.400390625 466.700195312 l 1
 466.400390625 666.700195312 l 1
 399.700195312 666.700195312 l 1
 399.700195312 466.700195312 l 1x26
199.700195312 666.700195312 m 1x34
 199.700195312 466.700195312 l 1
 266.400390625 466.700195312 l 1
 266.400390625 666.700195312 l 1
 199.700195312 666.700195312 l 1x34
499.700195312 800 m 2
 549.700195312 800 599.700195312 750 599.799804688 700 c 2
 599.799804688 466.700195312 l 2x22
 599.799804688 416.700195312 549.799804688 366.700195312 499.799804688 366.700195312 c 1
 499.799804688 266.700195312 l 1
 499.400390625 266.700195312 l 1
 499.400390625 233.299804688 466 200 432.700195312 200 c 2
 233.099609375 200 l 2
 199.700195312 200 166.400390625 233.400390625 166.400390625 266.700195312 c 2
 166.400390625 366.700195312 l 1x28
 116.400390625 366.700195312 66.400390625 416.700195312 66.400390625 466.700195312 c 2
 66.400390625 700 l 2x30
 66.400390625 750 116.400390625 800 166.400390625 800 c 2x28
 499.700195312 800 l 2
EndSplineSet
Validated: 1
EndChar

StartChar: uni2607
Encoding: 221 9735 221
Width: 666
VWidth: 0
Flags: W
HStem: 0 21G<450.302 461.298> 780 20G<133 407.604>
LayerCount: 2
Back
Fore
SplineSet
266.400390625 533.299804688 m 1
 133 800 l 1
 399.599609375 800 l 1
 533 466.700195312 l 1
 433 466.700195312 l 1
 499.599609375 266.700195312 l 1
 399.599609375 266.700195312 l 1
 466.299804688 0 l 1
 199.700195312 333.299804688 l 1
 291.400390625 333.299804688 l 1
 166.299804688 533.299804688 l 1
 266.400390625 533.299804688 l 1
EndSplineSet
Validated: 1
EndChar

StartChar: uni2070
Encoding: 222 8304 222
Width: 666
VWidth: 0
Flags: W
HStem: 0 133.4<246.203 419.613> 666.7 133.3<246.366 419.797>
VStem: 66.2998 133.4<391.7 619.08> 466.4 133.3<180.92 408.3>
LayerCount: 2
Back
Fore
SplineSet
466.299804688 266.700195312 m 1
 466.400390625 266.700195312 l 1
 466.400390625 408.299804688 l 1
 202.799804688 227.200195312 l 1
 214 163 255.700195312 133.400390625 333 133.400390625 c 0
 424.599609375 133.400390625 466.299804688 175 466.299804688 266.700195312 c 1
333 666.700195312 m 0
 241.299804688 666.700195312 199.700195312 625 199.700195312 533.299804688 c 2
 199.700195312 391.700195312 l 1
 463.200195312 572.900390625 l 1
 452 637.099609375 410.299804688 666.700195312 333 666.700195312 c 0
333 800 m 0
 516.299804688 800 599.700195312 716.700195312 599.700195312 533.299804688 c 2
 599.700195312 266.700195312 l 2
 599.700195312 83.2998046875 516.299804688 0 333 0 c 0
 149.700195312 0 66.2998046875 83.2998046875 66.2998046875 266.599609375 c 2
 66.2998046875 533.299804688 l 2
 66.2998046875 716.700195312 149.700195312 800 333 800 c 0
EndSplineSet
Validated: 1
EndChar

StartChar: uni00B9
Encoding: 223 185 223
Width: 666
VWidth: 0
Flags: W
HStem: 0 133.4<66.2998 266.3 399.7 599.6> 533.4 133.3<66.4004 219.932> 780 20G<266.4 399.7> 780 20G<266.4 399.7>
VStem: 266.3 133.4<133.4 554.4 712.476 800>
LayerCount: 2
Back
Fore
SplineSet
399.700195312 133.299804688 m 1xe8
 599.599609375 133.299804688 l 1
 599.599609375 0 l 1
 66.2998046875 0 l 1
 66.2998046875 133.400390625 l 1
 266.299804688 133.400390625 l 1
 266.299804688 554.400390625 l 1
 229.799804688 540.299804688 185.5 533.400390625 133 533.400390625 c 2
 66.400390625 533.400390625 l 1
 66.400390625 666.700195312 l 1
 133.099609375 666.700195312 l 2
 224.700195312 666.700195312 266.400390625 708.299804688 266.400390625 800 c 1
 399.700195312 800 l 1
 399.700195312 133.299804688 l 1xe8
EndSplineSet
Validated: 1
EndChar

StartChar: uni00B2
Encoding: 224 178 224
Width: 666
VWidth: 0
Flags: W
HStem: 0 133.3<199.6 599.6> 333.3 133.4<230.765 435.208> 666.7 133.3<230.765 435.098>
VStem: 66.2998 133.3<133.3 302.235 533.4 635.534> 466.3 133.3<496.039 637.496>
CounterMasks: 1 e0
LayerCount: 2
Back
Fore
SplineSet
199.599609375 233.299804688 m 2
 199.599609375 133.299804688 l 1
 599.599609375 133.299804688 l 1
 599.599609375 0 l 1
 66.2998046875 0 l 1
 66.2998046875 233.400390625 l 2
 66.2998046875 393.799804688 139.200195312 466.700195312 299.599609375 466.700195312 c 2
 366.299804688 466.700195312 l 2
 435 466.700195312 466.299804688 497.900390625 466.299804688 566.700195312 c 0
 466.299804688 635.400390625 435 666.700195312 366.299804688 666.700195312 c 2
 299.599609375 666.700195312 l 2
 230.900390625 666.700195312 199.599609375 635.5 199.599609375 566.700195312 c 2
 199.599609375 533.400390625 l 1
 66.2998046875 533.400390625 l 1
 66.2998046875 566.700195312 l 2
 66.2998046875 727.099609375 139.200195312 800 299.599609375 800 c 0
 314.099609375 800 366.299804688 800 366.299804688 800 c 2
 526.589847783 800 599.599713175 727.199878593 599.599713175 566.930733169 c 0
 599.54936313 406.312519984 526.930423607 333.299804688 366.299804688 333.299804688 c 2
 299.599609375 333.299804688 l 2
 230.900390625 333.299804688 199.599609375 302.099609375 199.599609375 233.299804688 c 2
EndSplineSet
Validated: 1
EndChar

StartChar: uni00B3
Encoding: 225 179 225
Width: 666
VWidth: 0
Flags: W
HStem: 0.0996094 133.301<230.765 435.134> 333.4 133.3<299.6 438.884> 666.7 133.3<230.765 435.141>
VStem: 66.2998 133.3<164.566 266.7 533.4 635.534> 466.3 133.3<162.691 305.769 494.334 637.41>
LayerCount: 2
Back
Fore
SplineSet
599.700195312 566.700195312 m 0
 599.700195312 493.200195312 584.299804688 438.200195312 552.299804688 400.099609375 c 1
 584.299804688 361.900390625 599.599609375 306.900390625 599.599609375 233.400390625 c 0
 599.599609375 73 526.700195312 0.099609375 366.299804688 0.099609375 c 2
 366.299804688 0.099609375 314.099609375 0.099609375 299.599609375 0.099609375 c 0
 139.200195312 0.099609375 66.2998046875 73 66.2998046875 233.400390625 c 2
 66.2998046875 266.700195312 l 1
 199.599609375 266.700195312 l 1
 199.599609375 233.400390625 l 2
 199.599609375 164.599609375 230.900390625 133.400390625 299.599609375 133.400390625 c 2
 366.299804688 133.400390625 l 2
 435 133.400390625 466.299804688 164.700195312 466.299804688 233.400390625 c 0
 466.299804688 302.099609375 435 333.400390625 366.299804688 333.400390625 c 2
 366.299804688 333.400390625 299.599609375 333.400390625 299.599609375 333.400390625 c 1
 299.599609375 466.700195312 l 1
 299.599609375 466.700195312 366.299804688 466.700195312 366.299804688 466.700195312 c 2
 435.099609375 466.700195312 466.299804688 498 466.299804688 566.700195312 c 0
 466.299804688 635.400390625 435 666.700195312 366.299804688 666.700195312 c 2
 299.599609375 666.700195312 l 2
 230.900390625 666.700195312 199.599609375 635.5 199.599609375 566.700195312 c 2
 199.599609375 533.400390625 l 1
 66.2998046875 533.400390625 l 1
 66.2998046875 566.700195312 l 2
 66.2998046875 727.099609375 139.200195312 800 299.599609375 800 c 0
 314.099609375 800 366.299804688 800 366.299804688 800 c 2
 526.700195312 800 599.700195312 727.099609375 599.700195312 566.700195312 c 0
EndSplineSet
Validated: 1
EndChar

StartChar: uni2074
Encoding: 226 8308 226
Width: 666
VWidth: 0
Flags: W
HStem: 0 21G<466.3 599.6> 0 21G<466.3 599.6> 333.4 133.3<230.765 466.3> 780 20G<66.2998 199.6 466.3 599.6> 780 20G<66.2998 199.6 466.3 599.6>
VStem: 66.2998 133.3<497.866 800> 466.3 133.3<0 333.4 466.7 800>
LayerCount: 2
Back
Fore
SplineSet
466.299804688 800 m 1xb6
 599.599609375 800 l 1
 599.599609375 0 l 1
 466.299804688 0 l 1
 466.299804688 333.400390625 l 1
 299.599609375 333.400390625 l 2
 139.200195312 333.400390625 66.2998046875 406.299804688 66.2998046875 566.700195312 c 2
 66.2998046875 800 l 1
 199.599609375 800 l 1
 199.599609375 566.700195312 l 2
 199.599609375 498 230.900390625 466.700195312 299.599609375 466.700195312 c 2
 466.299804688 466.700195312 l 1
 466.299804688 800 l 1xb6
EndSplineSet
Validated: 1
EndChar

StartChar: uni2075
Encoding: 227 8309 227
Width: 666
VWidth: 0
Flags: W
HStem: 0 133.3<212.807 435.134> 333.3 133.4<199.6 435.134> 666.7 133.3<199.6 599.7>
VStem: 66.2998 133.3<146.407 266.7 466.7 666.7> 466.3 133.3<162.43 303.892>
CounterMasks: 1 e0
LayerCount: 2
Back
Fore
SplineSet
599.700195312 666.700195312 m 1
 199.599609375 666.700195312 l 1
 199.599609375 466.700195312 l 1
 366.299804688 466.700195312 l 2
 526.700195312 466.700195312 599.599609375 393.400390625 599.599609375 233 c 0
 599.599609375 72.599609375 526.700195312 0 366.299804688 0 c 2
 266.400390625 0 l 2
 128.900390625 0 66.400390625 62.5 66.400390625 200 c 2
 66.2998046875 266.700195312 l 1
 199.700195312 266.700195312 l 1
 199.700195312 200 l 2
 199.700195312 154.099609375 220.599609375 133.299804688 266.400390625 133.299804688 c 2
 366.299804688 133.299804688 l 2
 435 133.299804688 466.299804688 164.5 466.299804688 233.299804688 c 0
 466.299804688 302.099609375 435.099609375 333.299804688 366.299804688 333.299804688 c 2
 66.2998046875 333.299804688 l 1
 66.2998046875 800 l 1
 599.700195312 800 l 1
 599.700195312 666.700195312 l 1
EndSplineSet
Validated: 1
EndChar

